G75*
%MOIN*%
%OFA0B0*%
%FSLAX25Y25*%
%IPPOS*%
%LPD*%
%AMOC8*
5,1,8,0,0,1.08239X$1,22.5*
%
%ADD10C,0.00000*%
%ADD11C,0.00300*%
%ADD12C,0.00600*%
%ADD13C,0.00400*%
%ADD14R,0.02362X0.04331*%
%ADD15C,0.00500*%
%ADD16R,0.01673X0.01280*%
%ADD17R,0.01378X0.01378*%
D10*
X0001000Y0002378D02*
X0001394Y0242890D01*
X0273559Y0241512D01*
X0272969Y0001000D01*
X0001000Y0002378D01*
X0009907Y0030724D02*
X0009909Y0030882D01*
X0009915Y0031039D01*
X0009925Y0031197D01*
X0009939Y0031354D01*
X0009957Y0031510D01*
X0009978Y0031667D01*
X0010004Y0031822D01*
X0010034Y0031977D01*
X0010067Y0032131D01*
X0010105Y0032284D01*
X0010146Y0032437D01*
X0010191Y0032588D01*
X0010240Y0032738D01*
X0010293Y0032886D01*
X0010349Y0033034D01*
X0010410Y0033179D01*
X0010473Y0033324D01*
X0010541Y0033466D01*
X0010612Y0033607D01*
X0010686Y0033746D01*
X0010764Y0033883D01*
X0010846Y0034018D01*
X0010930Y0034151D01*
X0011019Y0034282D01*
X0011110Y0034410D01*
X0011205Y0034537D01*
X0011302Y0034660D01*
X0011403Y0034782D01*
X0011507Y0034900D01*
X0011614Y0035016D01*
X0011724Y0035129D01*
X0011836Y0035240D01*
X0011952Y0035347D01*
X0012070Y0035452D01*
X0012190Y0035554D01*
X0012313Y0035652D01*
X0012439Y0035748D01*
X0012567Y0035840D01*
X0012697Y0035929D01*
X0012829Y0036015D01*
X0012964Y0036097D01*
X0013101Y0036176D01*
X0013239Y0036251D01*
X0013379Y0036323D01*
X0013522Y0036391D01*
X0013665Y0036456D01*
X0013811Y0036517D01*
X0013958Y0036574D01*
X0014106Y0036628D01*
X0014256Y0036678D01*
X0014406Y0036724D01*
X0014558Y0036766D01*
X0014711Y0036805D01*
X0014865Y0036839D01*
X0015020Y0036870D01*
X0015175Y0036896D01*
X0015331Y0036919D01*
X0015488Y0036938D01*
X0015645Y0036953D01*
X0015802Y0036964D01*
X0015960Y0036971D01*
X0016118Y0036974D01*
X0016275Y0036973D01*
X0016433Y0036968D01*
X0016590Y0036959D01*
X0016748Y0036946D01*
X0016904Y0036929D01*
X0017061Y0036908D01*
X0017216Y0036884D01*
X0017371Y0036855D01*
X0017526Y0036822D01*
X0017679Y0036786D01*
X0017832Y0036745D01*
X0017983Y0036701D01*
X0018133Y0036653D01*
X0018282Y0036602D01*
X0018430Y0036546D01*
X0018576Y0036487D01*
X0018721Y0036424D01*
X0018864Y0036357D01*
X0019005Y0036287D01*
X0019144Y0036214D01*
X0019282Y0036137D01*
X0019418Y0036056D01*
X0019551Y0035972D01*
X0019682Y0035885D01*
X0019811Y0035794D01*
X0019938Y0035700D01*
X0020063Y0035603D01*
X0020184Y0035503D01*
X0020304Y0035400D01*
X0020420Y0035294D01*
X0020534Y0035185D01*
X0020646Y0035073D01*
X0020754Y0034959D01*
X0020859Y0034841D01*
X0020962Y0034721D01*
X0021061Y0034599D01*
X0021157Y0034474D01*
X0021250Y0034346D01*
X0021340Y0034217D01*
X0021426Y0034085D01*
X0021510Y0033951D01*
X0021589Y0033815D01*
X0021666Y0033677D01*
X0021738Y0033537D01*
X0021807Y0033395D01*
X0021873Y0033252D01*
X0021935Y0033107D01*
X0021993Y0032960D01*
X0022048Y0032812D01*
X0022099Y0032663D01*
X0022146Y0032512D01*
X0022189Y0032361D01*
X0022228Y0032208D01*
X0022264Y0032054D01*
X0022295Y0031900D01*
X0022323Y0031745D01*
X0022347Y0031589D01*
X0022367Y0031432D01*
X0022383Y0031275D01*
X0022395Y0031118D01*
X0022403Y0030961D01*
X0022407Y0030803D01*
X0022407Y0030645D01*
X0022403Y0030487D01*
X0022395Y0030330D01*
X0022383Y0030173D01*
X0022367Y0030016D01*
X0022347Y0029859D01*
X0022323Y0029703D01*
X0022295Y0029548D01*
X0022264Y0029394D01*
X0022228Y0029240D01*
X0022189Y0029087D01*
X0022146Y0028936D01*
X0022099Y0028785D01*
X0022048Y0028636D01*
X0021993Y0028488D01*
X0021935Y0028341D01*
X0021873Y0028196D01*
X0021807Y0028053D01*
X0021738Y0027911D01*
X0021666Y0027771D01*
X0021589Y0027633D01*
X0021510Y0027497D01*
X0021426Y0027363D01*
X0021340Y0027231D01*
X0021250Y0027102D01*
X0021157Y0026974D01*
X0021061Y0026849D01*
X0020962Y0026727D01*
X0020859Y0026607D01*
X0020754Y0026489D01*
X0020646Y0026375D01*
X0020534Y0026263D01*
X0020420Y0026154D01*
X0020304Y0026048D01*
X0020184Y0025945D01*
X0020063Y0025845D01*
X0019938Y0025748D01*
X0019811Y0025654D01*
X0019682Y0025563D01*
X0019551Y0025476D01*
X0019418Y0025392D01*
X0019282Y0025311D01*
X0019144Y0025234D01*
X0019005Y0025161D01*
X0018864Y0025091D01*
X0018721Y0025024D01*
X0018576Y0024961D01*
X0018430Y0024902D01*
X0018282Y0024846D01*
X0018133Y0024795D01*
X0017983Y0024747D01*
X0017832Y0024703D01*
X0017679Y0024662D01*
X0017526Y0024626D01*
X0017371Y0024593D01*
X0017216Y0024564D01*
X0017061Y0024540D01*
X0016904Y0024519D01*
X0016748Y0024502D01*
X0016590Y0024489D01*
X0016433Y0024480D01*
X0016275Y0024475D01*
X0016118Y0024474D01*
X0015960Y0024477D01*
X0015802Y0024484D01*
X0015645Y0024495D01*
X0015488Y0024510D01*
X0015331Y0024529D01*
X0015175Y0024552D01*
X0015020Y0024578D01*
X0014865Y0024609D01*
X0014711Y0024643D01*
X0014558Y0024682D01*
X0014406Y0024724D01*
X0014256Y0024770D01*
X0014106Y0024820D01*
X0013958Y0024874D01*
X0013811Y0024931D01*
X0013665Y0024992D01*
X0013522Y0025057D01*
X0013379Y0025125D01*
X0013239Y0025197D01*
X0013101Y0025272D01*
X0012964Y0025351D01*
X0012829Y0025433D01*
X0012697Y0025519D01*
X0012567Y0025608D01*
X0012439Y0025700D01*
X0012313Y0025796D01*
X0012190Y0025894D01*
X0012070Y0025996D01*
X0011952Y0026101D01*
X0011836Y0026208D01*
X0011724Y0026319D01*
X0011614Y0026432D01*
X0011507Y0026548D01*
X0011403Y0026666D01*
X0011302Y0026788D01*
X0011205Y0026911D01*
X0011110Y0027038D01*
X0011019Y0027166D01*
X0010930Y0027297D01*
X0010846Y0027430D01*
X0010764Y0027565D01*
X0010686Y0027702D01*
X0010612Y0027841D01*
X0010541Y0027982D01*
X0010473Y0028124D01*
X0010410Y0028269D01*
X0010349Y0028414D01*
X0010293Y0028562D01*
X0010240Y0028710D01*
X0010191Y0028860D01*
X0010146Y0029011D01*
X0010105Y0029164D01*
X0010067Y0029317D01*
X0010034Y0029471D01*
X0010004Y0029626D01*
X0009978Y0029781D01*
X0009957Y0029938D01*
X0009939Y0030094D01*
X0009925Y0030251D01*
X0009915Y0030409D01*
X0009909Y0030566D01*
X0009907Y0030724D01*
X0009514Y0222850D02*
X0009516Y0223008D01*
X0009522Y0223165D01*
X0009532Y0223323D01*
X0009546Y0223480D01*
X0009564Y0223636D01*
X0009585Y0223793D01*
X0009611Y0223948D01*
X0009641Y0224103D01*
X0009674Y0224257D01*
X0009712Y0224410D01*
X0009753Y0224563D01*
X0009798Y0224714D01*
X0009847Y0224864D01*
X0009900Y0225012D01*
X0009956Y0225160D01*
X0010017Y0225305D01*
X0010080Y0225450D01*
X0010148Y0225592D01*
X0010219Y0225733D01*
X0010293Y0225872D01*
X0010371Y0226009D01*
X0010453Y0226144D01*
X0010537Y0226277D01*
X0010626Y0226408D01*
X0010717Y0226536D01*
X0010812Y0226663D01*
X0010909Y0226786D01*
X0011010Y0226908D01*
X0011114Y0227026D01*
X0011221Y0227142D01*
X0011331Y0227255D01*
X0011443Y0227366D01*
X0011559Y0227473D01*
X0011677Y0227578D01*
X0011797Y0227680D01*
X0011920Y0227778D01*
X0012046Y0227874D01*
X0012174Y0227966D01*
X0012304Y0228055D01*
X0012436Y0228141D01*
X0012571Y0228223D01*
X0012708Y0228302D01*
X0012846Y0228377D01*
X0012986Y0228449D01*
X0013129Y0228517D01*
X0013272Y0228582D01*
X0013418Y0228643D01*
X0013565Y0228700D01*
X0013713Y0228754D01*
X0013863Y0228804D01*
X0014013Y0228850D01*
X0014165Y0228892D01*
X0014318Y0228931D01*
X0014472Y0228965D01*
X0014627Y0228996D01*
X0014782Y0229022D01*
X0014938Y0229045D01*
X0015095Y0229064D01*
X0015252Y0229079D01*
X0015409Y0229090D01*
X0015567Y0229097D01*
X0015725Y0229100D01*
X0015882Y0229099D01*
X0016040Y0229094D01*
X0016197Y0229085D01*
X0016355Y0229072D01*
X0016511Y0229055D01*
X0016668Y0229034D01*
X0016823Y0229010D01*
X0016978Y0228981D01*
X0017133Y0228948D01*
X0017286Y0228912D01*
X0017439Y0228871D01*
X0017590Y0228827D01*
X0017740Y0228779D01*
X0017889Y0228728D01*
X0018037Y0228672D01*
X0018183Y0228613D01*
X0018328Y0228550D01*
X0018471Y0228483D01*
X0018612Y0228413D01*
X0018751Y0228340D01*
X0018889Y0228263D01*
X0019025Y0228182D01*
X0019158Y0228098D01*
X0019289Y0228011D01*
X0019418Y0227920D01*
X0019545Y0227826D01*
X0019670Y0227729D01*
X0019791Y0227629D01*
X0019911Y0227526D01*
X0020027Y0227420D01*
X0020141Y0227311D01*
X0020253Y0227199D01*
X0020361Y0227085D01*
X0020466Y0226967D01*
X0020569Y0226847D01*
X0020668Y0226725D01*
X0020764Y0226600D01*
X0020857Y0226472D01*
X0020947Y0226343D01*
X0021033Y0226211D01*
X0021117Y0226077D01*
X0021196Y0225941D01*
X0021273Y0225803D01*
X0021345Y0225663D01*
X0021414Y0225521D01*
X0021480Y0225378D01*
X0021542Y0225233D01*
X0021600Y0225086D01*
X0021655Y0224938D01*
X0021706Y0224789D01*
X0021753Y0224638D01*
X0021796Y0224487D01*
X0021835Y0224334D01*
X0021871Y0224180D01*
X0021902Y0224026D01*
X0021930Y0223871D01*
X0021954Y0223715D01*
X0021974Y0223558D01*
X0021990Y0223401D01*
X0022002Y0223244D01*
X0022010Y0223087D01*
X0022014Y0222929D01*
X0022014Y0222771D01*
X0022010Y0222613D01*
X0022002Y0222456D01*
X0021990Y0222299D01*
X0021974Y0222142D01*
X0021954Y0221985D01*
X0021930Y0221829D01*
X0021902Y0221674D01*
X0021871Y0221520D01*
X0021835Y0221366D01*
X0021796Y0221213D01*
X0021753Y0221062D01*
X0021706Y0220911D01*
X0021655Y0220762D01*
X0021600Y0220614D01*
X0021542Y0220467D01*
X0021480Y0220322D01*
X0021414Y0220179D01*
X0021345Y0220037D01*
X0021273Y0219897D01*
X0021196Y0219759D01*
X0021117Y0219623D01*
X0021033Y0219489D01*
X0020947Y0219357D01*
X0020857Y0219228D01*
X0020764Y0219100D01*
X0020668Y0218975D01*
X0020569Y0218853D01*
X0020466Y0218733D01*
X0020361Y0218615D01*
X0020253Y0218501D01*
X0020141Y0218389D01*
X0020027Y0218280D01*
X0019911Y0218174D01*
X0019791Y0218071D01*
X0019670Y0217971D01*
X0019545Y0217874D01*
X0019418Y0217780D01*
X0019289Y0217689D01*
X0019158Y0217602D01*
X0019025Y0217518D01*
X0018889Y0217437D01*
X0018751Y0217360D01*
X0018612Y0217287D01*
X0018471Y0217217D01*
X0018328Y0217150D01*
X0018183Y0217087D01*
X0018037Y0217028D01*
X0017889Y0216972D01*
X0017740Y0216921D01*
X0017590Y0216873D01*
X0017439Y0216829D01*
X0017286Y0216788D01*
X0017133Y0216752D01*
X0016978Y0216719D01*
X0016823Y0216690D01*
X0016668Y0216666D01*
X0016511Y0216645D01*
X0016355Y0216628D01*
X0016197Y0216615D01*
X0016040Y0216606D01*
X0015882Y0216601D01*
X0015725Y0216600D01*
X0015567Y0216603D01*
X0015409Y0216610D01*
X0015252Y0216621D01*
X0015095Y0216636D01*
X0014938Y0216655D01*
X0014782Y0216678D01*
X0014627Y0216704D01*
X0014472Y0216735D01*
X0014318Y0216769D01*
X0014165Y0216808D01*
X0014013Y0216850D01*
X0013863Y0216896D01*
X0013713Y0216946D01*
X0013565Y0217000D01*
X0013418Y0217057D01*
X0013272Y0217118D01*
X0013129Y0217183D01*
X0012986Y0217251D01*
X0012846Y0217323D01*
X0012708Y0217398D01*
X0012571Y0217477D01*
X0012436Y0217559D01*
X0012304Y0217645D01*
X0012174Y0217734D01*
X0012046Y0217826D01*
X0011920Y0217922D01*
X0011797Y0218020D01*
X0011677Y0218122D01*
X0011559Y0218227D01*
X0011443Y0218334D01*
X0011331Y0218445D01*
X0011221Y0218558D01*
X0011114Y0218674D01*
X0011010Y0218792D01*
X0010909Y0218914D01*
X0010812Y0219037D01*
X0010717Y0219164D01*
X0010626Y0219292D01*
X0010537Y0219423D01*
X0010453Y0219556D01*
X0010371Y0219691D01*
X0010293Y0219828D01*
X0010219Y0219967D01*
X0010148Y0220108D01*
X0010080Y0220250D01*
X0010017Y0220395D01*
X0009956Y0220540D01*
X0009900Y0220688D01*
X0009847Y0220836D01*
X0009798Y0220986D01*
X0009753Y0221137D01*
X0009712Y0221290D01*
X0009674Y0221443D01*
X0009641Y0221597D01*
X0009611Y0221752D01*
X0009585Y0221907D01*
X0009564Y0222064D01*
X0009546Y0222220D01*
X0009532Y0222377D01*
X0009522Y0222535D01*
X0009516Y0222692D01*
X0009514Y0222850D01*
X0219553Y0228953D02*
X0219555Y0229111D01*
X0219561Y0229268D01*
X0219571Y0229426D01*
X0219585Y0229583D01*
X0219603Y0229739D01*
X0219624Y0229896D01*
X0219650Y0230051D01*
X0219680Y0230206D01*
X0219713Y0230360D01*
X0219751Y0230513D01*
X0219792Y0230666D01*
X0219837Y0230817D01*
X0219886Y0230967D01*
X0219939Y0231115D01*
X0219995Y0231263D01*
X0220056Y0231408D01*
X0220119Y0231553D01*
X0220187Y0231695D01*
X0220258Y0231836D01*
X0220332Y0231975D01*
X0220410Y0232112D01*
X0220492Y0232247D01*
X0220576Y0232380D01*
X0220665Y0232511D01*
X0220756Y0232639D01*
X0220851Y0232766D01*
X0220948Y0232889D01*
X0221049Y0233011D01*
X0221153Y0233129D01*
X0221260Y0233245D01*
X0221370Y0233358D01*
X0221482Y0233469D01*
X0221598Y0233576D01*
X0221716Y0233681D01*
X0221836Y0233783D01*
X0221959Y0233881D01*
X0222085Y0233977D01*
X0222213Y0234069D01*
X0222343Y0234158D01*
X0222475Y0234244D01*
X0222610Y0234326D01*
X0222747Y0234405D01*
X0222885Y0234480D01*
X0223025Y0234552D01*
X0223168Y0234620D01*
X0223311Y0234685D01*
X0223457Y0234746D01*
X0223604Y0234803D01*
X0223752Y0234857D01*
X0223902Y0234907D01*
X0224052Y0234953D01*
X0224204Y0234995D01*
X0224357Y0235034D01*
X0224511Y0235068D01*
X0224666Y0235099D01*
X0224821Y0235125D01*
X0224977Y0235148D01*
X0225134Y0235167D01*
X0225291Y0235182D01*
X0225448Y0235193D01*
X0225606Y0235200D01*
X0225764Y0235203D01*
X0225921Y0235202D01*
X0226079Y0235197D01*
X0226236Y0235188D01*
X0226394Y0235175D01*
X0226550Y0235158D01*
X0226707Y0235137D01*
X0226862Y0235113D01*
X0227017Y0235084D01*
X0227172Y0235051D01*
X0227325Y0235015D01*
X0227478Y0234974D01*
X0227629Y0234930D01*
X0227779Y0234882D01*
X0227928Y0234831D01*
X0228076Y0234775D01*
X0228222Y0234716D01*
X0228367Y0234653D01*
X0228510Y0234586D01*
X0228651Y0234516D01*
X0228790Y0234443D01*
X0228928Y0234366D01*
X0229064Y0234285D01*
X0229197Y0234201D01*
X0229328Y0234114D01*
X0229457Y0234023D01*
X0229584Y0233929D01*
X0229709Y0233832D01*
X0229830Y0233732D01*
X0229950Y0233629D01*
X0230066Y0233523D01*
X0230180Y0233414D01*
X0230292Y0233302D01*
X0230400Y0233188D01*
X0230505Y0233070D01*
X0230608Y0232950D01*
X0230707Y0232828D01*
X0230803Y0232703D01*
X0230896Y0232575D01*
X0230986Y0232446D01*
X0231072Y0232314D01*
X0231156Y0232180D01*
X0231235Y0232044D01*
X0231312Y0231906D01*
X0231384Y0231766D01*
X0231453Y0231624D01*
X0231519Y0231481D01*
X0231581Y0231336D01*
X0231639Y0231189D01*
X0231694Y0231041D01*
X0231745Y0230892D01*
X0231792Y0230741D01*
X0231835Y0230590D01*
X0231874Y0230437D01*
X0231910Y0230283D01*
X0231941Y0230129D01*
X0231969Y0229974D01*
X0231993Y0229818D01*
X0232013Y0229661D01*
X0232029Y0229504D01*
X0232041Y0229347D01*
X0232049Y0229190D01*
X0232053Y0229032D01*
X0232053Y0228874D01*
X0232049Y0228716D01*
X0232041Y0228559D01*
X0232029Y0228402D01*
X0232013Y0228245D01*
X0231993Y0228088D01*
X0231969Y0227932D01*
X0231941Y0227777D01*
X0231910Y0227623D01*
X0231874Y0227469D01*
X0231835Y0227316D01*
X0231792Y0227165D01*
X0231745Y0227014D01*
X0231694Y0226865D01*
X0231639Y0226717D01*
X0231581Y0226570D01*
X0231519Y0226425D01*
X0231453Y0226282D01*
X0231384Y0226140D01*
X0231312Y0226000D01*
X0231235Y0225862D01*
X0231156Y0225726D01*
X0231072Y0225592D01*
X0230986Y0225460D01*
X0230896Y0225331D01*
X0230803Y0225203D01*
X0230707Y0225078D01*
X0230608Y0224956D01*
X0230505Y0224836D01*
X0230400Y0224718D01*
X0230292Y0224604D01*
X0230180Y0224492D01*
X0230066Y0224383D01*
X0229950Y0224277D01*
X0229830Y0224174D01*
X0229709Y0224074D01*
X0229584Y0223977D01*
X0229457Y0223883D01*
X0229328Y0223792D01*
X0229197Y0223705D01*
X0229064Y0223621D01*
X0228928Y0223540D01*
X0228790Y0223463D01*
X0228651Y0223390D01*
X0228510Y0223320D01*
X0228367Y0223253D01*
X0228222Y0223190D01*
X0228076Y0223131D01*
X0227928Y0223075D01*
X0227779Y0223024D01*
X0227629Y0222976D01*
X0227478Y0222932D01*
X0227325Y0222891D01*
X0227172Y0222855D01*
X0227017Y0222822D01*
X0226862Y0222793D01*
X0226707Y0222769D01*
X0226550Y0222748D01*
X0226394Y0222731D01*
X0226236Y0222718D01*
X0226079Y0222709D01*
X0225921Y0222704D01*
X0225764Y0222703D01*
X0225606Y0222706D01*
X0225448Y0222713D01*
X0225291Y0222724D01*
X0225134Y0222739D01*
X0224977Y0222758D01*
X0224821Y0222781D01*
X0224666Y0222807D01*
X0224511Y0222838D01*
X0224357Y0222872D01*
X0224204Y0222911D01*
X0224052Y0222953D01*
X0223902Y0222999D01*
X0223752Y0223049D01*
X0223604Y0223103D01*
X0223457Y0223160D01*
X0223311Y0223221D01*
X0223168Y0223286D01*
X0223025Y0223354D01*
X0222885Y0223426D01*
X0222747Y0223501D01*
X0222610Y0223580D01*
X0222475Y0223662D01*
X0222343Y0223748D01*
X0222213Y0223837D01*
X0222085Y0223929D01*
X0221959Y0224025D01*
X0221836Y0224123D01*
X0221716Y0224225D01*
X0221598Y0224330D01*
X0221482Y0224437D01*
X0221370Y0224548D01*
X0221260Y0224661D01*
X0221153Y0224777D01*
X0221049Y0224895D01*
X0220948Y0225017D01*
X0220851Y0225140D01*
X0220756Y0225267D01*
X0220665Y0225395D01*
X0220576Y0225526D01*
X0220492Y0225659D01*
X0220410Y0225794D01*
X0220332Y0225931D01*
X0220258Y0226070D01*
X0220187Y0226211D01*
X0220119Y0226353D01*
X0220056Y0226498D01*
X0219995Y0226643D01*
X0219939Y0226791D01*
X0219886Y0226939D01*
X0219837Y0227089D01*
X0219792Y0227240D01*
X0219751Y0227393D01*
X0219713Y0227546D01*
X0219680Y0227700D01*
X0219650Y0227855D01*
X0219624Y0228010D01*
X0219603Y0228167D01*
X0219585Y0228323D01*
X0219571Y0228480D01*
X0219561Y0228638D01*
X0219555Y0228795D01*
X0219553Y0228953D01*
X0226246Y0018323D02*
X0226248Y0018481D01*
X0226254Y0018638D01*
X0226264Y0018796D01*
X0226278Y0018953D01*
X0226296Y0019109D01*
X0226317Y0019266D01*
X0226343Y0019421D01*
X0226373Y0019576D01*
X0226406Y0019730D01*
X0226444Y0019883D01*
X0226485Y0020036D01*
X0226530Y0020187D01*
X0226579Y0020337D01*
X0226632Y0020485D01*
X0226688Y0020633D01*
X0226749Y0020778D01*
X0226812Y0020923D01*
X0226880Y0021065D01*
X0226951Y0021206D01*
X0227025Y0021345D01*
X0227103Y0021482D01*
X0227185Y0021617D01*
X0227269Y0021750D01*
X0227358Y0021881D01*
X0227449Y0022009D01*
X0227544Y0022136D01*
X0227641Y0022259D01*
X0227742Y0022381D01*
X0227846Y0022499D01*
X0227953Y0022615D01*
X0228063Y0022728D01*
X0228175Y0022839D01*
X0228291Y0022946D01*
X0228409Y0023051D01*
X0228529Y0023153D01*
X0228652Y0023251D01*
X0228778Y0023347D01*
X0228906Y0023439D01*
X0229036Y0023528D01*
X0229168Y0023614D01*
X0229303Y0023696D01*
X0229440Y0023775D01*
X0229578Y0023850D01*
X0229718Y0023922D01*
X0229861Y0023990D01*
X0230004Y0024055D01*
X0230150Y0024116D01*
X0230297Y0024173D01*
X0230445Y0024227D01*
X0230595Y0024277D01*
X0230745Y0024323D01*
X0230897Y0024365D01*
X0231050Y0024404D01*
X0231204Y0024438D01*
X0231359Y0024469D01*
X0231514Y0024495D01*
X0231670Y0024518D01*
X0231827Y0024537D01*
X0231984Y0024552D01*
X0232141Y0024563D01*
X0232299Y0024570D01*
X0232457Y0024573D01*
X0232614Y0024572D01*
X0232772Y0024567D01*
X0232929Y0024558D01*
X0233087Y0024545D01*
X0233243Y0024528D01*
X0233400Y0024507D01*
X0233555Y0024483D01*
X0233710Y0024454D01*
X0233865Y0024421D01*
X0234018Y0024385D01*
X0234171Y0024344D01*
X0234322Y0024300D01*
X0234472Y0024252D01*
X0234621Y0024201D01*
X0234769Y0024145D01*
X0234915Y0024086D01*
X0235060Y0024023D01*
X0235203Y0023956D01*
X0235344Y0023886D01*
X0235483Y0023813D01*
X0235621Y0023736D01*
X0235757Y0023655D01*
X0235890Y0023571D01*
X0236021Y0023484D01*
X0236150Y0023393D01*
X0236277Y0023299D01*
X0236402Y0023202D01*
X0236523Y0023102D01*
X0236643Y0022999D01*
X0236759Y0022893D01*
X0236873Y0022784D01*
X0236985Y0022672D01*
X0237093Y0022558D01*
X0237198Y0022440D01*
X0237301Y0022320D01*
X0237400Y0022198D01*
X0237496Y0022073D01*
X0237589Y0021945D01*
X0237679Y0021816D01*
X0237765Y0021684D01*
X0237849Y0021550D01*
X0237928Y0021414D01*
X0238005Y0021276D01*
X0238077Y0021136D01*
X0238146Y0020994D01*
X0238212Y0020851D01*
X0238274Y0020706D01*
X0238332Y0020559D01*
X0238387Y0020411D01*
X0238438Y0020262D01*
X0238485Y0020111D01*
X0238528Y0019960D01*
X0238567Y0019807D01*
X0238603Y0019653D01*
X0238634Y0019499D01*
X0238662Y0019344D01*
X0238686Y0019188D01*
X0238706Y0019031D01*
X0238722Y0018874D01*
X0238734Y0018717D01*
X0238742Y0018560D01*
X0238746Y0018402D01*
X0238746Y0018244D01*
X0238742Y0018086D01*
X0238734Y0017929D01*
X0238722Y0017772D01*
X0238706Y0017615D01*
X0238686Y0017458D01*
X0238662Y0017302D01*
X0238634Y0017147D01*
X0238603Y0016993D01*
X0238567Y0016839D01*
X0238528Y0016686D01*
X0238485Y0016535D01*
X0238438Y0016384D01*
X0238387Y0016235D01*
X0238332Y0016087D01*
X0238274Y0015940D01*
X0238212Y0015795D01*
X0238146Y0015652D01*
X0238077Y0015510D01*
X0238005Y0015370D01*
X0237928Y0015232D01*
X0237849Y0015096D01*
X0237765Y0014962D01*
X0237679Y0014830D01*
X0237589Y0014701D01*
X0237496Y0014573D01*
X0237400Y0014448D01*
X0237301Y0014326D01*
X0237198Y0014206D01*
X0237093Y0014088D01*
X0236985Y0013974D01*
X0236873Y0013862D01*
X0236759Y0013753D01*
X0236643Y0013647D01*
X0236523Y0013544D01*
X0236402Y0013444D01*
X0236277Y0013347D01*
X0236150Y0013253D01*
X0236021Y0013162D01*
X0235890Y0013075D01*
X0235757Y0012991D01*
X0235621Y0012910D01*
X0235483Y0012833D01*
X0235344Y0012760D01*
X0235203Y0012690D01*
X0235060Y0012623D01*
X0234915Y0012560D01*
X0234769Y0012501D01*
X0234621Y0012445D01*
X0234472Y0012394D01*
X0234322Y0012346D01*
X0234171Y0012302D01*
X0234018Y0012261D01*
X0233865Y0012225D01*
X0233710Y0012192D01*
X0233555Y0012163D01*
X0233400Y0012139D01*
X0233243Y0012118D01*
X0233087Y0012101D01*
X0232929Y0012088D01*
X0232772Y0012079D01*
X0232614Y0012074D01*
X0232457Y0012073D01*
X0232299Y0012076D01*
X0232141Y0012083D01*
X0231984Y0012094D01*
X0231827Y0012109D01*
X0231670Y0012128D01*
X0231514Y0012151D01*
X0231359Y0012177D01*
X0231204Y0012208D01*
X0231050Y0012242D01*
X0230897Y0012281D01*
X0230745Y0012323D01*
X0230595Y0012369D01*
X0230445Y0012419D01*
X0230297Y0012473D01*
X0230150Y0012530D01*
X0230004Y0012591D01*
X0229861Y0012656D01*
X0229718Y0012724D01*
X0229578Y0012796D01*
X0229440Y0012871D01*
X0229303Y0012950D01*
X0229168Y0013032D01*
X0229036Y0013118D01*
X0228906Y0013207D01*
X0228778Y0013299D01*
X0228652Y0013395D01*
X0228529Y0013493D01*
X0228409Y0013595D01*
X0228291Y0013700D01*
X0228175Y0013807D01*
X0228063Y0013918D01*
X0227953Y0014031D01*
X0227846Y0014147D01*
X0227742Y0014265D01*
X0227641Y0014387D01*
X0227544Y0014510D01*
X0227449Y0014637D01*
X0227358Y0014765D01*
X0227269Y0014896D01*
X0227185Y0015029D01*
X0227103Y0015164D01*
X0227025Y0015301D01*
X0226951Y0015440D01*
X0226880Y0015581D01*
X0226812Y0015723D01*
X0226749Y0015868D01*
X0226688Y0016013D01*
X0226632Y0016161D01*
X0226579Y0016309D01*
X0226530Y0016459D01*
X0226485Y0016610D01*
X0226444Y0016763D01*
X0226406Y0016916D01*
X0226373Y0017070D01*
X0226343Y0017225D01*
X0226317Y0017380D01*
X0226296Y0017537D01*
X0226278Y0017693D01*
X0226264Y0017850D01*
X0226254Y0018008D01*
X0226248Y0018165D01*
X0226246Y0018323D01*
D11*
X0155791Y0049126D02*
X0155791Y0050693D01*
X0155790Y0049126D02*
X0155788Y0049063D01*
X0155782Y0049000D01*
X0155773Y0048938D01*
X0155760Y0048876D01*
X0155743Y0048815D01*
X0155722Y0048756D01*
X0155698Y0048698D01*
X0155670Y0048641D01*
X0155639Y0048586D01*
X0155605Y0048533D01*
X0155568Y0048482D01*
X0155527Y0048434D01*
X0155484Y0048388D01*
X0155438Y0048345D01*
X0155390Y0048304D01*
X0155339Y0048267D01*
X0155286Y0048233D01*
X0155231Y0048202D01*
X0155174Y0048174D01*
X0155116Y0048150D01*
X0155057Y0048129D01*
X0154996Y0048112D01*
X0154934Y0048099D01*
X0154872Y0048090D01*
X0154809Y0048084D01*
X0154746Y0048082D01*
X0154683Y0048084D01*
X0154620Y0048090D01*
X0154558Y0048099D01*
X0154496Y0048112D01*
X0154435Y0048129D01*
X0154376Y0048150D01*
X0154318Y0048174D01*
X0154261Y0048202D01*
X0154206Y0048233D01*
X0154153Y0048267D01*
X0154102Y0048304D01*
X0154054Y0048345D01*
X0154008Y0048388D01*
X0153965Y0048434D01*
X0153924Y0048482D01*
X0153887Y0048533D01*
X0153853Y0048586D01*
X0153822Y0048641D01*
X0153794Y0048698D01*
X0153770Y0048756D01*
X0153749Y0048815D01*
X0153732Y0048876D01*
X0153719Y0048938D01*
X0153710Y0049000D01*
X0153704Y0049063D01*
X0153702Y0049126D01*
X0153702Y0050171D01*
X0153702Y0049387D02*
X0153700Y0049316D01*
X0153694Y0049246D01*
X0153685Y0049176D01*
X0153671Y0049106D01*
X0153654Y0049038D01*
X0153634Y0048970D01*
X0153609Y0048904D01*
X0153581Y0048839D01*
X0153550Y0048775D01*
X0153515Y0048714D01*
X0153477Y0048654D01*
X0153436Y0048597D01*
X0153391Y0048542D01*
X0153344Y0048489D01*
X0153294Y0048439D01*
X0153241Y0048392D01*
X0153186Y0048347D01*
X0153129Y0048306D01*
X0153069Y0048268D01*
X0153008Y0048233D01*
X0152944Y0048202D01*
X0152879Y0048174D01*
X0152813Y0048149D01*
X0152745Y0048129D01*
X0152677Y0048112D01*
X0152607Y0048098D01*
X0152537Y0048089D01*
X0152467Y0048083D01*
X0152396Y0048081D01*
X0152325Y0048083D01*
X0152255Y0048089D01*
X0152185Y0048098D01*
X0152115Y0048112D01*
X0152047Y0048129D01*
X0151979Y0048149D01*
X0151913Y0048174D01*
X0151848Y0048202D01*
X0151784Y0048233D01*
X0151723Y0048268D01*
X0151663Y0048306D01*
X0151606Y0048347D01*
X0151551Y0048392D01*
X0151498Y0048439D01*
X0151448Y0048489D01*
X0151401Y0048542D01*
X0151356Y0048597D01*
X0151315Y0048654D01*
X0151277Y0048714D01*
X0151242Y0048775D01*
X0151211Y0048839D01*
X0151183Y0048904D01*
X0151158Y0048970D01*
X0151138Y0049038D01*
X0151121Y0049106D01*
X0151107Y0049176D01*
X0151098Y0049246D01*
X0151092Y0049316D01*
X0151090Y0049387D01*
X0151091Y0049387D02*
X0151091Y0050693D01*
X0151091Y0052556D02*
X0153180Y0053601D01*
X0153180Y0053862D02*
X0153180Y0055168D01*
X0153179Y0053862D02*
X0153181Y0053791D01*
X0153187Y0053721D01*
X0153196Y0053651D01*
X0153210Y0053581D01*
X0153227Y0053513D01*
X0153247Y0053445D01*
X0153272Y0053379D01*
X0153300Y0053314D01*
X0153331Y0053250D01*
X0153366Y0053189D01*
X0153404Y0053129D01*
X0153445Y0053072D01*
X0153490Y0053017D01*
X0153537Y0052964D01*
X0153587Y0052914D01*
X0153640Y0052867D01*
X0153695Y0052822D01*
X0153752Y0052781D01*
X0153812Y0052743D01*
X0153873Y0052708D01*
X0153937Y0052677D01*
X0154002Y0052649D01*
X0154068Y0052624D01*
X0154136Y0052604D01*
X0154204Y0052587D01*
X0154274Y0052573D01*
X0154344Y0052564D01*
X0154414Y0052558D01*
X0154485Y0052556D01*
X0154556Y0052558D01*
X0154626Y0052564D01*
X0154696Y0052573D01*
X0154766Y0052587D01*
X0154834Y0052604D01*
X0154902Y0052624D01*
X0154968Y0052649D01*
X0155033Y0052677D01*
X0155097Y0052708D01*
X0155158Y0052743D01*
X0155218Y0052781D01*
X0155275Y0052822D01*
X0155330Y0052867D01*
X0155383Y0052914D01*
X0155433Y0052964D01*
X0155480Y0053017D01*
X0155525Y0053072D01*
X0155566Y0053129D01*
X0155604Y0053189D01*
X0155639Y0053250D01*
X0155670Y0053314D01*
X0155698Y0053379D01*
X0155723Y0053445D01*
X0155743Y0053513D01*
X0155760Y0053581D01*
X0155774Y0053651D01*
X0155783Y0053721D01*
X0155789Y0053791D01*
X0155791Y0053862D01*
X0155791Y0055168D01*
X0151091Y0055168D01*
X0151091Y0057015D02*
X0151091Y0058060D01*
X0151093Y0058123D01*
X0151099Y0058186D01*
X0151108Y0058248D01*
X0151121Y0058310D01*
X0151138Y0058371D01*
X0151159Y0058430D01*
X0151183Y0058488D01*
X0151211Y0058545D01*
X0151242Y0058600D01*
X0151276Y0058653D01*
X0151313Y0058704D01*
X0151354Y0058752D01*
X0151397Y0058798D01*
X0151443Y0058841D01*
X0151491Y0058882D01*
X0151542Y0058919D01*
X0151595Y0058953D01*
X0151650Y0058984D01*
X0151707Y0059012D01*
X0151765Y0059036D01*
X0151824Y0059057D01*
X0151885Y0059074D01*
X0151947Y0059087D01*
X0152009Y0059096D01*
X0152072Y0059102D01*
X0152135Y0059104D01*
X0154746Y0059104D01*
X0154809Y0059102D01*
X0154872Y0059096D01*
X0154934Y0059087D01*
X0154996Y0059074D01*
X0155057Y0059057D01*
X0155116Y0059036D01*
X0155174Y0059012D01*
X0155231Y0058984D01*
X0155286Y0058953D01*
X0155339Y0058919D01*
X0155390Y0058882D01*
X0155438Y0058841D01*
X0155484Y0058798D01*
X0155527Y0058752D01*
X0155568Y0058704D01*
X0155605Y0058653D01*
X0155639Y0058600D01*
X0155670Y0058545D01*
X0155698Y0058488D01*
X0155722Y0058430D01*
X0155743Y0058371D01*
X0155760Y0058310D01*
X0155773Y0058248D01*
X0155782Y0058186D01*
X0155788Y0058123D01*
X0155790Y0058060D01*
X0155791Y0058060D02*
X0155791Y0057015D01*
X0152430Y0127531D02*
X0152430Y0130142D01*
X0155041Y0127922D01*
X0157130Y0128706D02*
X0157128Y0128782D01*
X0157122Y0128858D01*
X0157113Y0128933D01*
X0157100Y0129008D01*
X0157082Y0129082D01*
X0157062Y0129155D01*
X0157037Y0129227D01*
X0157009Y0129297D01*
X0156978Y0129367D01*
X0156943Y0129434D01*
X0156905Y0129500D01*
X0156863Y0129563D01*
X0156818Y0129625D01*
X0156771Y0129684D01*
X0156720Y0129740D01*
X0156667Y0129794D01*
X0156611Y0129846D01*
X0156552Y0129894D01*
X0156491Y0129939D01*
X0156428Y0129982D01*
X0156363Y0130021D01*
X0156296Y0130056D01*
X0156227Y0130089D01*
X0156157Y0130117D01*
X0156085Y0130143D01*
X0155041Y0127923D02*
X0155089Y0127875D01*
X0155140Y0127829D01*
X0155193Y0127787D01*
X0155249Y0127747D01*
X0155306Y0127710D01*
X0155366Y0127677D01*
X0155427Y0127647D01*
X0155489Y0127620D01*
X0155553Y0127597D01*
X0155618Y0127577D01*
X0155685Y0127560D01*
X0155752Y0127548D01*
X0155819Y0127538D01*
X0155887Y0127533D01*
X0155955Y0127531D01*
X0156021Y0127533D01*
X0156087Y0127538D01*
X0156152Y0127548D01*
X0156216Y0127560D01*
X0156280Y0127577D01*
X0156343Y0127597D01*
X0156405Y0127620D01*
X0156465Y0127647D01*
X0156523Y0127678D01*
X0156580Y0127711D01*
X0156635Y0127748D01*
X0156688Y0127787D01*
X0156738Y0127830D01*
X0156786Y0127875D01*
X0156831Y0127923D01*
X0156874Y0127973D01*
X0156913Y0128026D01*
X0156950Y0128081D01*
X0156983Y0128138D01*
X0157014Y0128196D01*
X0157041Y0128256D01*
X0157064Y0128318D01*
X0157084Y0128381D01*
X0157101Y0128445D01*
X0157113Y0128509D01*
X0157123Y0128574D01*
X0157128Y0128640D01*
X0157130Y0128706D01*
X0157130Y0133311D02*
X0157130Y0134616D01*
X0152430Y0134616D01*
X0152430Y0136464D02*
X0152430Y0137509D01*
X0152432Y0137572D01*
X0152438Y0137635D01*
X0152447Y0137697D01*
X0152460Y0137759D01*
X0152477Y0137820D01*
X0152498Y0137879D01*
X0152522Y0137937D01*
X0152550Y0137994D01*
X0152581Y0138049D01*
X0152615Y0138102D01*
X0152652Y0138153D01*
X0152693Y0138201D01*
X0152736Y0138247D01*
X0152782Y0138290D01*
X0152830Y0138331D01*
X0152881Y0138368D01*
X0152934Y0138402D01*
X0152989Y0138433D01*
X0153046Y0138461D01*
X0153104Y0138485D01*
X0153163Y0138506D01*
X0153224Y0138523D01*
X0153286Y0138536D01*
X0153348Y0138545D01*
X0153411Y0138551D01*
X0153474Y0138553D01*
X0156085Y0138553D01*
X0156148Y0138551D01*
X0156211Y0138545D01*
X0156273Y0138536D01*
X0156335Y0138523D01*
X0156396Y0138506D01*
X0156455Y0138485D01*
X0156513Y0138461D01*
X0156570Y0138433D01*
X0156625Y0138402D01*
X0156678Y0138368D01*
X0156729Y0138331D01*
X0156777Y0138290D01*
X0156823Y0138247D01*
X0156866Y0138201D01*
X0156907Y0138153D01*
X0156944Y0138102D01*
X0156978Y0138049D01*
X0157009Y0137994D01*
X0157037Y0137937D01*
X0157061Y0137879D01*
X0157082Y0137820D01*
X0157099Y0137759D01*
X0157112Y0137697D01*
X0157121Y0137635D01*
X0157127Y0137572D01*
X0157129Y0137509D01*
X0157130Y0137509D02*
X0157130Y0136464D01*
X0154518Y0134616D02*
X0154518Y0133311D01*
X0154518Y0133050D02*
X0152430Y0132005D01*
X0154518Y0133311D02*
X0154520Y0133240D01*
X0154526Y0133170D01*
X0154535Y0133100D01*
X0154549Y0133030D01*
X0154566Y0132962D01*
X0154586Y0132894D01*
X0154611Y0132828D01*
X0154639Y0132763D01*
X0154670Y0132699D01*
X0154705Y0132638D01*
X0154743Y0132578D01*
X0154784Y0132521D01*
X0154829Y0132466D01*
X0154876Y0132413D01*
X0154926Y0132363D01*
X0154979Y0132316D01*
X0155034Y0132271D01*
X0155091Y0132230D01*
X0155151Y0132192D01*
X0155212Y0132157D01*
X0155276Y0132126D01*
X0155341Y0132098D01*
X0155407Y0132073D01*
X0155475Y0132053D01*
X0155543Y0132036D01*
X0155613Y0132022D01*
X0155683Y0132013D01*
X0155753Y0132007D01*
X0155824Y0132005D01*
X0155895Y0132007D01*
X0155965Y0132013D01*
X0156035Y0132022D01*
X0156105Y0132036D01*
X0156173Y0132053D01*
X0156241Y0132073D01*
X0156307Y0132098D01*
X0156372Y0132126D01*
X0156436Y0132157D01*
X0156497Y0132192D01*
X0156557Y0132230D01*
X0156614Y0132271D01*
X0156669Y0132316D01*
X0156722Y0132363D01*
X0156772Y0132413D01*
X0156819Y0132466D01*
X0156864Y0132521D01*
X0156905Y0132578D01*
X0156943Y0132638D01*
X0156978Y0132699D01*
X0157009Y0132763D01*
X0157037Y0132828D01*
X0157062Y0132894D01*
X0157082Y0132962D01*
X0157099Y0133030D01*
X0157113Y0133100D01*
X0157122Y0133170D01*
X0157128Y0133240D01*
X0157130Y0133311D01*
X0153217Y0197846D02*
X0153217Y0200457D01*
X0153217Y0199151D02*
X0157917Y0199151D01*
X0156872Y0200457D01*
X0157917Y0203626D02*
X0157915Y0203555D01*
X0157909Y0203485D01*
X0157900Y0203415D01*
X0157886Y0203345D01*
X0157869Y0203277D01*
X0157849Y0203209D01*
X0157824Y0203143D01*
X0157796Y0203078D01*
X0157765Y0203014D01*
X0157730Y0202953D01*
X0157692Y0202893D01*
X0157651Y0202836D01*
X0157606Y0202781D01*
X0157559Y0202728D01*
X0157509Y0202678D01*
X0157456Y0202631D01*
X0157401Y0202586D01*
X0157344Y0202545D01*
X0157284Y0202507D01*
X0157223Y0202472D01*
X0157159Y0202441D01*
X0157094Y0202413D01*
X0157028Y0202388D01*
X0156960Y0202368D01*
X0156892Y0202351D01*
X0156822Y0202337D01*
X0156752Y0202328D01*
X0156682Y0202322D01*
X0156611Y0202320D01*
X0156540Y0202322D01*
X0156470Y0202328D01*
X0156400Y0202337D01*
X0156330Y0202351D01*
X0156262Y0202368D01*
X0156194Y0202388D01*
X0156128Y0202413D01*
X0156063Y0202441D01*
X0155999Y0202472D01*
X0155938Y0202507D01*
X0155878Y0202545D01*
X0155821Y0202586D01*
X0155766Y0202631D01*
X0155713Y0202678D01*
X0155663Y0202728D01*
X0155616Y0202781D01*
X0155571Y0202836D01*
X0155530Y0202893D01*
X0155492Y0202953D01*
X0155457Y0203014D01*
X0155426Y0203078D01*
X0155398Y0203143D01*
X0155373Y0203209D01*
X0155353Y0203277D01*
X0155336Y0203345D01*
X0155322Y0203415D01*
X0155313Y0203485D01*
X0155307Y0203555D01*
X0155305Y0203626D01*
X0155306Y0203626D02*
X0155306Y0204931D01*
X0155306Y0203365D02*
X0153217Y0202320D01*
X0153217Y0204931D02*
X0157917Y0204931D01*
X0157917Y0203626D01*
X0157917Y0206779D02*
X0157917Y0207824D01*
X0157916Y0207824D02*
X0157914Y0207887D01*
X0157908Y0207950D01*
X0157899Y0208012D01*
X0157886Y0208074D01*
X0157869Y0208135D01*
X0157848Y0208194D01*
X0157824Y0208252D01*
X0157796Y0208309D01*
X0157765Y0208364D01*
X0157731Y0208417D01*
X0157694Y0208468D01*
X0157653Y0208516D01*
X0157610Y0208562D01*
X0157564Y0208605D01*
X0157516Y0208646D01*
X0157465Y0208683D01*
X0157412Y0208717D01*
X0157357Y0208748D01*
X0157300Y0208776D01*
X0157242Y0208800D01*
X0157183Y0208821D01*
X0157122Y0208838D01*
X0157060Y0208851D01*
X0156998Y0208860D01*
X0156935Y0208866D01*
X0156872Y0208868D01*
X0154261Y0208868D01*
X0154198Y0208866D01*
X0154135Y0208860D01*
X0154073Y0208851D01*
X0154011Y0208838D01*
X0153950Y0208821D01*
X0153891Y0208800D01*
X0153833Y0208776D01*
X0153776Y0208748D01*
X0153721Y0208717D01*
X0153668Y0208683D01*
X0153617Y0208646D01*
X0153569Y0208605D01*
X0153523Y0208562D01*
X0153480Y0208516D01*
X0153439Y0208468D01*
X0153402Y0208417D01*
X0153368Y0208364D01*
X0153337Y0208309D01*
X0153309Y0208252D01*
X0153285Y0208194D01*
X0153264Y0208135D01*
X0153247Y0208074D01*
X0153234Y0208012D01*
X0153225Y0207950D01*
X0153219Y0207887D01*
X0153217Y0207824D01*
X0153217Y0206779D01*
X0072173Y0205220D02*
X0072173Y0203165D01*
X0072173Y0204192D02*
X0068473Y0204192D01*
X0069295Y0203165D01*
X0068473Y0201799D02*
X0068473Y0200977D01*
X0068475Y0200921D01*
X0068481Y0200865D01*
X0068490Y0200810D01*
X0068503Y0200755D01*
X0068520Y0200702D01*
X0068541Y0200649D01*
X0068565Y0200599D01*
X0068593Y0200550D01*
X0068623Y0200503D01*
X0068657Y0200458D01*
X0068694Y0200416D01*
X0068734Y0200376D01*
X0068776Y0200339D01*
X0068821Y0200305D01*
X0068868Y0200275D01*
X0068917Y0200247D01*
X0068968Y0200223D01*
X0069020Y0200202D01*
X0069073Y0200185D01*
X0069128Y0200172D01*
X0069183Y0200163D01*
X0069239Y0200157D01*
X0069295Y0200155D01*
X0069295Y0200154D02*
X0071351Y0200154D01*
X0071351Y0200155D02*
X0071407Y0200157D01*
X0071463Y0200163D01*
X0071518Y0200172D01*
X0071573Y0200185D01*
X0071626Y0200202D01*
X0071678Y0200223D01*
X0071729Y0200247D01*
X0071778Y0200275D01*
X0071825Y0200305D01*
X0071870Y0200339D01*
X0071912Y0200376D01*
X0071952Y0200416D01*
X0071989Y0200458D01*
X0072023Y0200503D01*
X0072053Y0200550D01*
X0072081Y0200599D01*
X0072105Y0200650D01*
X0072126Y0200702D01*
X0072143Y0200755D01*
X0072156Y0200810D01*
X0072165Y0200865D01*
X0072171Y0200921D01*
X0072173Y0200977D01*
X0072173Y0201799D01*
X0058527Y0128775D02*
X0058527Y0126719D01*
X0056472Y0128466D01*
X0054828Y0127850D02*
X0054830Y0127782D01*
X0054836Y0127714D01*
X0054845Y0127647D01*
X0054859Y0127581D01*
X0054876Y0127515D01*
X0054897Y0127450D01*
X0054922Y0127387D01*
X0054950Y0127325D01*
X0054982Y0127265D01*
X0055017Y0127207D01*
X0055055Y0127151D01*
X0055097Y0127097D01*
X0055141Y0127046D01*
X0055189Y0126998D01*
X0055239Y0126952D01*
X0055291Y0126909D01*
X0055346Y0126869D01*
X0055403Y0126832D01*
X0055462Y0126799D01*
X0055523Y0126769D01*
X0055586Y0126743D01*
X0055650Y0126720D01*
X0056472Y0128467D02*
X0056428Y0128510D01*
X0056381Y0128551D01*
X0056332Y0128588D01*
X0056281Y0128623D01*
X0056227Y0128654D01*
X0056172Y0128682D01*
X0056115Y0128706D01*
X0056057Y0128727D01*
X0055997Y0128744D01*
X0055937Y0128758D01*
X0055876Y0128767D01*
X0055814Y0128773D01*
X0055752Y0128775D01*
X0055694Y0128773D01*
X0055636Y0128768D01*
X0055579Y0128759D01*
X0055522Y0128746D01*
X0055466Y0128730D01*
X0055411Y0128710D01*
X0055358Y0128687D01*
X0055306Y0128661D01*
X0055256Y0128631D01*
X0055208Y0128598D01*
X0055162Y0128563D01*
X0055119Y0128524D01*
X0055078Y0128483D01*
X0055039Y0128440D01*
X0055004Y0128394D01*
X0054971Y0128346D01*
X0054941Y0128296D01*
X0054915Y0128244D01*
X0054892Y0128191D01*
X0054872Y0128136D01*
X0054856Y0128080D01*
X0054843Y0128023D01*
X0054834Y0127966D01*
X0054829Y0127908D01*
X0054827Y0127850D01*
X0054827Y0125353D02*
X0054827Y0124531D01*
X0054829Y0124475D01*
X0054835Y0124419D01*
X0054844Y0124364D01*
X0054857Y0124309D01*
X0054874Y0124256D01*
X0054895Y0124203D01*
X0054919Y0124153D01*
X0054947Y0124104D01*
X0054977Y0124057D01*
X0055011Y0124012D01*
X0055048Y0123970D01*
X0055088Y0123930D01*
X0055130Y0123893D01*
X0055175Y0123859D01*
X0055222Y0123829D01*
X0055271Y0123801D01*
X0055322Y0123777D01*
X0055374Y0123756D01*
X0055427Y0123739D01*
X0055482Y0123726D01*
X0055537Y0123717D01*
X0055593Y0123711D01*
X0055649Y0123709D01*
X0057705Y0123709D01*
X0057761Y0123711D01*
X0057817Y0123717D01*
X0057872Y0123726D01*
X0057927Y0123739D01*
X0057980Y0123756D01*
X0058032Y0123777D01*
X0058083Y0123801D01*
X0058132Y0123829D01*
X0058179Y0123859D01*
X0058224Y0123893D01*
X0058266Y0123930D01*
X0058306Y0123970D01*
X0058343Y0124012D01*
X0058377Y0124057D01*
X0058407Y0124104D01*
X0058435Y0124153D01*
X0058459Y0124204D01*
X0058480Y0124256D01*
X0058497Y0124309D01*
X0058510Y0124364D01*
X0058519Y0124419D01*
X0058525Y0124475D01*
X0058527Y0124531D01*
X0058527Y0125353D01*
X0067449Y0052666D02*
X0067449Y0051432D01*
X0067449Y0050067D02*
X0067449Y0049244D01*
X0067451Y0049188D01*
X0067457Y0049132D01*
X0067466Y0049077D01*
X0067479Y0049022D01*
X0067496Y0048969D01*
X0067517Y0048916D01*
X0067541Y0048866D01*
X0067569Y0048817D01*
X0067599Y0048770D01*
X0067633Y0048725D01*
X0067670Y0048683D01*
X0067710Y0048643D01*
X0067752Y0048606D01*
X0067797Y0048572D01*
X0067844Y0048542D01*
X0067893Y0048514D01*
X0067944Y0048490D01*
X0067996Y0048469D01*
X0068049Y0048452D01*
X0068104Y0048439D01*
X0068159Y0048430D01*
X0068215Y0048424D01*
X0068271Y0048422D01*
X0070327Y0048422D01*
X0070383Y0048424D01*
X0070439Y0048430D01*
X0070494Y0048439D01*
X0070549Y0048452D01*
X0070602Y0048469D01*
X0070654Y0048490D01*
X0070705Y0048514D01*
X0070754Y0048542D01*
X0070801Y0048572D01*
X0070846Y0048606D01*
X0070888Y0048643D01*
X0070928Y0048683D01*
X0070965Y0048725D01*
X0070999Y0048770D01*
X0071029Y0048817D01*
X0071057Y0048866D01*
X0071081Y0048917D01*
X0071102Y0048969D01*
X0071119Y0049022D01*
X0071132Y0049077D01*
X0071141Y0049132D01*
X0071147Y0049188D01*
X0071149Y0049244D01*
X0071149Y0050067D01*
X0071149Y0051432D02*
X0071149Y0052460D01*
X0071147Y0052523D01*
X0071141Y0052586D01*
X0071131Y0052649D01*
X0071118Y0052711D01*
X0071101Y0052772D01*
X0071080Y0052831D01*
X0071055Y0052890D01*
X0071027Y0052946D01*
X0070995Y0053001D01*
X0070960Y0053054D01*
X0070922Y0053104D01*
X0070881Y0053153D01*
X0070837Y0053198D01*
X0070790Y0053241D01*
X0070741Y0053280D01*
X0070689Y0053317D01*
X0070635Y0053350D01*
X0070579Y0053380D01*
X0070522Y0053407D01*
X0070463Y0053430D01*
X0070402Y0053449D01*
X0070341Y0053464D01*
X0070279Y0053476D01*
X0070216Y0053484D01*
X0070153Y0053488D01*
X0070089Y0053488D01*
X0070026Y0053484D01*
X0069963Y0053476D01*
X0069901Y0053464D01*
X0069840Y0053449D01*
X0069779Y0053430D01*
X0069720Y0053407D01*
X0069663Y0053380D01*
X0069607Y0053350D01*
X0069553Y0053317D01*
X0069501Y0053280D01*
X0069452Y0053241D01*
X0069405Y0053198D01*
X0069361Y0053153D01*
X0069320Y0053104D01*
X0069282Y0053054D01*
X0069247Y0053001D01*
X0069215Y0052946D01*
X0069187Y0052890D01*
X0069162Y0052831D01*
X0069141Y0052772D01*
X0069124Y0052711D01*
X0069111Y0052649D01*
X0069101Y0052586D01*
X0069095Y0052523D01*
X0069093Y0052460D01*
X0069094Y0052666D02*
X0069094Y0051843D01*
X0069093Y0052666D02*
X0069091Y0052722D01*
X0069085Y0052778D01*
X0069076Y0052833D01*
X0069063Y0052888D01*
X0069046Y0052941D01*
X0069025Y0052993D01*
X0069001Y0053044D01*
X0068973Y0053093D01*
X0068943Y0053140D01*
X0068909Y0053185D01*
X0068872Y0053227D01*
X0068832Y0053267D01*
X0068790Y0053304D01*
X0068745Y0053338D01*
X0068698Y0053368D01*
X0068649Y0053396D01*
X0068598Y0053420D01*
X0068546Y0053441D01*
X0068493Y0053458D01*
X0068438Y0053471D01*
X0068383Y0053480D01*
X0068327Y0053486D01*
X0068271Y0053488D01*
X0068215Y0053486D01*
X0068159Y0053480D01*
X0068104Y0053471D01*
X0068049Y0053458D01*
X0067996Y0053441D01*
X0067944Y0053420D01*
X0067893Y0053396D01*
X0067844Y0053368D01*
X0067797Y0053338D01*
X0067752Y0053304D01*
X0067710Y0053267D01*
X0067670Y0053227D01*
X0067633Y0053185D01*
X0067599Y0053140D01*
X0067569Y0053093D01*
X0067541Y0053044D01*
X0067517Y0052993D01*
X0067496Y0052941D01*
X0067479Y0052888D01*
X0067466Y0052833D01*
X0067457Y0052778D01*
X0067451Y0052722D01*
X0067449Y0052666D01*
D12*
X0081402Y0047587D02*
X0081402Y0058587D01*
X0081404Y0058685D01*
X0081410Y0058783D01*
X0081419Y0058881D01*
X0081433Y0058978D01*
X0081450Y0059075D01*
X0081471Y0059171D01*
X0081496Y0059266D01*
X0081524Y0059360D01*
X0081557Y0059452D01*
X0081592Y0059544D01*
X0081632Y0059634D01*
X0081674Y0059722D01*
X0081721Y0059809D01*
X0081770Y0059893D01*
X0081823Y0059976D01*
X0081879Y0060056D01*
X0081939Y0060135D01*
X0082001Y0060211D01*
X0082066Y0060284D01*
X0082134Y0060355D01*
X0082205Y0060423D01*
X0082278Y0060488D01*
X0082354Y0060550D01*
X0082433Y0060610D01*
X0082513Y0060666D01*
X0082596Y0060719D01*
X0082680Y0060768D01*
X0082767Y0060815D01*
X0082855Y0060857D01*
X0082945Y0060897D01*
X0083037Y0060932D01*
X0083129Y0060965D01*
X0083223Y0060993D01*
X0083318Y0061018D01*
X0083414Y0061039D01*
X0083511Y0061056D01*
X0083608Y0061070D01*
X0083706Y0061079D01*
X0083804Y0061085D01*
X0083902Y0061087D01*
X0112902Y0061087D01*
X0113000Y0061085D01*
X0113098Y0061079D01*
X0113196Y0061070D01*
X0113293Y0061056D01*
X0113390Y0061039D01*
X0113486Y0061018D01*
X0113581Y0060993D01*
X0113675Y0060965D01*
X0113767Y0060932D01*
X0113859Y0060897D01*
X0113949Y0060857D01*
X0114037Y0060815D01*
X0114124Y0060768D01*
X0114208Y0060719D01*
X0114291Y0060666D01*
X0114371Y0060610D01*
X0114450Y0060550D01*
X0114526Y0060488D01*
X0114599Y0060423D01*
X0114670Y0060355D01*
X0114738Y0060284D01*
X0114803Y0060211D01*
X0114865Y0060135D01*
X0114925Y0060056D01*
X0114981Y0059976D01*
X0115034Y0059893D01*
X0115083Y0059809D01*
X0115130Y0059722D01*
X0115172Y0059634D01*
X0115212Y0059544D01*
X0115247Y0059452D01*
X0115280Y0059360D01*
X0115308Y0059266D01*
X0115333Y0059171D01*
X0115354Y0059075D01*
X0115371Y0058978D01*
X0115385Y0058881D01*
X0115394Y0058783D01*
X0115400Y0058685D01*
X0115402Y0058587D01*
X0115402Y0047587D01*
X0115400Y0047489D01*
X0115394Y0047391D01*
X0115385Y0047293D01*
X0115371Y0047196D01*
X0115354Y0047099D01*
X0115333Y0047003D01*
X0115308Y0046908D01*
X0115280Y0046814D01*
X0115247Y0046722D01*
X0115212Y0046630D01*
X0115172Y0046540D01*
X0115130Y0046452D01*
X0115083Y0046365D01*
X0115034Y0046281D01*
X0114981Y0046198D01*
X0114925Y0046118D01*
X0114865Y0046039D01*
X0114803Y0045963D01*
X0114738Y0045890D01*
X0114670Y0045819D01*
X0114599Y0045751D01*
X0114526Y0045686D01*
X0114450Y0045624D01*
X0114371Y0045564D01*
X0114291Y0045508D01*
X0114208Y0045455D01*
X0114124Y0045406D01*
X0114037Y0045359D01*
X0113949Y0045317D01*
X0113859Y0045277D01*
X0113767Y0045242D01*
X0113675Y0045209D01*
X0113581Y0045181D01*
X0113486Y0045156D01*
X0113390Y0045135D01*
X0113293Y0045118D01*
X0113196Y0045104D01*
X0113098Y0045095D01*
X0113000Y0045089D01*
X0112902Y0045087D01*
X0083902Y0045087D01*
X0083804Y0045089D01*
X0083706Y0045095D01*
X0083608Y0045104D01*
X0083511Y0045118D01*
X0083414Y0045135D01*
X0083318Y0045156D01*
X0083223Y0045181D01*
X0083129Y0045209D01*
X0083037Y0045242D01*
X0082945Y0045277D01*
X0082855Y0045317D01*
X0082767Y0045359D01*
X0082680Y0045406D01*
X0082596Y0045455D01*
X0082513Y0045508D01*
X0082433Y0045564D01*
X0082354Y0045624D01*
X0082278Y0045686D01*
X0082205Y0045751D01*
X0082134Y0045819D01*
X0082066Y0045890D01*
X0082001Y0045963D01*
X0081939Y0046039D01*
X0081879Y0046118D01*
X0081823Y0046198D01*
X0081770Y0046281D01*
X0081721Y0046365D01*
X0081674Y0046452D01*
X0081632Y0046540D01*
X0081592Y0046630D01*
X0081557Y0046722D01*
X0081524Y0046814D01*
X0081496Y0046908D01*
X0081471Y0047003D01*
X0081450Y0047099D01*
X0081433Y0047196D01*
X0081419Y0047293D01*
X0081410Y0047391D01*
X0081404Y0047489D01*
X0081402Y0047587D01*
X0048035Y0062583D02*
X0048035Y0066583D01*
X0044535Y0070083D01*
X0040535Y0070083D01*
X0037035Y0066583D01*
X0037035Y0062583D01*
X0040535Y0059083D01*
X0044535Y0059083D01*
X0048035Y0062583D01*
X0043748Y0036618D02*
X0039748Y0036618D01*
X0036248Y0033118D01*
X0036248Y0029118D01*
X0039748Y0025618D01*
X0043748Y0025618D01*
X0047248Y0029118D01*
X0047248Y0033118D01*
X0043748Y0036618D01*
X0044339Y0095894D02*
X0040339Y0095894D01*
X0036839Y0099394D01*
X0036839Y0103394D01*
X0040339Y0106894D01*
X0044339Y0106894D01*
X0047839Y0103394D01*
X0047839Y0099394D01*
X0044339Y0095894D01*
X0043528Y0127626D02*
X0039528Y0127626D01*
X0036028Y0131126D01*
X0036028Y0135126D01*
X0039528Y0138626D01*
X0043528Y0138626D01*
X0047028Y0135126D01*
X0047028Y0131126D01*
X0043528Y0127626D01*
X0079472Y0126996D02*
X0079472Y0137996D01*
X0079474Y0138094D01*
X0079480Y0138192D01*
X0079489Y0138290D01*
X0079503Y0138387D01*
X0079520Y0138484D01*
X0079541Y0138580D01*
X0079566Y0138675D01*
X0079594Y0138769D01*
X0079627Y0138861D01*
X0079662Y0138953D01*
X0079702Y0139043D01*
X0079744Y0139131D01*
X0079791Y0139218D01*
X0079840Y0139302D01*
X0079893Y0139385D01*
X0079949Y0139465D01*
X0080009Y0139544D01*
X0080071Y0139620D01*
X0080136Y0139693D01*
X0080204Y0139764D01*
X0080275Y0139832D01*
X0080348Y0139897D01*
X0080424Y0139959D01*
X0080503Y0140019D01*
X0080583Y0140075D01*
X0080666Y0140128D01*
X0080750Y0140177D01*
X0080837Y0140224D01*
X0080925Y0140266D01*
X0081015Y0140306D01*
X0081107Y0140341D01*
X0081199Y0140374D01*
X0081293Y0140402D01*
X0081388Y0140427D01*
X0081484Y0140448D01*
X0081581Y0140465D01*
X0081678Y0140479D01*
X0081776Y0140488D01*
X0081874Y0140494D01*
X0081972Y0140496D01*
X0110972Y0140496D01*
X0111070Y0140494D01*
X0111168Y0140488D01*
X0111266Y0140479D01*
X0111363Y0140465D01*
X0111460Y0140448D01*
X0111556Y0140427D01*
X0111651Y0140402D01*
X0111745Y0140374D01*
X0111837Y0140341D01*
X0111929Y0140306D01*
X0112019Y0140266D01*
X0112107Y0140224D01*
X0112194Y0140177D01*
X0112278Y0140128D01*
X0112361Y0140075D01*
X0112441Y0140019D01*
X0112520Y0139959D01*
X0112596Y0139897D01*
X0112669Y0139832D01*
X0112740Y0139764D01*
X0112808Y0139693D01*
X0112873Y0139620D01*
X0112935Y0139544D01*
X0112995Y0139465D01*
X0113051Y0139385D01*
X0113104Y0139302D01*
X0113153Y0139218D01*
X0113200Y0139131D01*
X0113242Y0139043D01*
X0113282Y0138953D01*
X0113317Y0138861D01*
X0113350Y0138769D01*
X0113378Y0138675D01*
X0113403Y0138580D01*
X0113424Y0138484D01*
X0113441Y0138387D01*
X0113455Y0138290D01*
X0113464Y0138192D01*
X0113470Y0138094D01*
X0113472Y0137996D01*
X0113472Y0126996D01*
X0113470Y0126898D01*
X0113464Y0126800D01*
X0113455Y0126702D01*
X0113441Y0126605D01*
X0113424Y0126508D01*
X0113403Y0126412D01*
X0113378Y0126317D01*
X0113350Y0126223D01*
X0113317Y0126131D01*
X0113282Y0126039D01*
X0113242Y0125949D01*
X0113200Y0125861D01*
X0113153Y0125774D01*
X0113104Y0125690D01*
X0113051Y0125607D01*
X0112995Y0125527D01*
X0112935Y0125448D01*
X0112873Y0125372D01*
X0112808Y0125299D01*
X0112740Y0125228D01*
X0112669Y0125160D01*
X0112596Y0125095D01*
X0112520Y0125033D01*
X0112441Y0124973D01*
X0112361Y0124917D01*
X0112278Y0124864D01*
X0112194Y0124815D01*
X0112107Y0124768D01*
X0112019Y0124726D01*
X0111929Y0124686D01*
X0111837Y0124651D01*
X0111745Y0124618D01*
X0111651Y0124590D01*
X0111556Y0124565D01*
X0111460Y0124544D01*
X0111363Y0124527D01*
X0111266Y0124513D01*
X0111168Y0124504D01*
X0111070Y0124498D01*
X0110972Y0124496D01*
X0081972Y0124496D01*
X0081874Y0124498D01*
X0081776Y0124504D01*
X0081678Y0124513D01*
X0081581Y0124527D01*
X0081484Y0124544D01*
X0081388Y0124565D01*
X0081293Y0124590D01*
X0081199Y0124618D01*
X0081107Y0124651D01*
X0081015Y0124686D01*
X0080925Y0124726D01*
X0080837Y0124768D01*
X0080750Y0124815D01*
X0080666Y0124864D01*
X0080583Y0124917D01*
X0080503Y0124973D01*
X0080424Y0125033D01*
X0080348Y0125095D01*
X0080275Y0125160D01*
X0080204Y0125228D01*
X0080136Y0125299D01*
X0080071Y0125372D01*
X0080009Y0125448D01*
X0079949Y0125527D01*
X0079893Y0125607D01*
X0079840Y0125690D01*
X0079791Y0125774D01*
X0079744Y0125861D01*
X0079702Y0125949D01*
X0079662Y0126039D01*
X0079627Y0126131D01*
X0079594Y0126223D01*
X0079566Y0126317D01*
X0079541Y0126412D01*
X0079520Y0126508D01*
X0079503Y0126605D01*
X0079489Y0126702D01*
X0079480Y0126800D01*
X0079474Y0126898D01*
X0079472Y0126996D01*
X0043134Y0161051D02*
X0039134Y0161051D01*
X0035634Y0164551D01*
X0035634Y0168551D01*
X0039134Y0172051D01*
X0043134Y0172051D01*
X0046634Y0168551D01*
X0046634Y0164551D01*
X0043134Y0161051D01*
X0080398Y0196740D02*
X0109398Y0196740D01*
X0109496Y0196742D01*
X0109594Y0196748D01*
X0109692Y0196757D01*
X0109789Y0196771D01*
X0109886Y0196788D01*
X0109982Y0196809D01*
X0110077Y0196834D01*
X0110171Y0196862D01*
X0110263Y0196895D01*
X0110355Y0196930D01*
X0110445Y0196970D01*
X0110533Y0197012D01*
X0110620Y0197059D01*
X0110704Y0197108D01*
X0110787Y0197161D01*
X0110867Y0197217D01*
X0110946Y0197277D01*
X0111022Y0197339D01*
X0111095Y0197404D01*
X0111166Y0197472D01*
X0111234Y0197543D01*
X0111299Y0197616D01*
X0111361Y0197692D01*
X0111421Y0197771D01*
X0111477Y0197851D01*
X0111530Y0197934D01*
X0111579Y0198018D01*
X0111626Y0198105D01*
X0111668Y0198193D01*
X0111708Y0198283D01*
X0111743Y0198375D01*
X0111776Y0198467D01*
X0111804Y0198561D01*
X0111829Y0198656D01*
X0111850Y0198752D01*
X0111867Y0198849D01*
X0111881Y0198946D01*
X0111890Y0199044D01*
X0111896Y0199142D01*
X0111898Y0199240D01*
X0111898Y0210240D01*
X0111896Y0210338D01*
X0111890Y0210436D01*
X0111881Y0210534D01*
X0111867Y0210631D01*
X0111850Y0210728D01*
X0111829Y0210824D01*
X0111804Y0210919D01*
X0111776Y0211013D01*
X0111743Y0211105D01*
X0111708Y0211197D01*
X0111668Y0211287D01*
X0111626Y0211375D01*
X0111579Y0211462D01*
X0111530Y0211546D01*
X0111477Y0211629D01*
X0111421Y0211709D01*
X0111361Y0211788D01*
X0111299Y0211864D01*
X0111234Y0211937D01*
X0111166Y0212008D01*
X0111095Y0212076D01*
X0111022Y0212141D01*
X0110946Y0212203D01*
X0110867Y0212263D01*
X0110787Y0212319D01*
X0110704Y0212372D01*
X0110620Y0212421D01*
X0110533Y0212468D01*
X0110445Y0212510D01*
X0110355Y0212550D01*
X0110263Y0212585D01*
X0110171Y0212618D01*
X0110077Y0212646D01*
X0109982Y0212671D01*
X0109886Y0212692D01*
X0109789Y0212709D01*
X0109692Y0212723D01*
X0109594Y0212732D01*
X0109496Y0212738D01*
X0109398Y0212740D01*
X0080398Y0212740D01*
X0080300Y0212738D01*
X0080202Y0212732D01*
X0080104Y0212723D01*
X0080007Y0212709D01*
X0079910Y0212692D01*
X0079814Y0212671D01*
X0079719Y0212646D01*
X0079625Y0212618D01*
X0079533Y0212585D01*
X0079441Y0212550D01*
X0079351Y0212510D01*
X0079263Y0212468D01*
X0079176Y0212421D01*
X0079092Y0212372D01*
X0079009Y0212319D01*
X0078929Y0212263D01*
X0078850Y0212203D01*
X0078774Y0212141D01*
X0078701Y0212076D01*
X0078630Y0212008D01*
X0078562Y0211937D01*
X0078497Y0211864D01*
X0078435Y0211788D01*
X0078375Y0211709D01*
X0078319Y0211629D01*
X0078266Y0211546D01*
X0078217Y0211462D01*
X0078170Y0211375D01*
X0078128Y0211287D01*
X0078088Y0211197D01*
X0078053Y0211105D01*
X0078020Y0211013D01*
X0077992Y0210919D01*
X0077967Y0210824D01*
X0077946Y0210728D01*
X0077929Y0210631D01*
X0077915Y0210534D01*
X0077906Y0210436D01*
X0077900Y0210338D01*
X0077898Y0210240D01*
X0077898Y0199240D01*
X0077900Y0199142D01*
X0077906Y0199044D01*
X0077915Y0198946D01*
X0077929Y0198849D01*
X0077946Y0198752D01*
X0077967Y0198656D01*
X0077992Y0198561D01*
X0078020Y0198467D01*
X0078053Y0198375D01*
X0078088Y0198283D01*
X0078128Y0198193D01*
X0078170Y0198105D01*
X0078217Y0198018D01*
X0078266Y0197934D01*
X0078319Y0197851D01*
X0078375Y0197771D01*
X0078435Y0197692D01*
X0078497Y0197616D01*
X0078562Y0197543D01*
X0078630Y0197472D01*
X0078701Y0197404D01*
X0078774Y0197339D01*
X0078850Y0197277D01*
X0078929Y0197217D01*
X0079009Y0197161D01*
X0079092Y0197108D01*
X0079176Y0197059D01*
X0079263Y0197012D01*
X0079351Y0196970D01*
X0079441Y0196930D01*
X0079533Y0196895D01*
X0079625Y0196862D01*
X0079719Y0196834D01*
X0079814Y0196809D01*
X0079910Y0196788D01*
X0080007Y0196771D01*
X0080104Y0196757D01*
X0080202Y0196748D01*
X0080300Y0196742D01*
X0080398Y0196740D01*
X0082583Y0215894D02*
X0086583Y0215894D01*
X0090083Y0219394D01*
X0090083Y0223394D01*
X0086583Y0226894D01*
X0082583Y0226894D01*
X0079083Y0223394D01*
X0079083Y0219394D01*
X0082583Y0215894D01*
X0047398Y0219906D02*
X0047398Y0223906D01*
X0043898Y0227406D01*
X0039898Y0227406D01*
X0036398Y0223906D01*
X0036398Y0219906D01*
X0039898Y0216406D01*
X0043898Y0216406D01*
X0047398Y0219906D01*
X0043898Y0209217D02*
X0039898Y0209217D01*
X0036398Y0205717D01*
X0036398Y0201717D01*
X0039898Y0198217D01*
X0043898Y0198217D01*
X0047398Y0201717D01*
X0047398Y0205717D01*
X0043898Y0209217D01*
X0149567Y0207018D02*
X0149567Y0185218D01*
X0150967Y0185218D01*
X0160167Y0185218D02*
X0161567Y0185218D01*
X0161567Y0207018D01*
X0160167Y0207018D01*
X0158067Y0209518D02*
X0153067Y0209518D01*
X0155567Y0212518D01*
X0155067Y0209518D01*
X0154567Y0209518D02*
X0155567Y0212518D01*
X0154067Y0209518D01*
X0153567Y0209518D02*
X0155567Y0212518D01*
X0156067Y0209518D01*
X0156567Y0209518D02*
X0155567Y0212518D01*
X0157067Y0209518D01*
X0157567Y0209518D02*
X0155567Y0212518D01*
X0158067Y0209518D01*
X0155567Y0208518D02*
X0155567Y0212518D01*
X0153067Y0212518D01*
X0155567Y0212518D02*
X0158067Y0212518D01*
X0155567Y0212518D02*
X0155567Y0213518D01*
X0150967Y0207018D02*
X0149567Y0207018D01*
X0182311Y0205165D02*
X0182311Y0201165D01*
X0185811Y0197665D01*
X0189811Y0197665D01*
X0193311Y0201165D01*
X0193311Y0205165D01*
X0189811Y0208665D01*
X0185811Y0208665D01*
X0182311Y0205165D01*
X0185811Y0170476D02*
X0189811Y0170476D01*
X0193311Y0166976D01*
X0193311Y0162976D01*
X0189811Y0159476D01*
X0185811Y0159476D01*
X0182311Y0162976D01*
X0182311Y0166976D01*
X0185811Y0170476D01*
X0157280Y0142203D02*
X0154780Y0142203D01*
X0154280Y0139203D01*
X0153780Y0139203D02*
X0154780Y0142203D01*
X0153280Y0139203D01*
X0152780Y0139203D02*
X0154780Y0142203D01*
X0152280Y0139203D01*
X0157280Y0139203D01*
X0154780Y0142203D01*
X0155280Y0139203D01*
X0155780Y0139203D02*
X0154780Y0142203D01*
X0156280Y0139203D01*
X0156780Y0139203D02*
X0154780Y0142203D01*
X0152280Y0142203D01*
X0154780Y0142203D02*
X0154780Y0143203D01*
X0154780Y0142203D02*
X0154780Y0138203D01*
X0159380Y0136703D02*
X0160780Y0136703D01*
X0160780Y0114903D01*
X0159380Y0114903D01*
X0150180Y0114903D02*
X0148780Y0114903D01*
X0148780Y0136703D01*
X0150180Y0136703D01*
X0182508Y0134890D02*
X0182508Y0130890D01*
X0186008Y0127390D01*
X0190008Y0127390D01*
X0193508Y0130890D01*
X0193508Y0134890D01*
X0190008Y0138390D01*
X0186008Y0138390D01*
X0182508Y0134890D01*
X0186205Y0107287D02*
X0190205Y0107287D01*
X0193705Y0103787D01*
X0193705Y0099787D01*
X0190205Y0096287D01*
X0186205Y0096287D01*
X0182705Y0099787D01*
X0182705Y0103787D01*
X0186205Y0107287D01*
X0186008Y0074413D02*
X0190008Y0074413D01*
X0193508Y0070913D01*
X0193508Y0066913D01*
X0190008Y0063413D01*
X0186008Y0063413D01*
X0182508Y0066913D01*
X0182508Y0070913D01*
X0186008Y0074413D01*
X0159441Y0057254D02*
X0158041Y0057254D01*
X0159441Y0057254D02*
X0159441Y0035454D01*
X0158041Y0035454D01*
X0148841Y0035454D02*
X0147441Y0035454D01*
X0147441Y0057254D01*
X0148841Y0057254D01*
X0150941Y0059754D02*
X0155941Y0059754D01*
X0153441Y0062754D01*
X0152941Y0059754D01*
X0152441Y0059754D02*
X0153441Y0062754D01*
X0151941Y0059754D01*
X0151441Y0059754D02*
X0153441Y0062754D01*
X0150941Y0059754D01*
X0153441Y0058754D02*
X0153441Y0062754D01*
X0153941Y0059754D01*
X0154441Y0059754D02*
X0153441Y0062754D01*
X0154941Y0059754D01*
X0155441Y0059754D02*
X0153441Y0062754D01*
X0150941Y0062754D01*
X0153441Y0062754D02*
X0153441Y0063754D01*
X0153441Y0062754D02*
X0155941Y0062754D01*
X0182311Y0040008D02*
X0185811Y0043508D01*
X0189811Y0043508D01*
X0193311Y0040008D01*
X0193311Y0036008D01*
X0189811Y0032508D01*
X0185811Y0032508D01*
X0182311Y0036008D01*
X0182311Y0040008D01*
X0234898Y0041886D02*
X0234898Y0046886D01*
X0237398Y0049386D01*
X0252398Y0049386D01*
X0254898Y0046886D01*
X0254898Y0041886D01*
X0252398Y0039386D01*
X0237398Y0039386D01*
X0234898Y0041886D01*
X0237398Y0049386D02*
X0234898Y0051886D01*
X0234898Y0056886D01*
X0237398Y0059386D01*
X0252398Y0059386D01*
X0254898Y0056886D01*
X0254898Y0051886D01*
X0252398Y0049386D01*
X0252398Y0059386D02*
X0254898Y0061886D01*
X0254898Y0066886D01*
X0252398Y0069386D01*
X0237398Y0069386D01*
X0234898Y0066886D01*
X0234898Y0061886D01*
X0237398Y0059386D01*
X0237398Y0069386D02*
X0234898Y0071886D01*
X0234898Y0076886D01*
X0237398Y0079386D01*
X0252398Y0079386D01*
X0254898Y0076886D01*
X0254898Y0071886D01*
X0252398Y0069386D01*
X0252398Y0079386D02*
X0254898Y0081886D01*
X0254898Y0086886D01*
X0252398Y0089386D01*
X0237398Y0089386D01*
X0234898Y0086886D01*
X0234898Y0081886D01*
X0237398Y0079386D01*
X0238185Y0106039D02*
X0235685Y0108539D01*
X0235685Y0113539D01*
X0238185Y0116039D01*
X0243185Y0116039D01*
X0245685Y0113539D01*
X0248185Y0116039D01*
X0253185Y0116039D01*
X0255685Y0113539D01*
X0255685Y0108539D01*
X0253185Y0106039D01*
X0248185Y0106039D01*
X0245685Y0108539D01*
X0243185Y0106039D01*
X0238185Y0106039D01*
X0245685Y0108539D02*
X0245685Y0113539D01*
X0247988Y0123756D02*
X0245488Y0126256D01*
X0242988Y0123756D01*
X0237988Y0123756D01*
X0235488Y0126256D01*
X0235488Y0131256D01*
X0237988Y0133756D01*
X0242988Y0133756D01*
X0245488Y0131256D01*
X0247988Y0133756D01*
X0252988Y0133756D01*
X0255488Y0131256D01*
X0255488Y0126256D01*
X0252988Y0123756D01*
X0247988Y0123756D01*
X0245488Y0126256D02*
X0245488Y0131256D01*
X0237988Y0146472D02*
X0235488Y0148972D01*
X0235488Y0153972D01*
X0237988Y0156472D01*
X0252988Y0156472D01*
X0255488Y0158972D01*
X0255488Y0163972D01*
X0252988Y0166472D01*
X0237988Y0166472D01*
X0235488Y0168972D01*
X0235488Y0173972D01*
X0237988Y0176472D01*
X0252988Y0176472D01*
X0255488Y0178972D01*
X0255488Y0183972D01*
X0252988Y0186472D01*
X0255488Y0188972D01*
X0255488Y0193972D01*
X0252988Y0196472D01*
X0237988Y0196472D01*
X0235488Y0193972D01*
X0235488Y0188972D01*
X0237988Y0186472D01*
X0252988Y0186472D01*
X0252988Y0176472D02*
X0255488Y0173972D01*
X0255488Y0168972D01*
X0252988Y0166472D01*
X0252988Y0156472D02*
X0255488Y0153972D01*
X0255488Y0148972D01*
X0252988Y0146472D01*
X0237988Y0146472D01*
X0237988Y0156472D02*
X0235488Y0158972D01*
X0235488Y0163972D01*
X0237988Y0166472D01*
X0237988Y0176472D02*
X0235488Y0178972D01*
X0235488Y0183972D01*
X0237988Y0186472D01*
D13*
X0136548Y0197027D02*
X0133992Y0197027D01*
X0135270Y0197027D02*
X0135270Y0201627D01*
X0133992Y0200605D01*
X0133598Y0202614D02*
X0126906Y0202614D01*
X0129342Y0201627D02*
X0130620Y0201627D01*
X0129342Y0201627D02*
X0129342Y0197027D01*
X0130620Y0197027D01*
X0130689Y0197029D01*
X0130758Y0197034D01*
X0130827Y0197044D01*
X0130895Y0197057D01*
X0130962Y0197074D01*
X0131028Y0197094D01*
X0131093Y0197118D01*
X0131157Y0197145D01*
X0131219Y0197176D01*
X0131279Y0197210D01*
X0131337Y0197247D01*
X0131393Y0197288D01*
X0131447Y0197331D01*
X0131499Y0197377D01*
X0131548Y0197426D01*
X0131594Y0197478D01*
X0131637Y0197532D01*
X0131678Y0197588D01*
X0131715Y0197646D01*
X0131749Y0197706D01*
X0131780Y0197768D01*
X0131807Y0197832D01*
X0131831Y0197897D01*
X0131851Y0197963D01*
X0131868Y0198030D01*
X0131881Y0198098D01*
X0131891Y0198167D01*
X0131896Y0198236D01*
X0131898Y0198305D01*
X0131898Y0200349D01*
X0131896Y0200418D01*
X0131891Y0200487D01*
X0131881Y0200556D01*
X0131868Y0200624D01*
X0131851Y0200691D01*
X0131831Y0200757D01*
X0131807Y0200822D01*
X0131780Y0200886D01*
X0131749Y0200948D01*
X0131715Y0201008D01*
X0131678Y0201066D01*
X0131637Y0201122D01*
X0131594Y0201176D01*
X0131548Y0201228D01*
X0131499Y0201277D01*
X0131447Y0201323D01*
X0131393Y0201366D01*
X0131337Y0201407D01*
X0131279Y0201444D01*
X0131219Y0201478D01*
X0131157Y0201509D01*
X0131093Y0201536D01*
X0131028Y0201560D01*
X0130962Y0201580D01*
X0130895Y0201597D01*
X0130827Y0201610D01*
X0130758Y0201620D01*
X0130689Y0201625D01*
X0130620Y0201627D01*
X0133598Y0206945D02*
X0126906Y0206945D01*
X0112751Y0180485D02*
X0112751Y0175885D01*
X0114028Y0175885D02*
X0111473Y0175885D01*
X0109378Y0177163D02*
X0109378Y0179207D01*
X0109379Y0179207D02*
X0109377Y0179276D01*
X0109372Y0179345D01*
X0109362Y0179414D01*
X0109349Y0179482D01*
X0109332Y0179549D01*
X0109312Y0179615D01*
X0109288Y0179680D01*
X0109261Y0179744D01*
X0109230Y0179806D01*
X0109196Y0179866D01*
X0109159Y0179924D01*
X0109118Y0179980D01*
X0109075Y0180034D01*
X0109029Y0180086D01*
X0108980Y0180135D01*
X0108928Y0180181D01*
X0108874Y0180224D01*
X0108818Y0180265D01*
X0108760Y0180302D01*
X0108700Y0180336D01*
X0108638Y0180367D01*
X0108574Y0180394D01*
X0108509Y0180418D01*
X0108443Y0180438D01*
X0108376Y0180455D01*
X0108308Y0180468D01*
X0108239Y0180478D01*
X0108170Y0180483D01*
X0108101Y0180485D01*
X0106823Y0180485D01*
X0106823Y0175885D01*
X0108101Y0175885D01*
X0108170Y0175887D01*
X0108239Y0175892D01*
X0108308Y0175902D01*
X0108376Y0175915D01*
X0108443Y0175932D01*
X0108509Y0175952D01*
X0108574Y0175976D01*
X0108638Y0176003D01*
X0108700Y0176034D01*
X0108760Y0176068D01*
X0108818Y0176105D01*
X0108874Y0176146D01*
X0108928Y0176189D01*
X0108980Y0176235D01*
X0109029Y0176284D01*
X0109075Y0176336D01*
X0109118Y0176390D01*
X0109159Y0176446D01*
X0109196Y0176504D01*
X0109230Y0176564D01*
X0109261Y0176626D01*
X0109288Y0176690D01*
X0109312Y0176755D01*
X0109332Y0176821D01*
X0109349Y0176888D01*
X0109362Y0176956D01*
X0109372Y0177025D01*
X0109377Y0177094D01*
X0109379Y0177163D01*
X0111473Y0179463D02*
X0112751Y0180485D01*
X0104976Y0180485D02*
X0102932Y0180485D01*
X0102932Y0175885D01*
X0104976Y0175885D01*
X0104465Y0178441D02*
X0102932Y0178441D01*
X0101076Y0175885D02*
X0099032Y0175885D01*
X0099032Y0180485D01*
X0079368Y0175767D02*
X0076813Y0175767D01*
X0078091Y0175767D02*
X0078091Y0180367D01*
X0076813Y0179345D01*
X0073620Y0180367D02*
X0073690Y0180365D01*
X0073761Y0180359D01*
X0073830Y0180350D01*
X0073899Y0180336D01*
X0073968Y0180319D01*
X0074035Y0180298D01*
X0074101Y0180273D01*
X0074165Y0180245D01*
X0074228Y0180213D01*
X0074289Y0180178D01*
X0074348Y0180139D01*
X0074405Y0180098D01*
X0074459Y0180053D01*
X0074511Y0180005D01*
X0074560Y0179955D01*
X0074607Y0179901D01*
X0074650Y0179846D01*
X0074690Y0179788D01*
X0074727Y0179728D01*
X0074760Y0179666D01*
X0074790Y0179602D01*
X0074817Y0179537D01*
X0074840Y0179471D01*
X0074859Y0179403D01*
X0074874Y0179334D01*
X0074886Y0179265D01*
X0074894Y0179195D01*
X0074898Y0179124D01*
X0074898Y0179054D01*
X0074894Y0178983D01*
X0074886Y0178913D01*
X0074874Y0178844D01*
X0074859Y0178775D01*
X0074840Y0178707D01*
X0074817Y0178641D01*
X0074790Y0178576D01*
X0074760Y0178512D01*
X0074727Y0178450D01*
X0074690Y0178390D01*
X0074650Y0178332D01*
X0074607Y0178277D01*
X0074560Y0178223D01*
X0074511Y0178173D01*
X0074459Y0178125D01*
X0074405Y0178080D01*
X0074348Y0178039D01*
X0074289Y0178000D01*
X0074228Y0177965D01*
X0074165Y0177933D01*
X0074101Y0177905D01*
X0074035Y0177880D01*
X0073968Y0177859D01*
X0073899Y0177842D01*
X0073830Y0177828D01*
X0073761Y0177819D01*
X0073690Y0177813D01*
X0073620Y0177811D01*
X0072342Y0177811D01*
X0073875Y0177811D02*
X0074897Y0175767D01*
X0072342Y0175767D02*
X0072342Y0180367D01*
X0073620Y0180367D01*
X0126906Y0134819D02*
X0133598Y0134819D01*
X0133598Y0130488D02*
X0126906Y0130488D01*
X0129342Y0129501D02*
X0130620Y0129501D01*
X0129342Y0129501D02*
X0129342Y0124901D01*
X0130620Y0124901D01*
X0130689Y0124903D01*
X0130758Y0124908D01*
X0130827Y0124918D01*
X0130895Y0124931D01*
X0130962Y0124948D01*
X0131028Y0124968D01*
X0131093Y0124992D01*
X0131157Y0125019D01*
X0131219Y0125050D01*
X0131279Y0125084D01*
X0131337Y0125121D01*
X0131393Y0125162D01*
X0131447Y0125205D01*
X0131499Y0125251D01*
X0131548Y0125300D01*
X0131594Y0125352D01*
X0131637Y0125406D01*
X0131678Y0125462D01*
X0131715Y0125520D01*
X0131749Y0125580D01*
X0131780Y0125642D01*
X0131807Y0125706D01*
X0131831Y0125771D01*
X0131851Y0125837D01*
X0131868Y0125904D01*
X0131881Y0125972D01*
X0131891Y0126041D01*
X0131896Y0126110D01*
X0131898Y0126179D01*
X0131898Y0128223D01*
X0131896Y0128292D01*
X0131891Y0128361D01*
X0131881Y0128430D01*
X0131868Y0128498D01*
X0131851Y0128565D01*
X0131831Y0128631D01*
X0131807Y0128696D01*
X0131780Y0128760D01*
X0131749Y0128822D01*
X0131715Y0128882D01*
X0131678Y0128940D01*
X0131637Y0128996D01*
X0131594Y0129050D01*
X0131548Y0129102D01*
X0131499Y0129151D01*
X0131447Y0129197D01*
X0131393Y0129240D01*
X0131337Y0129281D01*
X0131279Y0129318D01*
X0131219Y0129352D01*
X0131157Y0129383D01*
X0131093Y0129410D01*
X0131028Y0129434D01*
X0130962Y0129454D01*
X0130895Y0129471D01*
X0130827Y0129484D01*
X0130758Y0129494D01*
X0130689Y0129499D01*
X0130620Y0129501D01*
X0136165Y0127457D02*
X0136212Y0127504D01*
X0136256Y0127554D01*
X0136298Y0127606D01*
X0136337Y0127660D01*
X0136372Y0127716D01*
X0136405Y0127774D01*
X0136435Y0127834D01*
X0136461Y0127895D01*
X0136484Y0127958D01*
X0136503Y0128022D01*
X0136519Y0128086D01*
X0136532Y0128152D01*
X0136541Y0128218D01*
X0136546Y0128284D01*
X0136548Y0128351D01*
X0136165Y0127456D02*
X0133992Y0124901D01*
X0136548Y0124901D01*
X0133993Y0128478D02*
X0134018Y0128548D01*
X0134046Y0128617D01*
X0134077Y0128684D01*
X0134112Y0128750D01*
X0134150Y0128813D01*
X0134192Y0128875D01*
X0134236Y0128935D01*
X0134283Y0128992D01*
X0134333Y0129047D01*
X0134386Y0129099D01*
X0134442Y0129149D01*
X0134500Y0129195D01*
X0134560Y0129239D01*
X0134622Y0129280D01*
X0134686Y0129317D01*
X0134752Y0129351D01*
X0134820Y0129382D01*
X0134889Y0129409D01*
X0134959Y0129433D01*
X0135030Y0129454D01*
X0135103Y0129470D01*
X0135176Y0129483D01*
X0135250Y0129493D01*
X0135324Y0129498D01*
X0135398Y0129500D01*
X0135398Y0129501D02*
X0135465Y0129499D01*
X0135532Y0129493D01*
X0135598Y0129484D01*
X0135663Y0129470D01*
X0135728Y0129453D01*
X0135791Y0129432D01*
X0135853Y0129407D01*
X0135914Y0129379D01*
X0135973Y0129347D01*
X0136030Y0129312D01*
X0136085Y0129273D01*
X0136137Y0129232D01*
X0136187Y0129187D01*
X0136234Y0129140D01*
X0136279Y0129090D01*
X0136320Y0129038D01*
X0136359Y0128983D01*
X0136394Y0128926D01*
X0136426Y0128867D01*
X0136454Y0128806D01*
X0136479Y0128744D01*
X0136500Y0128681D01*
X0136517Y0128616D01*
X0136531Y0128551D01*
X0136540Y0128485D01*
X0136546Y0128418D01*
X0136548Y0128351D01*
X0112786Y0107887D02*
X0111508Y0107887D01*
X0111508Y0103287D01*
X0112786Y0103287D01*
X0112786Y0103286D02*
X0112855Y0103288D01*
X0112924Y0103293D01*
X0112993Y0103303D01*
X0113061Y0103316D01*
X0113128Y0103333D01*
X0113194Y0103353D01*
X0113259Y0103377D01*
X0113323Y0103404D01*
X0113385Y0103435D01*
X0113445Y0103469D01*
X0113503Y0103506D01*
X0113559Y0103547D01*
X0113613Y0103590D01*
X0113665Y0103636D01*
X0113714Y0103685D01*
X0113760Y0103737D01*
X0113803Y0103791D01*
X0113844Y0103847D01*
X0113881Y0103905D01*
X0113915Y0103965D01*
X0113946Y0104027D01*
X0113973Y0104091D01*
X0113997Y0104156D01*
X0114017Y0104222D01*
X0114034Y0104289D01*
X0114047Y0104357D01*
X0114057Y0104426D01*
X0114062Y0104495D01*
X0114064Y0104564D01*
X0114063Y0104564D02*
X0114063Y0106609D01*
X0114064Y0106609D02*
X0114062Y0106678D01*
X0114057Y0106747D01*
X0114047Y0106816D01*
X0114034Y0106884D01*
X0114017Y0106951D01*
X0113997Y0107017D01*
X0113973Y0107082D01*
X0113946Y0107146D01*
X0113915Y0107208D01*
X0113881Y0107268D01*
X0113844Y0107326D01*
X0113803Y0107382D01*
X0113760Y0107436D01*
X0113714Y0107488D01*
X0113665Y0107537D01*
X0113613Y0107583D01*
X0113559Y0107626D01*
X0113503Y0107667D01*
X0113445Y0107704D01*
X0113385Y0107738D01*
X0113323Y0107769D01*
X0113259Y0107796D01*
X0113194Y0107820D01*
X0113128Y0107840D01*
X0113061Y0107857D01*
X0112993Y0107870D01*
X0112924Y0107880D01*
X0112855Y0107885D01*
X0112786Y0107887D01*
X0118330Y0105843D02*
X0118377Y0105890D01*
X0118421Y0105940D01*
X0118463Y0105992D01*
X0118502Y0106046D01*
X0118537Y0106102D01*
X0118570Y0106160D01*
X0118600Y0106220D01*
X0118626Y0106281D01*
X0118649Y0106344D01*
X0118668Y0106408D01*
X0118684Y0106472D01*
X0118697Y0106538D01*
X0118706Y0106604D01*
X0118711Y0106670D01*
X0118713Y0106737D01*
X0118330Y0105842D02*
X0116158Y0103287D01*
X0118713Y0103287D01*
X0116158Y0106864D02*
X0116183Y0106934D01*
X0116211Y0107003D01*
X0116242Y0107070D01*
X0116277Y0107136D01*
X0116315Y0107199D01*
X0116357Y0107261D01*
X0116401Y0107321D01*
X0116448Y0107378D01*
X0116498Y0107433D01*
X0116551Y0107485D01*
X0116607Y0107535D01*
X0116665Y0107581D01*
X0116725Y0107625D01*
X0116787Y0107666D01*
X0116851Y0107703D01*
X0116917Y0107737D01*
X0116985Y0107768D01*
X0117054Y0107795D01*
X0117124Y0107819D01*
X0117195Y0107840D01*
X0117268Y0107856D01*
X0117341Y0107869D01*
X0117415Y0107879D01*
X0117489Y0107884D01*
X0117563Y0107886D01*
X0117563Y0107887D02*
X0117630Y0107885D01*
X0117697Y0107879D01*
X0117763Y0107870D01*
X0117828Y0107856D01*
X0117893Y0107839D01*
X0117956Y0107818D01*
X0118018Y0107793D01*
X0118079Y0107765D01*
X0118138Y0107733D01*
X0118195Y0107698D01*
X0118250Y0107659D01*
X0118302Y0107618D01*
X0118352Y0107573D01*
X0118399Y0107526D01*
X0118444Y0107476D01*
X0118485Y0107424D01*
X0118524Y0107369D01*
X0118559Y0107312D01*
X0118591Y0107253D01*
X0118619Y0107192D01*
X0118644Y0107130D01*
X0118665Y0107067D01*
X0118682Y0107002D01*
X0118696Y0106937D01*
X0118705Y0106871D01*
X0118711Y0106804D01*
X0118713Y0106737D01*
X0109661Y0107887D02*
X0107617Y0107887D01*
X0107617Y0103287D01*
X0109661Y0103287D01*
X0109150Y0105842D02*
X0107617Y0105842D01*
X0105761Y0103287D02*
X0103717Y0103287D01*
X0103717Y0107887D01*
X0076849Y0102854D02*
X0074293Y0102854D01*
X0076465Y0105409D01*
X0075699Y0107453D02*
X0075625Y0107451D01*
X0075551Y0107446D01*
X0075477Y0107436D01*
X0075404Y0107423D01*
X0075331Y0107407D01*
X0075260Y0107386D01*
X0075190Y0107362D01*
X0075121Y0107335D01*
X0075053Y0107304D01*
X0074987Y0107270D01*
X0074923Y0107233D01*
X0074861Y0107192D01*
X0074801Y0107148D01*
X0074743Y0107102D01*
X0074687Y0107052D01*
X0074634Y0107000D01*
X0074584Y0106945D01*
X0074537Y0106888D01*
X0074493Y0106828D01*
X0074451Y0106766D01*
X0074413Y0106703D01*
X0074378Y0106637D01*
X0074347Y0106570D01*
X0074319Y0106501D01*
X0074294Y0106431D01*
X0076465Y0105410D02*
X0076512Y0105457D01*
X0076556Y0105507D01*
X0076598Y0105559D01*
X0076637Y0105613D01*
X0076672Y0105669D01*
X0076705Y0105727D01*
X0076735Y0105787D01*
X0076761Y0105848D01*
X0076784Y0105911D01*
X0076803Y0105975D01*
X0076819Y0106039D01*
X0076832Y0106105D01*
X0076841Y0106171D01*
X0076846Y0106237D01*
X0076848Y0106304D01*
X0076849Y0106304D02*
X0076847Y0106371D01*
X0076841Y0106438D01*
X0076832Y0106504D01*
X0076818Y0106569D01*
X0076801Y0106634D01*
X0076780Y0106697D01*
X0076755Y0106759D01*
X0076727Y0106820D01*
X0076695Y0106879D01*
X0076660Y0106936D01*
X0076621Y0106991D01*
X0076580Y0107043D01*
X0076535Y0107093D01*
X0076488Y0107140D01*
X0076438Y0107185D01*
X0076386Y0107226D01*
X0076331Y0107265D01*
X0076274Y0107300D01*
X0076215Y0107332D01*
X0076154Y0107360D01*
X0076092Y0107385D01*
X0076029Y0107406D01*
X0075964Y0107423D01*
X0075899Y0107437D01*
X0075833Y0107446D01*
X0075766Y0107452D01*
X0075699Y0107454D01*
X0071100Y0107454D02*
X0069822Y0107454D01*
X0069822Y0102854D01*
X0069822Y0104898D02*
X0071100Y0104898D01*
X0071355Y0104898D02*
X0072378Y0102854D01*
X0071100Y0104898D02*
X0071170Y0104900D01*
X0071241Y0104906D01*
X0071310Y0104915D01*
X0071379Y0104929D01*
X0071448Y0104946D01*
X0071515Y0104967D01*
X0071581Y0104992D01*
X0071645Y0105020D01*
X0071708Y0105052D01*
X0071769Y0105087D01*
X0071828Y0105126D01*
X0071885Y0105167D01*
X0071939Y0105212D01*
X0071991Y0105260D01*
X0072040Y0105310D01*
X0072087Y0105364D01*
X0072130Y0105419D01*
X0072170Y0105477D01*
X0072207Y0105537D01*
X0072240Y0105599D01*
X0072270Y0105663D01*
X0072297Y0105728D01*
X0072320Y0105794D01*
X0072339Y0105862D01*
X0072354Y0105931D01*
X0072366Y0106000D01*
X0072374Y0106070D01*
X0072378Y0106141D01*
X0072378Y0106211D01*
X0072374Y0106282D01*
X0072366Y0106352D01*
X0072354Y0106421D01*
X0072339Y0106490D01*
X0072320Y0106558D01*
X0072297Y0106624D01*
X0072270Y0106689D01*
X0072240Y0106753D01*
X0072207Y0106815D01*
X0072170Y0106875D01*
X0072130Y0106933D01*
X0072087Y0106988D01*
X0072040Y0107042D01*
X0071991Y0107092D01*
X0071939Y0107140D01*
X0071885Y0107185D01*
X0071828Y0107226D01*
X0071769Y0107265D01*
X0071708Y0107300D01*
X0071645Y0107332D01*
X0071581Y0107360D01*
X0071515Y0107385D01*
X0071448Y0107406D01*
X0071379Y0107423D01*
X0071310Y0107437D01*
X0071241Y0107446D01*
X0071170Y0107452D01*
X0071100Y0107454D01*
X0123283Y0055213D02*
X0129976Y0055213D01*
X0129976Y0050882D02*
X0123283Y0050882D01*
X0129854Y0050091D02*
X0129854Y0045491D01*
X0131132Y0045491D01*
X0131201Y0045493D01*
X0131270Y0045498D01*
X0131339Y0045508D01*
X0131407Y0045521D01*
X0131474Y0045538D01*
X0131540Y0045558D01*
X0131605Y0045582D01*
X0131669Y0045609D01*
X0131731Y0045640D01*
X0131791Y0045674D01*
X0131849Y0045711D01*
X0131905Y0045752D01*
X0131959Y0045795D01*
X0132011Y0045841D01*
X0132060Y0045890D01*
X0132106Y0045942D01*
X0132149Y0045996D01*
X0132190Y0046052D01*
X0132227Y0046110D01*
X0132261Y0046170D01*
X0132292Y0046232D01*
X0132319Y0046296D01*
X0132343Y0046361D01*
X0132363Y0046427D01*
X0132380Y0046494D01*
X0132393Y0046562D01*
X0132403Y0046631D01*
X0132408Y0046700D01*
X0132410Y0046769D01*
X0132410Y0048814D01*
X0132408Y0048883D01*
X0132403Y0048952D01*
X0132393Y0049021D01*
X0132380Y0049089D01*
X0132363Y0049156D01*
X0132343Y0049222D01*
X0132319Y0049287D01*
X0132292Y0049351D01*
X0132261Y0049413D01*
X0132227Y0049473D01*
X0132190Y0049531D01*
X0132149Y0049587D01*
X0132106Y0049641D01*
X0132060Y0049693D01*
X0132011Y0049742D01*
X0131959Y0049788D01*
X0131905Y0049831D01*
X0131849Y0049872D01*
X0131791Y0049909D01*
X0131731Y0049943D01*
X0131669Y0049974D01*
X0131605Y0050001D01*
X0131540Y0050025D01*
X0131474Y0050045D01*
X0131407Y0050062D01*
X0131339Y0050075D01*
X0131270Y0050085D01*
X0131201Y0050090D01*
X0131132Y0050092D01*
X0131132Y0050091D02*
X0129854Y0050091D01*
X0134504Y0050091D02*
X0136038Y0050091D01*
X0136101Y0050089D01*
X0136164Y0050083D01*
X0136226Y0050074D01*
X0136287Y0050060D01*
X0136348Y0050043D01*
X0136407Y0050022D01*
X0136465Y0049997D01*
X0136522Y0049969D01*
X0136576Y0049938D01*
X0136628Y0049903D01*
X0136679Y0049865D01*
X0136727Y0049824D01*
X0136772Y0049780D01*
X0136814Y0049734D01*
X0136854Y0049685D01*
X0136890Y0049634D01*
X0136923Y0049580D01*
X0136953Y0049525D01*
X0136979Y0049467D01*
X0137002Y0049409D01*
X0137021Y0049349D01*
X0137036Y0049288D01*
X0137048Y0049226D01*
X0137056Y0049163D01*
X0137060Y0049100D01*
X0137060Y0049038D01*
X0137056Y0048975D01*
X0137048Y0048912D01*
X0137036Y0048850D01*
X0137021Y0048789D01*
X0137002Y0048729D01*
X0136979Y0048671D01*
X0136953Y0048613D01*
X0136923Y0048558D01*
X0136890Y0048504D01*
X0136854Y0048453D01*
X0136814Y0048404D01*
X0136772Y0048358D01*
X0136727Y0048314D01*
X0136679Y0048273D01*
X0136628Y0048235D01*
X0136576Y0048200D01*
X0136522Y0048169D01*
X0136465Y0048141D01*
X0136407Y0048116D01*
X0136348Y0048095D01*
X0136287Y0048078D01*
X0136226Y0048064D01*
X0136164Y0048055D01*
X0136101Y0048049D01*
X0136038Y0048047D01*
X0135015Y0048047D01*
X0135782Y0048047D02*
X0135852Y0048045D01*
X0135923Y0048039D01*
X0135992Y0048030D01*
X0136061Y0048016D01*
X0136130Y0047999D01*
X0136197Y0047978D01*
X0136263Y0047953D01*
X0136327Y0047925D01*
X0136390Y0047893D01*
X0136451Y0047858D01*
X0136510Y0047819D01*
X0136567Y0047778D01*
X0136621Y0047733D01*
X0136673Y0047685D01*
X0136722Y0047635D01*
X0136769Y0047581D01*
X0136812Y0047526D01*
X0136852Y0047468D01*
X0136889Y0047408D01*
X0136922Y0047346D01*
X0136952Y0047282D01*
X0136979Y0047217D01*
X0137002Y0047151D01*
X0137021Y0047083D01*
X0137036Y0047014D01*
X0137048Y0046945D01*
X0137056Y0046875D01*
X0137060Y0046804D01*
X0137060Y0046734D01*
X0137056Y0046663D01*
X0137048Y0046593D01*
X0137036Y0046524D01*
X0137021Y0046455D01*
X0137002Y0046387D01*
X0136979Y0046321D01*
X0136952Y0046256D01*
X0136922Y0046192D01*
X0136889Y0046130D01*
X0136852Y0046070D01*
X0136812Y0046012D01*
X0136769Y0045957D01*
X0136722Y0045903D01*
X0136673Y0045853D01*
X0136621Y0045805D01*
X0136567Y0045760D01*
X0136510Y0045719D01*
X0136451Y0045680D01*
X0136390Y0045645D01*
X0136327Y0045613D01*
X0136263Y0045585D01*
X0136197Y0045560D01*
X0136130Y0045539D01*
X0136061Y0045522D01*
X0135992Y0045508D01*
X0135923Y0045499D01*
X0135852Y0045493D01*
X0135782Y0045491D01*
X0134504Y0045491D01*
X0125526Y0031233D02*
X0123992Y0031233D01*
X0125526Y0031233D02*
X0125589Y0031231D01*
X0125652Y0031225D01*
X0125714Y0031216D01*
X0125775Y0031202D01*
X0125836Y0031185D01*
X0125895Y0031164D01*
X0125953Y0031139D01*
X0126010Y0031111D01*
X0126064Y0031080D01*
X0126116Y0031045D01*
X0126167Y0031007D01*
X0126215Y0030966D01*
X0126260Y0030922D01*
X0126302Y0030876D01*
X0126342Y0030827D01*
X0126378Y0030776D01*
X0126411Y0030722D01*
X0126441Y0030667D01*
X0126467Y0030609D01*
X0126490Y0030551D01*
X0126509Y0030491D01*
X0126524Y0030430D01*
X0126536Y0030368D01*
X0126544Y0030305D01*
X0126548Y0030242D01*
X0126548Y0030180D01*
X0126544Y0030117D01*
X0126536Y0030054D01*
X0126524Y0029992D01*
X0126509Y0029931D01*
X0126490Y0029871D01*
X0126467Y0029813D01*
X0126441Y0029755D01*
X0126411Y0029700D01*
X0126378Y0029646D01*
X0126342Y0029595D01*
X0126302Y0029546D01*
X0126260Y0029500D01*
X0126215Y0029456D01*
X0126167Y0029415D01*
X0126116Y0029377D01*
X0126064Y0029342D01*
X0126010Y0029311D01*
X0125953Y0029283D01*
X0125895Y0029258D01*
X0125836Y0029237D01*
X0125775Y0029220D01*
X0125714Y0029206D01*
X0125652Y0029197D01*
X0125589Y0029191D01*
X0125526Y0029189D01*
X0124504Y0029189D01*
X0125270Y0029189D02*
X0125340Y0029187D01*
X0125411Y0029181D01*
X0125480Y0029172D01*
X0125549Y0029158D01*
X0125618Y0029141D01*
X0125685Y0029120D01*
X0125751Y0029095D01*
X0125815Y0029067D01*
X0125878Y0029035D01*
X0125939Y0029000D01*
X0125998Y0028961D01*
X0126055Y0028920D01*
X0126109Y0028875D01*
X0126161Y0028827D01*
X0126210Y0028777D01*
X0126257Y0028723D01*
X0126300Y0028668D01*
X0126340Y0028610D01*
X0126377Y0028550D01*
X0126410Y0028488D01*
X0126440Y0028424D01*
X0126467Y0028359D01*
X0126490Y0028293D01*
X0126509Y0028225D01*
X0126524Y0028156D01*
X0126536Y0028087D01*
X0126544Y0028017D01*
X0126548Y0027946D01*
X0126548Y0027876D01*
X0126544Y0027805D01*
X0126536Y0027735D01*
X0126524Y0027666D01*
X0126509Y0027597D01*
X0126490Y0027529D01*
X0126467Y0027463D01*
X0126440Y0027398D01*
X0126410Y0027334D01*
X0126377Y0027272D01*
X0126340Y0027212D01*
X0126300Y0027154D01*
X0126257Y0027099D01*
X0126210Y0027045D01*
X0126161Y0026995D01*
X0126109Y0026947D01*
X0126055Y0026902D01*
X0125998Y0026861D01*
X0125939Y0026822D01*
X0125878Y0026787D01*
X0125815Y0026755D01*
X0125751Y0026727D01*
X0125685Y0026702D01*
X0125618Y0026681D01*
X0125549Y0026664D01*
X0125480Y0026650D01*
X0125411Y0026641D01*
X0125340Y0026635D01*
X0125270Y0026633D01*
X0123992Y0026633D01*
X0121898Y0027911D02*
X0121898Y0029955D01*
X0121896Y0030024D01*
X0121891Y0030093D01*
X0121881Y0030162D01*
X0121868Y0030230D01*
X0121851Y0030297D01*
X0121831Y0030363D01*
X0121807Y0030428D01*
X0121780Y0030492D01*
X0121749Y0030554D01*
X0121715Y0030614D01*
X0121678Y0030672D01*
X0121637Y0030728D01*
X0121594Y0030782D01*
X0121548Y0030834D01*
X0121499Y0030883D01*
X0121447Y0030929D01*
X0121393Y0030972D01*
X0121337Y0031013D01*
X0121279Y0031050D01*
X0121219Y0031084D01*
X0121157Y0031115D01*
X0121093Y0031142D01*
X0121028Y0031166D01*
X0120962Y0031186D01*
X0120895Y0031203D01*
X0120827Y0031216D01*
X0120758Y0031226D01*
X0120689Y0031231D01*
X0120620Y0031233D01*
X0119342Y0031233D01*
X0119342Y0026633D01*
X0120620Y0026633D01*
X0120689Y0026635D01*
X0120758Y0026640D01*
X0120827Y0026650D01*
X0120895Y0026663D01*
X0120962Y0026680D01*
X0121028Y0026700D01*
X0121093Y0026724D01*
X0121157Y0026751D01*
X0121219Y0026782D01*
X0121279Y0026816D01*
X0121337Y0026853D01*
X0121393Y0026894D01*
X0121447Y0026937D01*
X0121499Y0026983D01*
X0121548Y0027032D01*
X0121594Y0027084D01*
X0121637Y0027138D01*
X0121678Y0027194D01*
X0121715Y0027252D01*
X0121749Y0027312D01*
X0121780Y0027374D01*
X0121807Y0027438D01*
X0121831Y0027503D01*
X0121851Y0027569D01*
X0121868Y0027636D01*
X0121881Y0027704D01*
X0121891Y0027773D01*
X0121896Y0027842D01*
X0121898Y0027911D01*
X0117496Y0026633D02*
X0115451Y0026633D01*
X0115451Y0031233D01*
X0117496Y0031233D01*
X0116985Y0029189D02*
X0115451Y0029189D01*
X0113596Y0026633D02*
X0111551Y0026633D01*
X0111551Y0031233D01*
X0083700Y0031391D02*
X0082167Y0031391D01*
X0083700Y0031390D02*
X0083763Y0031388D01*
X0083826Y0031382D01*
X0083888Y0031373D01*
X0083949Y0031359D01*
X0084010Y0031342D01*
X0084069Y0031321D01*
X0084127Y0031296D01*
X0084184Y0031268D01*
X0084238Y0031237D01*
X0084290Y0031202D01*
X0084341Y0031164D01*
X0084389Y0031123D01*
X0084434Y0031079D01*
X0084476Y0031033D01*
X0084516Y0030984D01*
X0084552Y0030933D01*
X0084585Y0030879D01*
X0084615Y0030824D01*
X0084641Y0030766D01*
X0084664Y0030708D01*
X0084683Y0030648D01*
X0084698Y0030587D01*
X0084710Y0030525D01*
X0084718Y0030462D01*
X0084722Y0030399D01*
X0084722Y0030337D01*
X0084718Y0030274D01*
X0084710Y0030211D01*
X0084698Y0030149D01*
X0084683Y0030088D01*
X0084664Y0030028D01*
X0084641Y0029970D01*
X0084615Y0029912D01*
X0084585Y0029857D01*
X0084552Y0029803D01*
X0084516Y0029752D01*
X0084476Y0029703D01*
X0084434Y0029657D01*
X0084389Y0029613D01*
X0084341Y0029572D01*
X0084290Y0029534D01*
X0084238Y0029499D01*
X0084184Y0029468D01*
X0084127Y0029440D01*
X0084069Y0029415D01*
X0084010Y0029394D01*
X0083949Y0029377D01*
X0083888Y0029363D01*
X0083826Y0029354D01*
X0083763Y0029348D01*
X0083700Y0029346D01*
X0082678Y0029346D01*
X0083445Y0029346D02*
X0083515Y0029344D01*
X0083586Y0029338D01*
X0083655Y0029329D01*
X0083724Y0029315D01*
X0083793Y0029298D01*
X0083860Y0029277D01*
X0083926Y0029252D01*
X0083990Y0029224D01*
X0084053Y0029192D01*
X0084114Y0029157D01*
X0084173Y0029118D01*
X0084230Y0029077D01*
X0084284Y0029032D01*
X0084336Y0028984D01*
X0084385Y0028934D01*
X0084432Y0028880D01*
X0084475Y0028825D01*
X0084515Y0028767D01*
X0084552Y0028707D01*
X0084585Y0028645D01*
X0084615Y0028581D01*
X0084642Y0028516D01*
X0084665Y0028450D01*
X0084684Y0028382D01*
X0084699Y0028313D01*
X0084711Y0028244D01*
X0084719Y0028174D01*
X0084723Y0028103D01*
X0084723Y0028033D01*
X0084719Y0027962D01*
X0084711Y0027892D01*
X0084699Y0027823D01*
X0084684Y0027754D01*
X0084665Y0027686D01*
X0084642Y0027620D01*
X0084615Y0027555D01*
X0084585Y0027491D01*
X0084552Y0027429D01*
X0084515Y0027369D01*
X0084475Y0027311D01*
X0084432Y0027256D01*
X0084385Y0027202D01*
X0084336Y0027152D01*
X0084284Y0027104D01*
X0084230Y0027059D01*
X0084173Y0027018D01*
X0084114Y0026979D01*
X0084053Y0026944D01*
X0083990Y0026912D01*
X0083926Y0026884D01*
X0083860Y0026859D01*
X0083793Y0026838D01*
X0083724Y0026821D01*
X0083655Y0026807D01*
X0083586Y0026798D01*
X0083515Y0026792D01*
X0083445Y0026790D01*
X0083445Y0026791D02*
X0082167Y0026791D01*
X0080252Y0026791D02*
X0079229Y0028835D01*
X0078974Y0028835D02*
X0077696Y0028835D01*
X0078974Y0028835D02*
X0079044Y0028837D01*
X0079115Y0028843D01*
X0079184Y0028852D01*
X0079253Y0028866D01*
X0079322Y0028883D01*
X0079389Y0028904D01*
X0079455Y0028929D01*
X0079519Y0028957D01*
X0079582Y0028989D01*
X0079643Y0029024D01*
X0079702Y0029063D01*
X0079759Y0029104D01*
X0079813Y0029149D01*
X0079865Y0029197D01*
X0079914Y0029247D01*
X0079961Y0029301D01*
X0080004Y0029356D01*
X0080044Y0029414D01*
X0080081Y0029474D01*
X0080114Y0029536D01*
X0080144Y0029600D01*
X0080171Y0029665D01*
X0080194Y0029731D01*
X0080213Y0029799D01*
X0080228Y0029868D01*
X0080240Y0029937D01*
X0080248Y0030007D01*
X0080252Y0030078D01*
X0080252Y0030148D01*
X0080248Y0030219D01*
X0080240Y0030289D01*
X0080228Y0030358D01*
X0080213Y0030427D01*
X0080194Y0030495D01*
X0080171Y0030561D01*
X0080144Y0030626D01*
X0080114Y0030690D01*
X0080081Y0030752D01*
X0080044Y0030812D01*
X0080004Y0030870D01*
X0079961Y0030925D01*
X0079914Y0030979D01*
X0079865Y0031029D01*
X0079813Y0031077D01*
X0079759Y0031122D01*
X0079702Y0031163D01*
X0079643Y0031202D01*
X0079582Y0031237D01*
X0079519Y0031269D01*
X0079455Y0031297D01*
X0079389Y0031322D01*
X0079322Y0031343D01*
X0079253Y0031360D01*
X0079184Y0031374D01*
X0079115Y0031383D01*
X0079044Y0031389D01*
X0078974Y0031391D01*
X0077696Y0031391D01*
X0077696Y0026791D01*
D14*
X0128008Y0053047D03*
X0131630Y0132654D03*
X0131630Y0204780D03*
D15*
X0105933Y0228144D02*
X0107433Y0232644D01*
X0104433Y0232644D02*
X0105933Y0228144D01*
X0102683Y0228144D02*
X0100183Y0228144D01*
X0102308Y0230644D01*
X0101558Y0232643D02*
X0101485Y0232641D01*
X0101413Y0232636D01*
X0101341Y0232627D01*
X0101269Y0232614D01*
X0101198Y0232598D01*
X0101128Y0232578D01*
X0101060Y0232554D01*
X0100992Y0232528D01*
X0100926Y0232497D01*
X0100861Y0232464D01*
X0100799Y0232427D01*
X0100738Y0232388D01*
X0100679Y0232345D01*
X0100622Y0232299D01*
X0100568Y0232251D01*
X0100517Y0232200D01*
X0100467Y0232146D01*
X0100421Y0232090D01*
X0100378Y0232032D01*
X0100337Y0231971D01*
X0100300Y0231909D01*
X0100266Y0231845D01*
X0100235Y0231779D01*
X0100207Y0231712D01*
X0100183Y0231643D01*
X0102307Y0230644D02*
X0102353Y0230690D01*
X0102397Y0230739D01*
X0102437Y0230790D01*
X0102475Y0230843D01*
X0102510Y0230898D01*
X0102542Y0230955D01*
X0102571Y0231013D01*
X0102597Y0231073D01*
X0102619Y0231135D01*
X0102638Y0231197D01*
X0102654Y0231260D01*
X0102666Y0231324D01*
X0102675Y0231389D01*
X0102680Y0231454D01*
X0102682Y0231519D01*
X0102683Y0231519D02*
X0102681Y0231584D01*
X0102675Y0231650D01*
X0102666Y0231714D01*
X0102653Y0231778D01*
X0102636Y0231842D01*
X0102615Y0231904D01*
X0102591Y0231965D01*
X0102563Y0232024D01*
X0102532Y0232082D01*
X0102498Y0232137D01*
X0102460Y0232191D01*
X0102420Y0232242D01*
X0102376Y0232291D01*
X0102330Y0232337D01*
X0102281Y0232381D01*
X0102230Y0232421D01*
X0102176Y0232459D01*
X0102121Y0232493D01*
X0102063Y0232524D01*
X0102004Y0232552D01*
X0101943Y0232576D01*
X0101881Y0232597D01*
X0101817Y0232614D01*
X0101753Y0232627D01*
X0101689Y0232636D01*
X0101623Y0232642D01*
X0101558Y0232644D01*
X0096933Y0232644D02*
X0096933Y0228144D01*
X0095683Y0228144D02*
X0098183Y0228144D01*
X0095683Y0231644D02*
X0096933Y0232644D01*
X0093883Y0227644D02*
X0091883Y0227644D01*
X0089933Y0228144D02*
X0089933Y0232644D01*
X0087433Y0232644D02*
X0089933Y0228144D01*
X0087433Y0228144D02*
X0087433Y0232644D01*
X0085433Y0232644D02*
X0084433Y0232644D01*
X0084933Y0232644D02*
X0084933Y0228144D01*
X0084433Y0228144D02*
X0085433Y0228144D01*
X0081333Y0228144D02*
X0079833Y0232644D01*
X0082833Y0232644D02*
X0081333Y0228144D01*
X0089278Y0218112D02*
X0091278Y0218112D01*
X0091278Y0216112D02*
X0089278Y0216112D01*
X0089278Y0218112D02*
X0089278Y0213612D01*
X0093018Y0213612D02*
X0095518Y0213612D01*
X0094268Y0213612D02*
X0094268Y0218112D01*
X0093018Y0217112D01*
X0051838Y0213967D02*
X0051836Y0213905D01*
X0051830Y0213844D01*
X0051821Y0213783D01*
X0051808Y0213723D01*
X0051791Y0213664D01*
X0051770Y0213606D01*
X0051746Y0213549D01*
X0051719Y0213494D01*
X0051688Y0213441D01*
X0051654Y0213389D01*
X0051617Y0213340D01*
X0051577Y0213293D01*
X0051534Y0213249D01*
X0051489Y0213208D01*
X0051441Y0213169D01*
X0051390Y0213133D01*
X0051338Y0213101D01*
X0051284Y0213072D01*
X0051228Y0213046D01*
X0051170Y0213024D01*
X0051112Y0213005D01*
X0051052Y0212990D01*
X0050991Y0212979D01*
X0050930Y0212971D01*
X0050869Y0212967D01*
X0050807Y0212967D01*
X0050746Y0212971D01*
X0050685Y0212979D01*
X0050624Y0212990D01*
X0050564Y0213005D01*
X0050506Y0213024D01*
X0050448Y0213046D01*
X0050392Y0213072D01*
X0050338Y0213101D01*
X0050286Y0213133D01*
X0050235Y0213169D01*
X0050187Y0213208D01*
X0050142Y0213249D01*
X0050099Y0213293D01*
X0050059Y0213340D01*
X0050022Y0213389D01*
X0049988Y0213441D01*
X0049957Y0213494D01*
X0049930Y0213549D01*
X0049906Y0213606D01*
X0049885Y0213664D01*
X0049868Y0213723D01*
X0049855Y0213783D01*
X0049846Y0213844D01*
X0049840Y0213905D01*
X0049838Y0213967D01*
X0049840Y0214029D01*
X0049846Y0214090D01*
X0049855Y0214151D01*
X0049868Y0214211D01*
X0049885Y0214270D01*
X0049906Y0214328D01*
X0049930Y0214385D01*
X0049957Y0214440D01*
X0049988Y0214493D01*
X0050022Y0214545D01*
X0050059Y0214594D01*
X0050099Y0214641D01*
X0050142Y0214685D01*
X0050187Y0214726D01*
X0050235Y0214765D01*
X0050286Y0214801D01*
X0050338Y0214833D01*
X0050392Y0214862D01*
X0050448Y0214888D01*
X0050506Y0214910D01*
X0050564Y0214929D01*
X0050624Y0214944D01*
X0050685Y0214955D01*
X0050746Y0214963D01*
X0050807Y0214967D01*
X0050869Y0214967D01*
X0050930Y0214963D01*
X0050991Y0214955D01*
X0051052Y0214944D01*
X0051112Y0214929D01*
X0051170Y0214910D01*
X0051228Y0214888D01*
X0051284Y0214862D01*
X0051338Y0214833D01*
X0051390Y0214801D01*
X0051441Y0214765D01*
X0051489Y0214726D01*
X0051534Y0214685D01*
X0051577Y0214641D01*
X0051617Y0214594D01*
X0051654Y0214545D01*
X0051688Y0214493D01*
X0051719Y0214440D01*
X0051746Y0214385D01*
X0051770Y0214328D01*
X0051791Y0214270D01*
X0051808Y0214211D01*
X0051821Y0214151D01*
X0051830Y0214090D01*
X0051836Y0214029D01*
X0051838Y0213967D01*
X0052088Y0211717D02*
X0052086Y0211648D01*
X0052080Y0211579D01*
X0052071Y0211511D01*
X0052058Y0211444D01*
X0052041Y0211377D01*
X0052020Y0211311D01*
X0051996Y0211247D01*
X0051968Y0211184D01*
X0051937Y0211122D01*
X0051903Y0211062D01*
X0051865Y0211005D01*
X0051824Y0210949D01*
X0051781Y0210896D01*
X0051734Y0210845D01*
X0051685Y0210797D01*
X0051633Y0210752D01*
X0051578Y0210710D01*
X0051522Y0210671D01*
X0051463Y0210634D01*
X0051402Y0210602D01*
X0051340Y0210572D01*
X0051276Y0210546D01*
X0051211Y0210524D01*
X0051145Y0210505D01*
X0051078Y0210490D01*
X0051010Y0210479D01*
X0050941Y0210471D01*
X0050872Y0210467D01*
X0050804Y0210467D01*
X0050735Y0210471D01*
X0050666Y0210479D01*
X0050598Y0210490D01*
X0050531Y0210505D01*
X0050465Y0210524D01*
X0050400Y0210546D01*
X0050336Y0210572D01*
X0050274Y0210602D01*
X0050213Y0210634D01*
X0050154Y0210671D01*
X0050098Y0210710D01*
X0050043Y0210752D01*
X0049991Y0210797D01*
X0049942Y0210845D01*
X0049895Y0210896D01*
X0049852Y0210949D01*
X0049811Y0211005D01*
X0049773Y0211062D01*
X0049739Y0211122D01*
X0049708Y0211184D01*
X0049680Y0211247D01*
X0049656Y0211311D01*
X0049635Y0211377D01*
X0049618Y0211444D01*
X0049605Y0211511D01*
X0049596Y0211579D01*
X0049590Y0211648D01*
X0049588Y0211717D01*
X0049590Y0211786D01*
X0049596Y0211855D01*
X0049605Y0211923D01*
X0049618Y0211990D01*
X0049635Y0212057D01*
X0049656Y0212123D01*
X0049680Y0212187D01*
X0049708Y0212250D01*
X0049739Y0212312D01*
X0049773Y0212372D01*
X0049811Y0212429D01*
X0049852Y0212485D01*
X0049895Y0212538D01*
X0049942Y0212589D01*
X0049991Y0212637D01*
X0050043Y0212682D01*
X0050098Y0212724D01*
X0050154Y0212763D01*
X0050213Y0212800D01*
X0050274Y0212832D01*
X0050336Y0212862D01*
X0050400Y0212888D01*
X0050465Y0212910D01*
X0050531Y0212929D01*
X0050598Y0212944D01*
X0050666Y0212955D01*
X0050735Y0212963D01*
X0050804Y0212967D01*
X0050872Y0212967D01*
X0050941Y0212963D01*
X0051010Y0212955D01*
X0051078Y0212944D01*
X0051145Y0212929D01*
X0051211Y0212910D01*
X0051276Y0212888D01*
X0051340Y0212862D01*
X0051402Y0212832D01*
X0051463Y0212800D01*
X0051522Y0212763D01*
X0051578Y0212724D01*
X0051633Y0212682D01*
X0051685Y0212637D01*
X0051734Y0212589D01*
X0051781Y0212538D01*
X0051824Y0212485D01*
X0051865Y0212429D01*
X0051903Y0212372D01*
X0051937Y0212312D01*
X0051968Y0212250D01*
X0051996Y0212187D01*
X0052020Y0212123D01*
X0052041Y0212057D01*
X0052058Y0211990D01*
X0052071Y0211923D01*
X0052080Y0211855D01*
X0052086Y0211786D01*
X0052088Y0211717D01*
X0046563Y0212467D02*
X0045313Y0212467D01*
X0046563Y0212467D02*
X0046632Y0212469D01*
X0046701Y0212475D01*
X0046769Y0212484D01*
X0046836Y0212497D01*
X0046903Y0212514D01*
X0046969Y0212535D01*
X0047033Y0212559D01*
X0047096Y0212587D01*
X0047158Y0212618D01*
X0047218Y0212652D01*
X0047275Y0212690D01*
X0047331Y0212731D01*
X0047384Y0212774D01*
X0047435Y0212821D01*
X0047483Y0212870D01*
X0047528Y0212922D01*
X0047570Y0212977D01*
X0047609Y0213033D01*
X0047646Y0213092D01*
X0047678Y0213153D01*
X0047708Y0213215D01*
X0047734Y0213279D01*
X0047756Y0213344D01*
X0047775Y0213410D01*
X0047790Y0213477D01*
X0047801Y0213545D01*
X0047809Y0213614D01*
X0047813Y0213683D01*
X0047813Y0213751D01*
X0047809Y0213820D01*
X0047801Y0213889D01*
X0047790Y0213957D01*
X0047775Y0214024D01*
X0047756Y0214090D01*
X0047734Y0214155D01*
X0047708Y0214219D01*
X0047678Y0214281D01*
X0047646Y0214342D01*
X0047609Y0214401D01*
X0047570Y0214457D01*
X0047528Y0214512D01*
X0047483Y0214564D01*
X0047435Y0214613D01*
X0047384Y0214660D01*
X0047331Y0214703D01*
X0047275Y0214744D01*
X0047218Y0214782D01*
X0047158Y0214816D01*
X0047096Y0214847D01*
X0047033Y0214875D01*
X0046969Y0214899D01*
X0046903Y0214920D01*
X0046836Y0214937D01*
X0046769Y0214950D01*
X0046701Y0214959D01*
X0046632Y0214965D01*
X0046563Y0214967D01*
X0045313Y0214967D01*
X0045313Y0210467D01*
X0042738Y0212342D02*
X0041363Y0213092D01*
X0041863Y0214967D02*
X0041943Y0214965D01*
X0042024Y0214960D01*
X0042104Y0214951D01*
X0042183Y0214939D01*
X0042262Y0214924D01*
X0042340Y0214905D01*
X0042418Y0214883D01*
X0042494Y0214858D01*
X0042569Y0214829D01*
X0042643Y0214797D01*
X0042715Y0214762D01*
X0042786Y0214724D01*
X0042855Y0214683D01*
X0042923Y0214639D01*
X0042988Y0214592D01*
X0041362Y0213092D02*
X0041310Y0213125D01*
X0041259Y0213161D01*
X0041211Y0213200D01*
X0041166Y0213242D01*
X0041123Y0213287D01*
X0041083Y0213335D01*
X0041046Y0213384D01*
X0041012Y0213436D01*
X0040981Y0213490D01*
X0040953Y0213546D01*
X0040929Y0213603D01*
X0040909Y0213662D01*
X0040892Y0213721D01*
X0040879Y0213782D01*
X0040870Y0213843D01*
X0040864Y0213905D01*
X0040862Y0213967D01*
X0040863Y0213967D02*
X0040865Y0214027D01*
X0040870Y0214088D01*
X0040879Y0214147D01*
X0040892Y0214206D01*
X0040908Y0214265D01*
X0040928Y0214322D01*
X0040951Y0214377D01*
X0040978Y0214432D01*
X0041007Y0214484D01*
X0041040Y0214535D01*
X0041076Y0214584D01*
X0041114Y0214630D01*
X0041156Y0214674D01*
X0041200Y0214716D01*
X0041246Y0214754D01*
X0041295Y0214790D01*
X0041346Y0214823D01*
X0041398Y0214852D01*
X0041453Y0214879D01*
X0041508Y0214902D01*
X0041565Y0214922D01*
X0041624Y0214938D01*
X0041683Y0214951D01*
X0041742Y0214960D01*
X0041803Y0214965D01*
X0041863Y0214967D01*
X0040738Y0211091D02*
X0040801Y0211030D01*
X0040866Y0210972D01*
X0040934Y0210916D01*
X0041005Y0210863D01*
X0041077Y0210814D01*
X0041151Y0210767D01*
X0041227Y0210723D01*
X0041305Y0210683D01*
X0041385Y0210646D01*
X0041466Y0210612D01*
X0041548Y0210582D01*
X0041632Y0210555D01*
X0041717Y0210531D01*
X0041802Y0210511D01*
X0041888Y0210495D01*
X0041975Y0210482D01*
X0042063Y0210473D01*
X0042150Y0210468D01*
X0042238Y0210466D01*
X0042238Y0210467D02*
X0042298Y0210469D01*
X0042359Y0210474D01*
X0042418Y0210483D01*
X0042477Y0210496D01*
X0042536Y0210512D01*
X0042593Y0210532D01*
X0042648Y0210555D01*
X0042703Y0210582D01*
X0042755Y0210611D01*
X0042806Y0210644D01*
X0042855Y0210680D01*
X0042901Y0210718D01*
X0042945Y0210760D01*
X0042987Y0210804D01*
X0043025Y0210850D01*
X0043061Y0210899D01*
X0043094Y0210950D01*
X0043123Y0211002D01*
X0043150Y0211057D01*
X0043173Y0211112D01*
X0043193Y0211169D01*
X0043209Y0211228D01*
X0043222Y0211287D01*
X0043231Y0211346D01*
X0043236Y0211407D01*
X0043238Y0211467D01*
X0043236Y0211529D01*
X0043230Y0211591D01*
X0043221Y0211652D01*
X0043208Y0211713D01*
X0043191Y0211772D01*
X0043171Y0211831D01*
X0043147Y0211888D01*
X0043119Y0211944D01*
X0043088Y0211998D01*
X0043054Y0212050D01*
X0043017Y0212099D01*
X0042977Y0212147D01*
X0042934Y0212192D01*
X0042889Y0212234D01*
X0042841Y0212273D01*
X0042790Y0212309D01*
X0042738Y0212342D01*
X0039148Y0210467D02*
X0037148Y0210467D01*
X0037148Y0214967D01*
X0038148Y0228656D02*
X0039648Y0228656D01*
X0039648Y0231156D01*
X0038898Y0231156D01*
X0037148Y0232156D02*
X0037150Y0232216D01*
X0037155Y0232277D01*
X0037164Y0232336D01*
X0037177Y0232395D01*
X0037193Y0232454D01*
X0037213Y0232511D01*
X0037236Y0232566D01*
X0037263Y0232621D01*
X0037292Y0232673D01*
X0037325Y0232724D01*
X0037361Y0232773D01*
X0037399Y0232819D01*
X0037441Y0232863D01*
X0037485Y0232905D01*
X0037531Y0232943D01*
X0037580Y0232979D01*
X0037631Y0233012D01*
X0037683Y0233041D01*
X0037738Y0233068D01*
X0037793Y0233091D01*
X0037850Y0233111D01*
X0037909Y0233127D01*
X0037968Y0233140D01*
X0038027Y0233149D01*
X0038088Y0233154D01*
X0038148Y0233156D01*
X0039648Y0233156D01*
X0041948Y0233156D02*
X0044448Y0228656D01*
X0044448Y0233156D01*
X0046748Y0233156D02*
X0047998Y0233156D01*
X0046748Y0233156D02*
X0046748Y0228656D01*
X0047998Y0228656D01*
X0048066Y0228658D01*
X0048133Y0228663D01*
X0048200Y0228672D01*
X0048267Y0228685D01*
X0048332Y0228702D01*
X0048397Y0228721D01*
X0048461Y0228745D01*
X0048523Y0228772D01*
X0048584Y0228802D01*
X0048642Y0228835D01*
X0048699Y0228871D01*
X0048754Y0228911D01*
X0048807Y0228953D01*
X0048858Y0228999D01*
X0048905Y0229046D01*
X0048951Y0229097D01*
X0048993Y0229150D01*
X0049033Y0229205D01*
X0049069Y0229262D01*
X0049102Y0229320D01*
X0049132Y0229381D01*
X0049159Y0229443D01*
X0049183Y0229507D01*
X0049202Y0229572D01*
X0049219Y0229637D01*
X0049232Y0229704D01*
X0049241Y0229771D01*
X0049246Y0229838D01*
X0049248Y0229906D01*
X0049248Y0231906D01*
X0049246Y0231974D01*
X0049241Y0232041D01*
X0049232Y0232108D01*
X0049219Y0232175D01*
X0049202Y0232240D01*
X0049183Y0232305D01*
X0049159Y0232369D01*
X0049132Y0232431D01*
X0049102Y0232492D01*
X0049069Y0232550D01*
X0049033Y0232607D01*
X0048993Y0232662D01*
X0048951Y0232715D01*
X0048905Y0232766D01*
X0048858Y0232813D01*
X0048807Y0232859D01*
X0048754Y0232901D01*
X0048699Y0232941D01*
X0048642Y0232977D01*
X0048584Y0233010D01*
X0048523Y0233040D01*
X0048461Y0233067D01*
X0048397Y0233091D01*
X0048332Y0233110D01*
X0048267Y0233127D01*
X0048200Y0233140D01*
X0048133Y0233149D01*
X0048066Y0233154D01*
X0047998Y0233156D01*
X0041948Y0233156D02*
X0041948Y0228656D01*
X0038148Y0228656D02*
X0038088Y0228658D01*
X0038027Y0228663D01*
X0037968Y0228672D01*
X0037909Y0228685D01*
X0037850Y0228701D01*
X0037793Y0228721D01*
X0037738Y0228744D01*
X0037683Y0228771D01*
X0037631Y0228800D01*
X0037580Y0228833D01*
X0037531Y0228869D01*
X0037485Y0228907D01*
X0037441Y0228949D01*
X0037399Y0228993D01*
X0037361Y0229039D01*
X0037325Y0229088D01*
X0037292Y0229139D01*
X0037263Y0229191D01*
X0037236Y0229246D01*
X0037213Y0229301D01*
X0037193Y0229358D01*
X0037177Y0229417D01*
X0037164Y0229476D01*
X0037155Y0229535D01*
X0037150Y0229596D01*
X0037148Y0229656D01*
X0037148Y0232156D01*
X0036384Y0177801D02*
X0036384Y0173301D01*
X0038384Y0173301D01*
X0040599Y0175926D02*
X0041974Y0175176D01*
X0041474Y0173301D02*
X0041386Y0173303D01*
X0041299Y0173308D01*
X0041211Y0173317D01*
X0041124Y0173330D01*
X0041038Y0173346D01*
X0040953Y0173366D01*
X0040868Y0173390D01*
X0040784Y0173417D01*
X0040702Y0173447D01*
X0040621Y0173481D01*
X0040541Y0173518D01*
X0040463Y0173558D01*
X0040387Y0173602D01*
X0040313Y0173649D01*
X0040241Y0173698D01*
X0040170Y0173751D01*
X0040102Y0173807D01*
X0040037Y0173865D01*
X0039974Y0173926D01*
X0041974Y0175176D02*
X0042026Y0175143D01*
X0042077Y0175107D01*
X0042125Y0175068D01*
X0042170Y0175026D01*
X0042213Y0174981D01*
X0042253Y0174933D01*
X0042290Y0174884D01*
X0042324Y0174832D01*
X0042355Y0174778D01*
X0042383Y0174722D01*
X0042407Y0174665D01*
X0042427Y0174606D01*
X0042444Y0174547D01*
X0042457Y0174486D01*
X0042466Y0174425D01*
X0042472Y0174363D01*
X0042474Y0174301D01*
X0042472Y0174241D01*
X0042467Y0174180D01*
X0042458Y0174121D01*
X0042445Y0174062D01*
X0042429Y0174003D01*
X0042409Y0173946D01*
X0042386Y0173891D01*
X0042359Y0173836D01*
X0042330Y0173784D01*
X0042297Y0173733D01*
X0042261Y0173684D01*
X0042223Y0173638D01*
X0042181Y0173594D01*
X0042137Y0173552D01*
X0042091Y0173514D01*
X0042042Y0173478D01*
X0041991Y0173445D01*
X0041939Y0173416D01*
X0041884Y0173389D01*
X0041829Y0173366D01*
X0041772Y0173346D01*
X0041713Y0173330D01*
X0041654Y0173317D01*
X0041595Y0173308D01*
X0041534Y0173303D01*
X0041474Y0173301D01*
X0042224Y0177426D02*
X0042159Y0177473D01*
X0042091Y0177517D01*
X0042022Y0177558D01*
X0041951Y0177596D01*
X0041879Y0177631D01*
X0041805Y0177663D01*
X0041730Y0177692D01*
X0041654Y0177717D01*
X0041576Y0177739D01*
X0041498Y0177758D01*
X0041419Y0177773D01*
X0041340Y0177785D01*
X0041260Y0177794D01*
X0041179Y0177799D01*
X0041099Y0177801D01*
X0041039Y0177799D01*
X0040978Y0177794D01*
X0040919Y0177785D01*
X0040860Y0177772D01*
X0040801Y0177756D01*
X0040744Y0177736D01*
X0040689Y0177713D01*
X0040634Y0177686D01*
X0040582Y0177657D01*
X0040531Y0177624D01*
X0040482Y0177588D01*
X0040436Y0177550D01*
X0040392Y0177508D01*
X0040350Y0177464D01*
X0040312Y0177418D01*
X0040276Y0177369D01*
X0040243Y0177318D01*
X0040214Y0177266D01*
X0040187Y0177211D01*
X0040164Y0177156D01*
X0040144Y0177099D01*
X0040128Y0177040D01*
X0040115Y0176981D01*
X0040106Y0176922D01*
X0040101Y0176861D01*
X0040099Y0176801D01*
X0040098Y0176801D02*
X0040100Y0176739D01*
X0040106Y0176677D01*
X0040115Y0176616D01*
X0040128Y0176555D01*
X0040145Y0176496D01*
X0040165Y0176437D01*
X0040189Y0176380D01*
X0040217Y0176324D01*
X0040248Y0176270D01*
X0040282Y0176218D01*
X0040319Y0176169D01*
X0040359Y0176121D01*
X0040402Y0176076D01*
X0040447Y0176034D01*
X0040495Y0175995D01*
X0040546Y0175959D01*
X0040598Y0175926D01*
X0044549Y0175301D02*
X0045799Y0175301D01*
X0045868Y0175303D01*
X0045937Y0175309D01*
X0046005Y0175318D01*
X0046072Y0175331D01*
X0046139Y0175348D01*
X0046205Y0175369D01*
X0046269Y0175393D01*
X0046332Y0175421D01*
X0046394Y0175452D01*
X0046454Y0175486D01*
X0046511Y0175524D01*
X0046567Y0175565D01*
X0046620Y0175608D01*
X0046671Y0175655D01*
X0046719Y0175704D01*
X0046764Y0175756D01*
X0046806Y0175811D01*
X0046845Y0175867D01*
X0046882Y0175926D01*
X0046914Y0175987D01*
X0046944Y0176049D01*
X0046970Y0176113D01*
X0046992Y0176178D01*
X0047011Y0176244D01*
X0047026Y0176311D01*
X0047037Y0176379D01*
X0047045Y0176448D01*
X0047049Y0176517D01*
X0047049Y0176585D01*
X0047045Y0176654D01*
X0047037Y0176723D01*
X0047026Y0176791D01*
X0047011Y0176858D01*
X0046992Y0176924D01*
X0046970Y0176989D01*
X0046944Y0177053D01*
X0046914Y0177115D01*
X0046882Y0177176D01*
X0046845Y0177235D01*
X0046806Y0177291D01*
X0046764Y0177346D01*
X0046719Y0177398D01*
X0046671Y0177447D01*
X0046620Y0177494D01*
X0046567Y0177537D01*
X0046511Y0177578D01*
X0046454Y0177616D01*
X0046394Y0177650D01*
X0046332Y0177681D01*
X0046269Y0177709D01*
X0046205Y0177733D01*
X0046139Y0177754D01*
X0046072Y0177771D01*
X0046005Y0177784D01*
X0045937Y0177793D01*
X0045868Y0177799D01*
X0045799Y0177801D01*
X0044549Y0177801D01*
X0044549Y0173301D01*
X0048824Y0174551D02*
X0048824Y0175801D01*
X0050324Y0175801D01*
X0048824Y0175801D02*
X0048826Y0175888D01*
X0048832Y0175975D01*
X0048841Y0176062D01*
X0048854Y0176148D01*
X0048871Y0176234D01*
X0048892Y0176319D01*
X0048917Y0176402D01*
X0048945Y0176485D01*
X0048976Y0176566D01*
X0049011Y0176646D01*
X0049050Y0176724D01*
X0049092Y0176801D01*
X0049137Y0176876D01*
X0049186Y0176948D01*
X0049237Y0177019D01*
X0049292Y0177087D01*
X0049349Y0177152D01*
X0049410Y0177215D01*
X0049473Y0177276D01*
X0049538Y0177333D01*
X0049606Y0177388D01*
X0049677Y0177439D01*
X0049749Y0177488D01*
X0049824Y0177533D01*
X0049901Y0177575D01*
X0049979Y0177614D01*
X0050059Y0177649D01*
X0050140Y0177680D01*
X0050223Y0177708D01*
X0050306Y0177733D01*
X0050391Y0177754D01*
X0050477Y0177771D01*
X0050563Y0177784D01*
X0050650Y0177793D01*
X0050737Y0177799D01*
X0050824Y0177801D01*
X0051324Y0174801D02*
X0051324Y0174551D01*
X0051324Y0174801D02*
X0051322Y0174861D01*
X0051317Y0174922D01*
X0051308Y0174981D01*
X0051295Y0175040D01*
X0051279Y0175099D01*
X0051259Y0175156D01*
X0051236Y0175211D01*
X0051209Y0175266D01*
X0051180Y0175318D01*
X0051147Y0175369D01*
X0051111Y0175418D01*
X0051073Y0175464D01*
X0051031Y0175508D01*
X0050987Y0175550D01*
X0050941Y0175588D01*
X0050892Y0175624D01*
X0050841Y0175657D01*
X0050789Y0175686D01*
X0050734Y0175713D01*
X0050679Y0175736D01*
X0050622Y0175756D01*
X0050563Y0175772D01*
X0050504Y0175785D01*
X0050445Y0175794D01*
X0050384Y0175799D01*
X0050324Y0175801D01*
X0051324Y0174551D02*
X0051322Y0174482D01*
X0051316Y0174413D01*
X0051307Y0174345D01*
X0051294Y0174278D01*
X0051277Y0174211D01*
X0051256Y0174145D01*
X0051232Y0174081D01*
X0051204Y0174018D01*
X0051173Y0173956D01*
X0051139Y0173896D01*
X0051101Y0173839D01*
X0051060Y0173783D01*
X0051017Y0173730D01*
X0050970Y0173679D01*
X0050921Y0173631D01*
X0050869Y0173586D01*
X0050814Y0173544D01*
X0050758Y0173505D01*
X0050699Y0173468D01*
X0050638Y0173436D01*
X0050576Y0173406D01*
X0050512Y0173380D01*
X0050447Y0173358D01*
X0050381Y0173339D01*
X0050314Y0173324D01*
X0050246Y0173313D01*
X0050177Y0173305D01*
X0050108Y0173301D01*
X0050040Y0173301D01*
X0049971Y0173305D01*
X0049902Y0173313D01*
X0049834Y0173324D01*
X0049767Y0173339D01*
X0049701Y0173358D01*
X0049636Y0173380D01*
X0049572Y0173406D01*
X0049510Y0173436D01*
X0049449Y0173468D01*
X0049390Y0173505D01*
X0049334Y0173544D01*
X0049279Y0173586D01*
X0049227Y0173631D01*
X0049178Y0173679D01*
X0049131Y0173730D01*
X0049088Y0173783D01*
X0049047Y0173839D01*
X0049009Y0173896D01*
X0048975Y0173956D01*
X0048944Y0174018D01*
X0048916Y0174081D01*
X0048892Y0174145D01*
X0048871Y0174211D01*
X0048854Y0174278D01*
X0048841Y0174345D01*
X0048832Y0174413D01*
X0048826Y0174482D01*
X0048824Y0174551D01*
X0050218Y0144376D02*
X0049218Y0140876D01*
X0051718Y0140876D01*
X0050968Y0141876D02*
X0050968Y0139876D01*
X0046193Y0141876D02*
X0044943Y0141876D01*
X0046193Y0141876D02*
X0046262Y0141878D01*
X0046331Y0141884D01*
X0046399Y0141893D01*
X0046466Y0141906D01*
X0046533Y0141923D01*
X0046599Y0141944D01*
X0046663Y0141968D01*
X0046726Y0141996D01*
X0046788Y0142027D01*
X0046848Y0142061D01*
X0046905Y0142099D01*
X0046961Y0142140D01*
X0047014Y0142183D01*
X0047065Y0142230D01*
X0047113Y0142279D01*
X0047158Y0142331D01*
X0047200Y0142386D01*
X0047239Y0142442D01*
X0047276Y0142501D01*
X0047308Y0142562D01*
X0047338Y0142624D01*
X0047364Y0142688D01*
X0047386Y0142753D01*
X0047405Y0142819D01*
X0047420Y0142886D01*
X0047431Y0142954D01*
X0047439Y0143023D01*
X0047443Y0143092D01*
X0047443Y0143160D01*
X0047439Y0143229D01*
X0047431Y0143298D01*
X0047420Y0143366D01*
X0047405Y0143433D01*
X0047386Y0143499D01*
X0047364Y0143564D01*
X0047338Y0143628D01*
X0047308Y0143690D01*
X0047276Y0143751D01*
X0047239Y0143810D01*
X0047200Y0143866D01*
X0047158Y0143921D01*
X0047113Y0143973D01*
X0047065Y0144022D01*
X0047014Y0144069D01*
X0046961Y0144112D01*
X0046905Y0144153D01*
X0046848Y0144191D01*
X0046788Y0144225D01*
X0046726Y0144256D01*
X0046663Y0144284D01*
X0046599Y0144308D01*
X0046533Y0144329D01*
X0046466Y0144346D01*
X0046399Y0144359D01*
X0046331Y0144368D01*
X0046262Y0144374D01*
X0046193Y0144376D01*
X0044943Y0144376D01*
X0044943Y0139876D01*
X0042368Y0141751D02*
X0040993Y0142501D01*
X0041493Y0144376D02*
X0041573Y0144374D01*
X0041654Y0144369D01*
X0041734Y0144360D01*
X0041813Y0144348D01*
X0041892Y0144333D01*
X0041970Y0144314D01*
X0042048Y0144292D01*
X0042124Y0144267D01*
X0042199Y0144238D01*
X0042273Y0144206D01*
X0042345Y0144171D01*
X0042416Y0144133D01*
X0042485Y0144092D01*
X0042553Y0144048D01*
X0042618Y0144001D01*
X0040992Y0142501D02*
X0040940Y0142534D01*
X0040889Y0142570D01*
X0040841Y0142609D01*
X0040796Y0142651D01*
X0040753Y0142696D01*
X0040713Y0142744D01*
X0040676Y0142793D01*
X0040642Y0142845D01*
X0040611Y0142899D01*
X0040583Y0142955D01*
X0040559Y0143012D01*
X0040539Y0143071D01*
X0040522Y0143130D01*
X0040509Y0143191D01*
X0040500Y0143252D01*
X0040494Y0143314D01*
X0040492Y0143376D01*
X0040493Y0143376D02*
X0040495Y0143436D01*
X0040500Y0143497D01*
X0040509Y0143556D01*
X0040522Y0143615D01*
X0040538Y0143674D01*
X0040558Y0143731D01*
X0040581Y0143786D01*
X0040608Y0143841D01*
X0040637Y0143893D01*
X0040670Y0143944D01*
X0040706Y0143993D01*
X0040744Y0144039D01*
X0040786Y0144083D01*
X0040830Y0144125D01*
X0040876Y0144163D01*
X0040925Y0144199D01*
X0040976Y0144232D01*
X0041028Y0144261D01*
X0041083Y0144288D01*
X0041138Y0144311D01*
X0041195Y0144331D01*
X0041254Y0144347D01*
X0041313Y0144360D01*
X0041372Y0144369D01*
X0041433Y0144374D01*
X0041493Y0144376D01*
X0040368Y0140500D02*
X0040431Y0140439D01*
X0040496Y0140381D01*
X0040564Y0140325D01*
X0040635Y0140272D01*
X0040707Y0140223D01*
X0040781Y0140176D01*
X0040857Y0140132D01*
X0040935Y0140092D01*
X0041015Y0140055D01*
X0041096Y0140021D01*
X0041178Y0139991D01*
X0041262Y0139964D01*
X0041347Y0139940D01*
X0041432Y0139920D01*
X0041518Y0139904D01*
X0041605Y0139891D01*
X0041693Y0139882D01*
X0041780Y0139877D01*
X0041868Y0139875D01*
X0041868Y0139876D02*
X0041928Y0139878D01*
X0041989Y0139883D01*
X0042048Y0139892D01*
X0042107Y0139905D01*
X0042166Y0139921D01*
X0042223Y0139941D01*
X0042278Y0139964D01*
X0042333Y0139991D01*
X0042385Y0140020D01*
X0042436Y0140053D01*
X0042485Y0140089D01*
X0042531Y0140127D01*
X0042575Y0140169D01*
X0042617Y0140213D01*
X0042655Y0140259D01*
X0042691Y0140308D01*
X0042724Y0140359D01*
X0042753Y0140411D01*
X0042780Y0140466D01*
X0042803Y0140521D01*
X0042823Y0140578D01*
X0042839Y0140637D01*
X0042852Y0140696D01*
X0042861Y0140755D01*
X0042866Y0140816D01*
X0042868Y0140876D01*
X0042866Y0140938D01*
X0042860Y0141000D01*
X0042851Y0141061D01*
X0042838Y0141122D01*
X0042821Y0141181D01*
X0042801Y0141240D01*
X0042777Y0141297D01*
X0042749Y0141353D01*
X0042718Y0141407D01*
X0042684Y0141459D01*
X0042647Y0141508D01*
X0042607Y0141556D01*
X0042564Y0141601D01*
X0042519Y0141643D01*
X0042471Y0141682D01*
X0042420Y0141718D01*
X0042368Y0141751D01*
X0038778Y0139876D02*
X0036778Y0139876D01*
X0036778Y0144376D01*
X0037589Y0112644D02*
X0037589Y0108144D01*
X0039589Y0108144D01*
X0043179Y0110019D02*
X0043231Y0109986D01*
X0043282Y0109950D01*
X0043330Y0109911D01*
X0043375Y0109869D01*
X0043418Y0109824D01*
X0043458Y0109776D01*
X0043495Y0109727D01*
X0043529Y0109675D01*
X0043560Y0109621D01*
X0043588Y0109565D01*
X0043612Y0109508D01*
X0043632Y0109449D01*
X0043649Y0109390D01*
X0043662Y0109329D01*
X0043671Y0109268D01*
X0043677Y0109206D01*
X0043679Y0109144D01*
X0043677Y0109084D01*
X0043672Y0109023D01*
X0043663Y0108964D01*
X0043650Y0108905D01*
X0043634Y0108846D01*
X0043614Y0108789D01*
X0043591Y0108734D01*
X0043564Y0108679D01*
X0043535Y0108627D01*
X0043502Y0108576D01*
X0043466Y0108527D01*
X0043428Y0108481D01*
X0043386Y0108437D01*
X0043342Y0108395D01*
X0043296Y0108357D01*
X0043247Y0108321D01*
X0043196Y0108288D01*
X0043144Y0108259D01*
X0043089Y0108232D01*
X0043034Y0108209D01*
X0042977Y0108189D01*
X0042918Y0108173D01*
X0042859Y0108160D01*
X0042800Y0108151D01*
X0042739Y0108146D01*
X0042679Y0108144D01*
X0043179Y0110019D02*
X0041804Y0110769D01*
X0042304Y0112644D02*
X0042384Y0112642D01*
X0042465Y0112637D01*
X0042545Y0112628D01*
X0042624Y0112616D01*
X0042703Y0112601D01*
X0042781Y0112582D01*
X0042859Y0112560D01*
X0042935Y0112535D01*
X0043010Y0112506D01*
X0043084Y0112474D01*
X0043156Y0112439D01*
X0043227Y0112401D01*
X0043296Y0112360D01*
X0043364Y0112316D01*
X0043429Y0112269D01*
X0041803Y0110769D02*
X0041751Y0110802D01*
X0041700Y0110838D01*
X0041652Y0110877D01*
X0041607Y0110919D01*
X0041564Y0110964D01*
X0041524Y0111012D01*
X0041487Y0111061D01*
X0041453Y0111113D01*
X0041422Y0111167D01*
X0041394Y0111223D01*
X0041370Y0111280D01*
X0041350Y0111339D01*
X0041333Y0111398D01*
X0041320Y0111459D01*
X0041311Y0111520D01*
X0041305Y0111582D01*
X0041303Y0111644D01*
X0041304Y0111644D02*
X0041306Y0111704D01*
X0041311Y0111765D01*
X0041320Y0111824D01*
X0041333Y0111883D01*
X0041349Y0111942D01*
X0041369Y0111999D01*
X0041392Y0112054D01*
X0041419Y0112109D01*
X0041448Y0112161D01*
X0041481Y0112212D01*
X0041517Y0112261D01*
X0041555Y0112307D01*
X0041597Y0112351D01*
X0041641Y0112393D01*
X0041687Y0112431D01*
X0041736Y0112467D01*
X0041787Y0112500D01*
X0041839Y0112529D01*
X0041894Y0112556D01*
X0041949Y0112579D01*
X0042006Y0112599D01*
X0042065Y0112615D01*
X0042124Y0112628D01*
X0042183Y0112637D01*
X0042244Y0112642D01*
X0042304Y0112644D01*
X0041179Y0108768D02*
X0041242Y0108707D01*
X0041307Y0108649D01*
X0041375Y0108593D01*
X0041446Y0108540D01*
X0041518Y0108491D01*
X0041592Y0108444D01*
X0041668Y0108400D01*
X0041746Y0108360D01*
X0041826Y0108323D01*
X0041907Y0108289D01*
X0041989Y0108259D01*
X0042073Y0108232D01*
X0042158Y0108208D01*
X0042243Y0108188D01*
X0042329Y0108172D01*
X0042416Y0108159D01*
X0042504Y0108150D01*
X0042591Y0108145D01*
X0042679Y0108143D01*
X0045754Y0108144D02*
X0045754Y0112644D01*
X0047004Y0112644D01*
X0047073Y0112642D01*
X0047142Y0112636D01*
X0047210Y0112627D01*
X0047277Y0112614D01*
X0047344Y0112597D01*
X0047410Y0112576D01*
X0047474Y0112552D01*
X0047537Y0112524D01*
X0047599Y0112493D01*
X0047659Y0112459D01*
X0047716Y0112421D01*
X0047772Y0112380D01*
X0047825Y0112337D01*
X0047876Y0112290D01*
X0047924Y0112241D01*
X0047969Y0112189D01*
X0048011Y0112134D01*
X0048050Y0112078D01*
X0048087Y0112019D01*
X0048119Y0111958D01*
X0048149Y0111896D01*
X0048175Y0111832D01*
X0048197Y0111767D01*
X0048216Y0111701D01*
X0048231Y0111634D01*
X0048242Y0111566D01*
X0048250Y0111497D01*
X0048254Y0111428D01*
X0048254Y0111360D01*
X0048250Y0111291D01*
X0048242Y0111222D01*
X0048231Y0111154D01*
X0048216Y0111087D01*
X0048197Y0111021D01*
X0048175Y0110956D01*
X0048149Y0110892D01*
X0048119Y0110830D01*
X0048087Y0110769D01*
X0048050Y0110710D01*
X0048011Y0110654D01*
X0047969Y0110599D01*
X0047924Y0110547D01*
X0047876Y0110498D01*
X0047825Y0110451D01*
X0047772Y0110408D01*
X0047716Y0110367D01*
X0047659Y0110329D01*
X0047599Y0110295D01*
X0047537Y0110264D01*
X0047474Y0110236D01*
X0047410Y0110212D01*
X0047344Y0110191D01*
X0047277Y0110174D01*
X0047210Y0110161D01*
X0047142Y0110152D01*
X0047073Y0110146D01*
X0047004Y0110144D01*
X0045754Y0110144D01*
X0050029Y0108144D02*
X0052529Y0108144D01*
X0050029Y0108144D02*
X0052154Y0110644D01*
X0051404Y0112643D02*
X0051331Y0112641D01*
X0051259Y0112636D01*
X0051187Y0112627D01*
X0051115Y0112614D01*
X0051044Y0112598D01*
X0050974Y0112578D01*
X0050906Y0112554D01*
X0050838Y0112528D01*
X0050772Y0112497D01*
X0050707Y0112464D01*
X0050645Y0112427D01*
X0050584Y0112388D01*
X0050525Y0112345D01*
X0050468Y0112299D01*
X0050414Y0112251D01*
X0050363Y0112200D01*
X0050313Y0112146D01*
X0050267Y0112090D01*
X0050224Y0112032D01*
X0050183Y0111971D01*
X0050146Y0111909D01*
X0050112Y0111845D01*
X0050081Y0111779D01*
X0050053Y0111712D01*
X0050029Y0111643D01*
X0052153Y0110644D02*
X0052199Y0110690D01*
X0052243Y0110739D01*
X0052283Y0110790D01*
X0052321Y0110843D01*
X0052356Y0110898D01*
X0052388Y0110955D01*
X0052417Y0111013D01*
X0052443Y0111073D01*
X0052465Y0111135D01*
X0052484Y0111197D01*
X0052500Y0111260D01*
X0052512Y0111324D01*
X0052521Y0111389D01*
X0052526Y0111454D01*
X0052528Y0111519D01*
X0052529Y0111519D02*
X0052527Y0111584D01*
X0052521Y0111650D01*
X0052512Y0111714D01*
X0052499Y0111778D01*
X0052482Y0111842D01*
X0052461Y0111904D01*
X0052437Y0111965D01*
X0052409Y0112024D01*
X0052378Y0112082D01*
X0052344Y0112137D01*
X0052306Y0112191D01*
X0052266Y0112242D01*
X0052222Y0112291D01*
X0052176Y0112337D01*
X0052127Y0112381D01*
X0052076Y0112421D01*
X0052022Y0112459D01*
X0051967Y0112493D01*
X0051909Y0112524D01*
X0051850Y0112552D01*
X0051789Y0112576D01*
X0051727Y0112597D01*
X0051663Y0112614D01*
X0051599Y0112627D01*
X0051535Y0112636D01*
X0051469Y0112642D01*
X0051404Y0112644D01*
X0080222Y0142746D02*
X0080222Y0147246D01*
X0082222Y0147246D01*
X0082222Y0145246D02*
X0080222Y0145246D01*
X0083962Y0142746D02*
X0086462Y0142746D01*
X0083962Y0142746D02*
X0086087Y0145246D01*
X0085337Y0147246D02*
X0085264Y0147244D01*
X0085192Y0147239D01*
X0085120Y0147230D01*
X0085048Y0147217D01*
X0084977Y0147201D01*
X0084907Y0147181D01*
X0084839Y0147157D01*
X0084771Y0147131D01*
X0084705Y0147100D01*
X0084640Y0147067D01*
X0084578Y0147030D01*
X0084517Y0146991D01*
X0084458Y0146948D01*
X0084401Y0146902D01*
X0084347Y0146854D01*
X0084296Y0146803D01*
X0084246Y0146749D01*
X0084200Y0146693D01*
X0084157Y0146635D01*
X0084116Y0146574D01*
X0084079Y0146512D01*
X0084045Y0146448D01*
X0084014Y0146382D01*
X0083986Y0146315D01*
X0083962Y0146246D01*
X0086087Y0145246D02*
X0086133Y0145292D01*
X0086177Y0145341D01*
X0086217Y0145392D01*
X0086255Y0145445D01*
X0086290Y0145500D01*
X0086322Y0145557D01*
X0086351Y0145615D01*
X0086377Y0145675D01*
X0086399Y0145737D01*
X0086418Y0145799D01*
X0086434Y0145862D01*
X0086446Y0145926D01*
X0086455Y0145991D01*
X0086460Y0146056D01*
X0086462Y0146121D01*
X0086460Y0146186D01*
X0086454Y0146252D01*
X0086445Y0146316D01*
X0086432Y0146380D01*
X0086415Y0146444D01*
X0086394Y0146506D01*
X0086370Y0146567D01*
X0086342Y0146626D01*
X0086311Y0146684D01*
X0086277Y0146739D01*
X0086239Y0146793D01*
X0086199Y0146844D01*
X0086155Y0146893D01*
X0086109Y0146939D01*
X0086060Y0146983D01*
X0086009Y0147023D01*
X0085955Y0147061D01*
X0085900Y0147095D01*
X0085842Y0147126D01*
X0085783Y0147154D01*
X0085722Y0147178D01*
X0085660Y0147199D01*
X0085596Y0147216D01*
X0085532Y0147229D01*
X0085468Y0147238D01*
X0085402Y0147244D01*
X0085337Y0147246D01*
X0051475Y0075833D02*
X0051475Y0071333D01*
X0050225Y0071333D02*
X0052725Y0071333D01*
X0050225Y0074833D02*
X0051475Y0075833D01*
X0047200Y0075833D02*
X0045950Y0075833D01*
X0045950Y0071333D01*
X0045950Y0073333D02*
X0047200Y0073333D01*
X0047269Y0073335D01*
X0047338Y0073341D01*
X0047406Y0073350D01*
X0047473Y0073363D01*
X0047540Y0073380D01*
X0047606Y0073401D01*
X0047670Y0073425D01*
X0047733Y0073453D01*
X0047795Y0073484D01*
X0047855Y0073518D01*
X0047912Y0073556D01*
X0047968Y0073597D01*
X0048021Y0073640D01*
X0048072Y0073687D01*
X0048120Y0073736D01*
X0048165Y0073788D01*
X0048207Y0073843D01*
X0048246Y0073899D01*
X0048283Y0073958D01*
X0048315Y0074019D01*
X0048345Y0074081D01*
X0048371Y0074145D01*
X0048393Y0074210D01*
X0048412Y0074276D01*
X0048427Y0074343D01*
X0048438Y0074411D01*
X0048446Y0074480D01*
X0048450Y0074549D01*
X0048450Y0074617D01*
X0048446Y0074686D01*
X0048438Y0074755D01*
X0048427Y0074823D01*
X0048412Y0074890D01*
X0048393Y0074956D01*
X0048371Y0075021D01*
X0048345Y0075085D01*
X0048315Y0075147D01*
X0048283Y0075208D01*
X0048246Y0075267D01*
X0048207Y0075323D01*
X0048165Y0075378D01*
X0048120Y0075430D01*
X0048072Y0075479D01*
X0048021Y0075526D01*
X0047968Y0075569D01*
X0047912Y0075610D01*
X0047855Y0075648D01*
X0047795Y0075682D01*
X0047733Y0075713D01*
X0047670Y0075741D01*
X0047606Y0075765D01*
X0047540Y0075786D01*
X0047473Y0075803D01*
X0047406Y0075816D01*
X0047338Y0075825D01*
X0047269Y0075831D01*
X0047200Y0075833D01*
X0043375Y0073208D02*
X0042000Y0073958D01*
X0042500Y0075833D02*
X0042580Y0075831D01*
X0042661Y0075826D01*
X0042741Y0075817D01*
X0042820Y0075805D01*
X0042899Y0075790D01*
X0042977Y0075771D01*
X0043055Y0075749D01*
X0043131Y0075724D01*
X0043206Y0075695D01*
X0043280Y0075663D01*
X0043352Y0075628D01*
X0043423Y0075590D01*
X0043492Y0075549D01*
X0043560Y0075505D01*
X0043625Y0075458D01*
X0042000Y0073958D02*
X0041948Y0073991D01*
X0041897Y0074027D01*
X0041849Y0074066D01*
X0041804Y0074108D01*
X0041761Y0074153D01*
X0041721Y0074201D01*
X0041684Y0074250D01*
X0041650Y0074302D01*
X0041619Y0074356D01*
X0041591Y0074412D01*
X0041567Y0074469D01*
X0041547Y0074528D01*
X0041530Y0074587D01*
X0041517Y0074648D01*
X0041508Y0074709D01*
X0041502Y0074771D01*
X0041500Y0074833D01*
X0041502Y0074893D01*
X0041507Y0074954D01*
X0041516Y0075013D01*
X0041529Y0075072D01*
X0041545Y0075131D01*
X0041565Y0075188D01*
X0041588Y0075243D01*
X0041615Y0075298D01*
X0041644Y0075350D01*
X0041677Y0075401D01*
X0041713Y0075450D01*
X0041751Y0075496D01*
X0041793Y0075540D01*
X0041837Y0075582D01*
X0041883Y0075620D01*
X0041932Y0075656D01*
X0041983Y0075689D01*
X0042035Y0075718D01*
X0042090Y0075745D01*
X0042145Y0075768D01*
X0042202Y0075788D01*
X0042261Y0075804D01*
X0042320Y0075817D01*
X0042379Y0075826D01*
X0042440Y0075831D01*
X0042500Y0075833D01*
X0041375Y0071957D02*
X0041438Y0071896D01*
X0041503Y0071838D01*
X0041571Y0071782D01*
X0041642Y0071729D01*
X0041714Y0071680D01*
X0041788Y0071633D01*
X0041864Y0071589D01*
X0041942Y0071549D01*
X0042022Y0071512D01*
X0042103Y0071478D01*
X0042185Y0071448D01*
X0042269Y0071421D01*
X0042354Y0071397D01*
X0042439Y0071377D01*
X0042525Y0071361D01*
X0042612Y0071348D01*
X0042700Y0071339D01*
X0042787Y0071334D01*
X0042875Y0071332D01*
X0042875Y0071333D02*
X0042935Y0071335D01*
X0042996Y0071340D01*
X0043055Y0071349D01*
X0043114Y0071362D01*
X0043173Y0071378D01*
X0043230Y0071398D01*
X0043285Y0071421D01*
X0043340Y0071448D01*
X0043392Y0071477D01*
X0043443Y0071510D01*
X0043492Y0071546D01*
X0043538Y0071584D01*
X0043582Y0071626D01*
X0043624Y0071670D01*
X0043662Y0071716D01*
X0043698Y0071765D01*
X0043731Y0071816D01*
X0043760Y0071868D01*
X0043787Y0071923D01*
X0043810Y0071978D01*
X0043830Y0072035D01*
X0043846Y0072094D01*
X0043859Y0072153D01*
X0043868Y0072212D01*
X0043873Y0072273D01*
X0043875Y0072333D01*
X0043876Y0072333D02*
X0043874Y0072395D01*
X0043868Y0072457D01*
X0043859Y0072518D01*
X0043846Y0072579D01*
X0043829Y0072638D01*
X0043809Y0072697D01*
X0043785Y0072754D01*
X0043757Y0072810D01*
X0043726Y0072864D01*
X0043692Y0072916D01*
X0043655Y0072965D01*
X0043615Y0073013D01*
X0043572Y0073058D01*
X0043527Y0073100D01*
X0043479Y0073139D01*
X0043428Y0073175D01*
X0043376Y0073208D01*
X0039785Y0071333D02*
X0037785Y0071333D01*
X0037785Y0075833D01*
X0037074Y0042368D02*
X0039574Y0037868D01*
X0039574Y0042368D01*
X0041874Y0042368D02*
X0043124Y0042368D01*
X0043192Y0042366D01*
X0043259Y0042361D01*
X0043326Y0042352D01*
X0043393Y0042339D01*
X0043458Y0042322D01*
X0043523Y0042303D01*
X0043587Y0042279D01*
X0043649Y0042252D01*
X0043710Y0042222D01*
X0043768Y0042189D01*
X0043825Y0042153D01*
X0043880Y0042113D01*
X0043933Y0042071D01*
X0043984Y0042025D01*
X0044031Y0041978D01*
X0044077Y0041927D01*
X0044119Y0041874D01*
X0044159Y0041819D01*
X0044195Y0041762D01*
X0044228Y0041704D01*
X0044258Y0041643D01*
X0044285Y0041581D01*
X0044309Y0041517D01*
X0044328Y0041452D01*
X0044345Y0041387D01*
X0044358Y0041320D01*
X0044367Y0041253D01*
X0044372Y0041186D01*
X0044374Y0041118D01*
X0044374Y0039118D01*
X0044372Y0039050D01*
X0044367Y0038983D01*
X0044358Y0038916D01*
X0044345Y0038849D01*
X0044328Y0038784D01*
X0044309Y0038719D01*
X0044285Y0038655D01*
X0044258Y0038593D01*
X0044228Y0038532D01*
X0044195Y0038474D01*
X0044159Y0038417D01*
X0044119Y0038362D01*
X0044077Y0038309D01*
X0044031Y0038258D01*
X0043984Y0038211D01*
X0043933Y0038165D01*
X0043880Y0038123D01*
X0043825Y0038083D01*
X0043768Y0038047D01*
X0043710Y0038014D01*
X0043649Y0037984D01*
X0043587Y0037957D01*
X0043523Y0037933D01*
X0043458Y0037914D01*
X0043393Y0037897D01*
X0043326Y0037884D01*
X0043259Y0037875D01*
X0043192Y0037870D01*
X0043124Y0037868D01*
X0041874Y0037868D01*
X0041874Y0042368D01*
X0037074Y0042368D02*
X0037074Y0037868D01*
X0034774Y0037868D02*
X0034774Y0040368D01*
X0034024Y0040368D01*
X0032274Y0041368D02*
X0032276Y0041428D01*
X0032281Y0041489D01*
X0032290Y0041548D01*
X0032303Y0041607D01*
X0032319Y0041666D01*
X0032339Y0041723D01*
X0032362Y0041778D01*
X0032389Y0041833D01*
X0032418Y0041885D01*
X0032451Y0041936D01*
X0032487Y0041985D01*
X0032525Y0042031D01*
X0032567Y0042075D01*
X0032611Y0042117D01*
X0032657Y0042155D01*
X0032706Y0042191D01*
X0032757Y0042224D01*
X0032809Y0042253D01*
X0032864Y0042280D01*
X0032919Y0042303D01*
X0032976Y0042323D01*
X0033035Y0042339D01*
X0033094Y0042352D01*
X0033153Y0042361D01*
X0033214Y0042366D01*
X0033274Y0042368D01*
X0034774Y0042368D01*
X0032274Y0041368D02*
X0032274Y0038868D01*
X0032276Y0038808D01*
X0032281Y0038747D01*
X0032290Y0038688D01*
X0032303Y0038629D01*
X0032319Y0038570D01*
X0032339Y0038513D01*
X0032362Y0038458D01*
X0032389Y0038403D01*
X0032418Y0038351D01*
X0032451Y0038300D01*
X0032487Y0038251D01*
X0032525Y0038205D01*
X0032567Y0038161D01*
X0032611Y0038119D01*
X0032657Y0038081D01*
X0032706Y0038045D01*
X0032757Y0038012D01*
X0032809Y0037983D01*
X0032864Y0037956D01*
X0032919Y0037933D01*
X0032976Y0037913D01*
X0033035Y0037897D01*
X0033094Y0037884D01*
X0033153Y0037875D01*
X0033214Y0037870D01*
X0033274Y0037868D01*
X0034774Y0037868D01*
X0046524Y0037868D02*
X0049024Y0037868D01*
X0046524Y0037868D02*
X0048649Y0040368D01*
X0047899Y0042368D02*
X0047826Y0042366D01*
X0047754Y0042361D01*
X0047682Y0042352D01*
X0047610Y0042339D01*
X0047539Y0042323D01*
X0047469Y0042303D01*
X0047401Y0042279D01*
X0047333Y0042253D01*
X0047267Y0042222D01*
X0047202Y0042189D01*
X0047140Y0042152D01*
X0047079Y0042113D01*
X0047020Y0042070D01*
X0046963Y0042024D01*
X0046909Y0041976D01*
X0046858Y0041925D01*
X0046808Y0041871D01*
X0046762Y0041815D01*
X0046719Y0041757D01*
X0046678Y0041696D01*
X0046641Y0041634D01*
X0046607Y0041570D01*
X0046576Y0041504D01*
X0046548Y0041437D01*
X0046524Y0041368D01*
X0048648Y0040368D02*
X0048694Y0040414D01*
X0048738Y0040463D01*
X0048778Y0040514D01*
X0048816Y0040567D01*
X0048851Y0040622D01*
X0048883Y0040679D01*
X0048912Y0040737D01*
X0048938Y0040797D01*
X0048960Y0040859D01*
X0048979Y0040921D01*
X0048995Y0040984D01*
X0049007Y0041048D01*
X0049016Y0041113D01*
X0049021Y0041178D01*
X0049023Y0041243D01*
X0049024Y0041243D02*
X0049022Y0041308D01*
X0049016Y0041374D01*
X0049007Y0041438D01*
X0048994Y0041502D01*
X0048977Y0041566D01*
X0048956Y0041628D01*
X0048932Y0041689D01*
X0048904Y0041748D01*
X0048873Y0041806D01*
X0048839Y0041861D01*
X0048801Y0041915D01*
X0048761Y0041966D01*
X0048717Y0042015D01*
X0048671Y0042061D01*
X0048622Y0042105D01*
X0048571Y0042145D01*
X0048517Y0042183D01*
X0048462Y0042217D01*
X0048404Y0042248D01*
X0048345Y0042276D01*
X0048284Y0042300D01*
X0048222Y0042321D01*
X0048158Y0042338D01*
X0048094Y0042351D01*
X0048030Y0042360D01*
X0047964Y0042366D01*
X0047899Y0042368D01*
X0090813Y0061959D02*
X0090813Y0066459D01*
X0092813Y0066459D01*
X0094553Y0066459D02*
X0096053Y0066459D01*
X0096115Y0066457D01*
X0096176Y0066451D01*
X0096237Y0066442D01*
X0096297Y0066429D01*
X0096356Y0066412D01*
X0096414Y0066391D01*
X0096471Y0066367D01*
X0096526Y0066340D01*
X0096579Y0066309D01*
X0096631Y0066275D01*
X0096680Y0066238D01*
X0096727Y0066198D01*
X0096771Y0066155D01*
X0096812Y0066110D01*
X0096851Y0066062D01*
X0096887Y0066011D01*
X0096919Y0065959D01*
X0096948Y0065905D01*
X0096974Y0065849D01*
X0096996Y0065791D01*
X0097015Y0065733D01*
X0097030Y0065673D01*
X0097041Y0065612D01*
X0097049Y0065551D01*
X0097053Y0065490D01*
X0097053Y0065428D01*
X0097049Y0065367D01*
X0097041Y0065306D01*
X0097030Y0065245D01*
X0097015Y0065185D01*
X0096996Y0065127D01*
X0096974Y0065069D01*
X0096948Y0065013D01*
X0096919Y0064959D01*
X0096887Y0064907D01*
X0096851Y0064856D01*
X0096812Y0064808D01*
X0096771Y0064763D01*
X0096727Y0064720D01*
X0096680Y0064680D01*
X0096631Y0064643D01*
X0096579Y0064609D01*
X0096526Y0064578D01*
X0096471Y0064551D01*
X0096414Y0064527D01*
X0096356Y0064506D01*
X0096297Y0064489D01*
X0096237Y0064476D01*
X0096176Y0064467D01*
X0096115Y0064461D01*
X0096053Y0064459D01*
X0095053Y0064459D01*
X0095803Y0064459D02*
X0095872Y0064457D01*
X0095941Y0064451D01*
X0096009Y0064442D01*
X0096076Y0064429D01*
X0096143Y0064412D01*
X0096209Y0064391D01*
X0096273Y0064367D01*
X0096336Y0064339D01*
X0096398Y0064308D01*
X0096458Y0064274D01*
X0096515Y0064236D01*
X0096571Y0064195D01*
X0096624Y0064152D01*
X0096675Y0064105D01*
X0096723Y0064056D01*
X0096768Y0064004D01*
X0096810Y0063949D01*
X0096849Y0063893D01*
X0096886Y0063834D01*
X0096918Y0063773D01*
X0096948Y0063711D01*
X0096974Y0063647D01*
X0096996Y0063582D01*
X0097015Y0063516D01*
X0097030Y0063449D01*
X0097041Y0063381D01*
X0097049Y0063312D01*
X0097053Y0063243D01*
X0097053Y0063175D01*
X0097049Y0063106D01*
X0097041Y0063037D01*
X0097030Y0062969D01*
X0097015Y0062902D01*
X0096996Y0062836D01*
X0096974Y0062771D01*
X0096948Y0062707D01*
X0096918Y0062645D01*
X0096886Y0062584D01*
X0096849Y0062525D01*
X0096810Y0062469D01*
X0096768Y0062414D01*
X0096723Y0062362D01*
X0096675Y0062313D01*
X0096624Y0062266D01*
X0096571Y0062223D01*
X0096515Y0062182D01*
X0096458Y0062144D01*
X0096398Y0062110D01*
X0096336Y0062079D01*
X0096273Y0062051D01*
X0096209Y0062027D01*
X0096143Y0062006D01*
X0096076Y0061989D01*
X0096009Y0061976D01*
X0095941Y0061967D01*
X0095872Y0061961D01*
X0095803Y0061959D01*
X0094553Y0061959D01*
X0092813Y0064459D02*
X0090813Y0064459D01*
X0171053Y0049652D02*
X0172553Y0049652D01*
X0172615Y0049650D01*
X0172676Y0049644D01*
X0172737Y0049635D01*
X0172797Y0049622D01*
X0172856Y0049605D01*
X0172914Y0049584D01*
X0172971Y0049560D01*
X0173026Y0049533D01*
X0173079Y0049502D01*
X0173131Y0049468D01*
X0173180Y0049431D01*
X0173227Y0049391D01*
X0173271Y0049348D01*
X0173312Y0049303D01*
X0173351Y0049255D01*
X0173387Y0049204D01*
X0173419Y0049152D01*
X0173448Y0049098D01*
X0173474Y0049042D01*
X0173496Y0048984D01*
X0173515Y0048926D01*
X0173530Y0048866D01*
X0173541Y0048805D01*
X0173549Y0048744D01*
X0173553Y0048683D01*
X0173553Y0048621D01*
X0173549Y0048560D01*
X0173541Y0048499D01*
X0173530Y0048438D01*
X0173515Y0048378D01*
X0173496Y0048320D01*
X0173474Y0048262D01*
X0173448Y0048206D01*
X0173419Y0048152D01*
X0173387Y0048100D01*
X0173351Y0048049D01*
X0173312Y0048001D01*
X0173271Y0047956D01*
X0173227Y0047913D01*
X0173180Y0047873D01*
X0173131Y0047836D01*
X0173079Y0047802D01*
X0173026Y0047771D01*
X0172971Y0047744D01*
X0172914Y0047720D01*
X0172856Y0047699D01*
X0172797Y0047682D01*
X0172737Y0047669D01*
X0172676Y0047660D01*
X0172615Y0047654D01*
X0172553Y0047652D01*
X0171553Y0047652D01*
X0172303Y0047652D02*
X0172372Y0047650D01*
X0172441Y0047644D01*
X0172509Y0047635D01*
X0172576Y0047622D01*
X0172643Y0047605D01*
X0172709Y0047584D01*
X0172773Y0047560D01*
X0172836Y0047532D01*
X0172898Y0047501D01*
X0172958Y0047467D01*
X0173015Y0047429D01*
X0173071Y0047388D01*
X0173124Y0047345D01*
X0173175Y0047298D01*
X0173223Y0047249D01*
X0173268Y0047197D01*
X0173310Y0047142D01*
X0173349Y0047086D01*
X0173386Y0047027D01*
X0173418Y0046966D01*
X0173448Y0046904D01*
X0173474Y0046840D01*
X0173496Y0046775D01*
X0173515Y0046709D01*
X0173530Y0046642D01*
X0173541Y0046574D01*
X0173549Y0046505D01*
X0173553Y0046436D01*
X0173553Y0046368D01*
X0173549Y0046299D01*
X0173541Y0046230D01*
X0173530Y0046162D01*
X0173515Y0046095D01*
X0173496Y0046029D01*
X0173474Y0045964D01*
X0173448Y0045900D01*
X0173418Y0045838D01*
X0173386Y0045777D01*
X0173349Y0045718D01*
X0173310Y0045662D01*
X0173268Y0045607D01*
X0173223Y0045555D01*
X0173175Y0045506D01*
X0173124Y0045459D01*
X0173071Y0045416D01*
X0173015Y0045375D01*
X0172958Y0045337D01*
X0172898Y0045303D01*
X0172836Y0045272D01*
X0172773Y0045244D01*
X0172709Y0045220D01*
X0172643Y0045199D01*
X0172576Y0045182D01*
X0172509Y0045169D01*
X0172441Y0045160D01*
X0172372Y0045154D01*
X0172303Y0045152D01*
X0171053Y0045152D01*
X0175303Y0045152D02*
X0176803Y0049652D01*
X0178303Y0045152D01*
X0177928Y0046277D02*
X0175678Y0046277D01*
X0179853Y0044652D02*
X0181853Y0044652D01*
X0183813Y0045152D02*
X0185813Y0045152D01*
X0187403Y0045152D02*
X0188403Y0045152D01*
X0187903Y0045152D02*
X0187903Y0049652D01*
X0187403Y0049652D02*
X0188403Y0049652D01*
X0190403Y0049652D02*
X0192903Y0045152D01*
X0192903Y0049652D01*
X0195213Y0049652D02*
X0197213Y0049652D01*
X0195213Y0049652D02*
X0195213Y0045152D01*
X0197213Y0045152D01*
X0196713Y0047652D02*
X0195213Y0047652D01*
X0190403Y0049652D02*
X0190403Y0045152D01*
X0183813Y0045152D02*
X0183813Y0049652D01*
X0192058Y0075163D02*
X0194058Y0075163D01*
X0196018Y0075663D02*
X0198018Y0075663D01*
X0199608Y0075663D02*
X0200608Y0075663D01*
X0200108Y0075663D02*
X0200108Y0080163D01*
X0199608Y0080163D02*
X0200608Y0080163D01*
X0202608Y0080163D02*
X0205108Y0075663D01*
X0205108Y0080163D01*
X0207418Y0080163D02*
X0207418Y0075663D01*
X0209418Y0075663D01*
X0211158Y0075663D02*
X0213658Y0075663D01*
X0212408Y0075663D02*
X0212408Y0080163D01*
X0211158Y0079163D01*
X0209418Y0080163D02*
X0207418Y0080163D01*
X0207418Y0078163D02*
X0208918Y0078163D01*
X0202608Y0080163D02*
X0202608Y0075663D01*
X0196018Y0075663D02*
X0196018Y0080163D01*
X0190133Y0076788D02*
X0187883Y0076788D01*
X0187508Y0075663D02*
X0189008Y0080163D01*
X0190508Y0075663D01*
X0184508Y0075663D02*
X0183258Y0075663D01*
X0184508Y0075663D02*
X0184577Y0075665D01*
X0184646Y0075671D01*
X0184714Y0075680D01*
X0184781Y0075693D01*
X0184848Y0075710D01*
X0184914Y0075731D01*
X0184978Y0075755D01*
X0185041Y0075783D01*
X0185103Y0075814D01*
X0185163Y0075848D01*
X0185220Y0075886D01*
X0185276Y0075927D01*
X0185329Y0075970D01*
X0185380Y0076017D01*
X0185428Y0076066D01*
X0185473Y0076118D01*
X0185515Y0076173D01*
X0185554Y0076229D01*
X0185591Y0076288D01*
X0185623Y0076349D01*
X0185653Y0076411D01*
X0185679Y0076475D01*
X0185701Y0076540D01*
X0185720Y0076606D01*
X0185735Y0076673D01*
X0185746Y0076741D01*
X0185754Y0076810D01*
X0185758Y0076879D01*
X0185758Y0076947D01*
X0185754Y0077016D01*
X0185746Y0077085D01*
X0185735Y0077153D01*
X0185720Y0077220D01*
X0185701Y0077286D01*
X0185679Y0077351D01*
X0185653Y0077415D01*
X0185623Y0077477D01*
X0185591Y0077538D01*
X0185554Y0077597D01*
X0185515Y0077653D01*
X0185473Y0077708D01*
X0185428Y0077760D01*
X0185380Y0077809D01*
X0185329Y0077856D01*
X0185276Y0077899D01*
X0185220Y0077940D01*
X0185163Y0077978D01*
X0185103Y0078012D01*
X0185041Y0078043D01*
X0184978Y0078071D01*
X0184914Y0078095D01*
X0184848Y0078116D01*
X0184781Y0078133D01*
X0184714Y0078146D01*
X0184646Y0078155D01*
X0184577Y0078161D01*
X0184508Y0078163D01*
X0184758Y0078163D02*
X0183758Y0078163D01*
X0184758Y0078163D02*
X0184820Y0078165D01*
X0184881Y0078171D01*
X0184942Y0078180D01*
X0185002Y0078193D01*
X0185061Y0078210D01*
X0185119Y0078231D01*
X0185176Y0078255D01*
X0185231Y0078282D01*
X0185284Y0078313D01*
X0185336Y0078347D01*
X0185385Y0078384D01*
X0185432Y0078424D01*
X0185476Y0078467D01*
X0185517Y0078512D01*
X0185556Y0078560D01*
X0185592Y0078611D01*
X0185624Y0078663D01*
X0185653Y0078717D01*
X0185679Y0078773D01*
X0185701Y0078831D01*
X0185720Y0078889D01*
X0185735Y0078949D01*
X0185746Y0079010D01*
X0185754Y0079071D01*
X0185758Y0079132D01*
X0185758Y0079194D01*
X0185754Y0079255D01*
X0185746Y0079316D01*
X0185735Y0079377D01*
X0185720Y0079437D01*
X0185701Y0079495D01*
X0185679Y0079553D01*
X0185653Y0079609D01*
X0185624Y0079663D01*
X0185592Y0079715D01*
X0185556Y0079766D01*
X0185517Y0079814D01*
X0185476Y0079859D01*
X0185432Y0079902D01*
X0185385Y0079942D01*
X0185336Y0079979D01*
X0185284Y0080013D01*
X0185231Y0080044D01*
X0185176Y0080071D01*
X0185119Y0080095D01*
X0185061Y0080116D01*
X0185002Y0080133D01*
X0184942Y0080146D01*
X0184881Y0080155D01*
X0184820Y0080161D01*
X0184758Y0080163D01*
X0183258Y0080163D01*
X0187730Y0108537D02*
X0187980Y0108537D01*
X0187980Y0108787D01*
X0187730Y0108787D01*
X0187730Y0108537D01*
X0189755Y0108537D02*
X0191880Y0111037D01*
X0191130Y0113037D02*
X0191057Y0113035D01*
X0190985Y0113030D01*
X0190913Y0113021D01*
X0190841Y0113008D01*
X0190770Y0112992D01*
X0190700Y0112972D01*
X0190632Y0112948D01*
X0190564Y0112922D01*
X0190498Y0112891D01*
X0190433Y0112858D01*
X0190371Y0112821D01*
X0190310Y0112782D01*
X0190251Y0112739D01*
X0190194Y0112693D01*
X0190140Y0112645D01*
X0190089Y0112594D01*
X0190039Y0112540D01*
X0189993Y0112484D01*
X0189950Y0112426D01*
X0189909Y0112365D01*
X0189872Y0112303D01*
X0189838Y0112239D01*
X0189807Y0112173D01*
X0189779Y0112106D01*
X0189755Y0112037D01*
X0191879Y0111037D02*
X0191925Y0111083D01*
X0191969Y0111132D01*
X0192009Y0111183D01*
X0192047Y0111236D01*
X0192082Y0111291D01*
X0192114Y0111348D01*
X0192143Y0111406D01*
X0192169Y0111466D01*
X0192191Y0111528D01*
X0192210Y0111590D01*
X0192226Y0111653D01*
X0192238Y0111717D01*
X0192247Y0111782D01*
X0192252Y0111847D01*
X0192254Y0111912D01*
X0192255Y0111912D02*
X0192253Y0111977D01*
X0192247Y0112043D01*
X0192238Y0112107D01*
X0192225Y0112171D01*
X0192208Y0112235D01*
X0192187Y0112297D01*
X0192163Y0112358D01*
X0192135Y0112417D01*
X0192104Y0112475D01*
X0192070Y0112530D01*
X0192032Y0112584D01*
X0191992Y0112635D01*
X0191948Y0112684D01*
X0191902Y0112730D01*
X0191853Y0112774D01*
X0191802Y0112814D01*
X0191748Y0112852D01*
X0191693Y0112886D01*
X0191635Y0112917D01*
X0191576Y0112945D01*
X0191515Y0112969D01*
X0191453Y0112990D01*
X0191389Y0113007D01*
X0191325Y0113020D01*
X0191261Y0113029D01*
X0191195Y0113035D01*
X0191130Y0113037D01*
X0194255Y0113037D02*
X0194255Y0111037D01*
X0195755Y0111037D01*
X0195815Y0111035D01*
X0195876Y0111030D01*
X0195935Y0111021D01*
X0195994Y0111008D01*
X0196053Y0110992D01*
X0196110Y0110972D01*
X0196165Y0110949D01*
X0196220Y0110922D01*
X0196272Y0110893D01*
X0196323Y0110860D01*
X0196372Y0110824D01*
X0196418Y0110786D01*
X0196462Y0110744D01*
X0196504Y0110700D01*
X0196542Y0110654D01*
X0196578Y0110605D01*
X0196611Y0110554D01*
X0196640Y0110502D01*
X0196667Y0110447D01*
X0196690Y0110392D01*
X0196710Y0110335D01*
X0196726Y0110276D01*
X0196739Y0110217D01*
X0196748Y0110158D01*
X0196753Y0110097D01*
X0196755Y0110037D01*
X0196755Y0109537D01*
X0196753Y0109477D01*
X0196748Y0109416D01*
X0196739Y0109357D01*
X0196726Y0109298D01*
X0196710Y0109239D01*
X0196690Y0109182D01*
X0196667Y0109127D01*
X0196640Y0109072D01*
X0196611Y0109020D01*
X0196578Y0108969D01*
X0196542Y0108920D01*
X0196504Y0108874D01*
X0196462Y0108830D01*
X0196418Y0108788D01*
X0196372Y0108750D01*
X0196323Y0108714D01*
X0196272Y0108681D01*
X0196220Y0108652D01*
X0196165Y0108625D01*
X0196110Y0108602D01*
X0196053Y0108582D01*
X0195994Y0108566D01*
X0195935Y0108553D01*
X0195876Y0108544D01*
X0195815Y0108539D01*
X0195755Y0108537D01*
X0194255Y0108537D01*
X0192255Y0108537D02*
X0189755Y0108537D01*
X0185955Y0109787D02*
X0185955Y0110037D01*
X0185953Y0110097D01*
X0185948Y0110158D01*
X0185939Y0110217D01*
X0185926Y0110276D01*
X0185910Y0110335D01*
X0185890Y0110392D01*
X0185867Y0110447D01*
X0185840Y0110502D01*
X0185811Y0110554D01*
X0185778Y0110605D01*
X0185742Y0110654D01*
X0185704Y0110700D01*
X0185662Y0110744D01*
X0185618Y0110786D01*
X0185572Y0110824D01*
X0185523Y0110860D01*
X0185472Y0110893D01*
X0185420Y0110922D01*
X0185365Y0110949D01*
X0185310Y0110972D01*
X0185253Y0110992D01*
X0185194Y0111008D01*
X0185135Y0111021D01*
X0185076Y0111030D01*
X0185015Y0111035D01*
X0184955Y0111037D01*
X0183455Y0111037D01*
X0183455Y0109787D01*
X0183457Y0109718D01*
X0183463Y0109649D01*
X0183472Y0109581D01*
X0183485Y0109514D01*
X0183502Y0109447D01*
X0183523Y0109381D01*
X0183547Y0109317D01*
X0183575Y0109254D01*
X0183606Y0109192D01*
X0183640Y0109132D01*
X0183678Y0109075D01*
X0183719Y0109019D01*
X0183762Y0108966D01*
X0183809Y0108915D01*
X0183858Y0108867D01*
X0183910Y0108822D01*
X0183965Y0108780D01*
X0184021Y0108741D01*
X0184080Y0108704D01*
X0184141Y0108672D01*
X0184203Y0108642D01*
X0184267Y0108616D01*
X0184332Y0108594D01*
X0184398Y0108575D01*
X0184465Y0108560D01*
X0184533Y0108549D01*
X0184602Y0108541D01*
X0184671Y0108537D01*
X0184739Y0108537D01*
X0184808Y0108541D01*
X0184877Y0108549D01*
X0184945Y0108560D01*
X0185012Y0108575D01*
X0185078Y0108594D01*
X0185143Y0108616D01*
X0185207Y0108642D01*
X0185269Y0108672D01*
X0185330Y0108704D01*
X0185389Y0108741D01*
X0185445Y0108780D01*
X0185500Y0108822D01*
X0185552Y0108867D01*
X0185601Y0108915D01*
X0185648Y0108966D01*
X0185691Y0109019D01*
X0185732Y0109075D01*
X0185770Y0109132D01*
X0185804Y0109192D01*
X0185835Y0109254D01*
X0185863Y0109317D01*
X0185887Y0109381D01*
X0185908Y0109447D01*
X0185925Y0109514D01*
X0185938Y0109581D01*
X0185947Y0109649D01*
X0185953Y0109718D01*
X0185955Y0109787D01*
X0183455Y0111037D02*
X0183457Y0111124D01*
X0183463Y0111211D01*
X0183472Y0111298D01*
X0183485Y0111384D01*
X0183502Y0111470D01*
X0183523Y0111555D01*
X0183548Y0111638D01*
X0183576Y0111721D01*
X0183607Y0111802D01*
X0183642Y0111882D01*
X0183681Y0111960D01*
X0183723Y0112037D01*
X0183768Y0112112D01*
X0183817Y0112184D01*
X0183868Y0112255D01*
X0183923Y0112323D01*
X0183980Y0112388D01*
X0184041Y0112451D01*
X0184104Y0112512D01*
X0184169Y0112569D01*
X0184237Y0112624D01*
X0184308Y0112675D01*
X0184380Y0112724D01*
X0184455Y0112769D01*
X0184532Y0112811D01*
X0184610Y0112850D01*
X0184690Y0112885D01*
X0184771Y0112916D01*
X0184854Y0112944D01*
X0184937Y0112969D01*
X0185022Y0112990D01*
X0185108Y0113007D01*
X0185194Y0113020D01*
X0185281Y0113029D01*
X0185368Y0113035D01*
X0185455Y0113037D01*
X0194255Y0113037D02*
X0196755Y0113037D01*
X0200005Y0113037D02*
X0201505Y0108537D01*
X0201130Y0109662D02*
X0198880Y0109662D01*
X0198505Y0108537D02*
X0200005Y0113037D01*
X0203055Y0108037D02*
X0205055Y0108037D01*
X0207015Y0108537D02*
X0209015Y0108537D01*
X0210605Y0108537D02*
X0211605Y0108537D01*
X0211105Y0108537D02*
X0211105Y0113037D01*
X0210605Y0113037D02*
X0211605Y0113037D01*
X0213605Y0113037D02*
X0216105Y0108537D01*
X0216105Y0113037D01*
X0218415Y0113037D02*
X0220415Y0113037D01*
X0218415Y0113037D02*
X0218415Y0108537D01*
X0220415Y0108537D01*
X0222155Y0108537D02*
X0224655Y0108537D01*
X0223405Y0108537D02*
X0223405Y0113037D01*
X0222155Y0112037D01*
X0219915Y0111037D02*
X0218415Y0111037D01*
X0213605Y0113037D02*
X0213605Y0108537D01*
X0207015Y0108537D02*
X0207015Y0113037D01*
X0201714Y0139837D02*
X0199714Y0139837D01*
X0199714Y0144337D01*
X0201714Y0144337D01*
X0201214Y0142337D02*
X0199714Y0142337D01*
X0197404Y0144337D02*
X0197404Y0139837D01*
X0194904Y0144337D01*
X0194904Y0139837D01*
X0192904Y0139837D02*
X0191904Y0139837D01*
X0192404Y0139837D02*
X0192404Y0144337D01*
X0191904Y0144337D02*
X0192904Y0144337D01*
X0188314Y0144337D02*
X0188314Y0139837D01*
X0190314Y0139837D01*
X0186354Y0139337D02*
X0184354Y0139337D01*
X0182804Y0139837D02*
X0181304Y0144337D01*
X0179804Y0139837D01*
X0180179Y0140962D02*
X0182429Y0140962D01*
X0178054Y0140837D02*
X0178054Y0141337D01*
X0178052Y0141397D01*
X0178047Y0141458D01*
X0178038Y0141517D01*
X0178025Y0141576D01*
X0178009Y0141635D01*
X0177989Y0141692D01*
X0177966Y0141747D01*
X0177939Y0141802D01*
X0177910Y0141854D01*
X0177877Y0141905D01*
X0177841Y0141954D01*
X0177803Y0142000D01*
X0177761Y0142044D01*
X0177717Y0142086D01*
X0177671Y0142124D01*
X0177622Y0142160D01*
X0177571Y0142193D01*
X0177519Y0142222D01*
X0177464Y0142249D01*
X0177409Y0142272D01*
X0177352Y0142292D01*
X0177293Y0142308D01*
X0177234Y0142321D01*
X0177175Y0142330D01*
X0177114Y0142335D01*
X0177054Y0142337D01*
X0175554Y0142337D01*
X0175554Y0144337D01*
X0178054Y0144337D01*
X0173179Y0142337D02*
X0171054Y0139837D01*
X0173554Y0139837D01*
X0175554Y0139837D02*
X0177054Y0139837D01*
X0177114Y0139839D01*
X0177175Y0139844D01*
X0177234Y0139853D01*
X0177293Y0139866D01*
X0177352Y0139882D01*
X0177409Y0139902D01*
X0177464Y0139925D01*
X0177519Y0139952D01*
X0177571Y0139981D01*
X0177622Y0140014D01*
X0177671Y0140050D01*
X0177717Y0140088D01*
X0177761Y0140130D01*
X0177803Y0140174D01*
X0177841Y0140220D01*
X0177877Y0140269D01*
X0177910Y0140320D01*
X0177939Y0140372D01*
X0177966Y0140427D01*
X0177989Y0140482D01*
X0178009Y0140539D01*
X0178025Y0140598D01*
X0178038Y0140657D01*
X0178047Y0140716D01*
X0178052Y0140777D01*
X0178054Y0140837D01*
X0172429Y0144336D02*
X0172356Y0144334D01*
X0172284Y0144329D01*
X0172212Y0144320D01*
X0172140Y0144307D01*
X0172069Y0144291D01*
X0171999Y0144271D01*
X0171931Y0144247D01*
X0171863Y0144221D01*
X0171797Y0144190D01*
X0171732Y0144157D01*
X0171670Y0144120D01*
X0171609Y0144081D01*
X0171550Y0144038D01*
X0171493Y0143992D01*
X0171439Y0143944D01*
X0171388Y0143893D01*
X0171338Y0143839D01*
X0171292Y0143783D01*
X0171249Y0143725D01*
X0171208Y0143664D01*
X0171171Y0143602D01*
X0171137Y0143538D01*
X0171106Y0143472D01*
X0171078Y0143405D01*
X0171054Y0143336D01*
X0173179Y0142337D02*
X0173225Y0142383D01*
X0173269Y0142432D01*
X0173309Y0142483D01*
X0173347Y0142536D01*
X0173382Y0142591D01*
X0173414Y0142648D01*
X0173443Y0142706D01*
X0173469Y0142766D01*
X0173491Y0142828D01*
X0173510Y0142890D01*
X0173526Y0142953D01*
X0173538Y0143017D01*
X0173547Y0143082D01*
X0173552Y0143147D01*
X0173554Y0143212D01*
X0173552Y0143277D01*
X0173546Y0143343D01*
X0173537Y0143407D01*
X0173524Y0143471D01*
X0173507Y0143535D01*
X0173486Y0143597D01*
X0173462Y0143658D01*
X0173434Y0143717D01*
X0173403Y0143775D01*
X0173369Y0143830D01*
X0173331Y0143884D01*
X0173291Y0143935D01*
X0173247Y0143984D01*
X0173201Y0144030D01*
X0173152Y0144074D01*
X0173101Y0144114D01*
X0173047Y0144152D01*
X0172992Y0144186D01*
X0172934Y0144217D01*
X0172875Y0144245D01*
X0172814Y0144269D01*
X0172752Y0144290D01*
X0172688Y0144307D01*
X0172624Y0144320D01*
X0172560Y0144329D01*
X0172494Y0144335D01*
X0172429Y0144337D01*
X0169279Y0140087D02*
X0169279Y0139837D01*
X0169029Y0139837D01*
X0169029Y0140087D01*
X0169279Y0140087D01*
X0167254Y0141087D02*
X0167254Y0141337D01*
X0167252Y0141397D01*
X0167247Y0141458D01*
X0167238Y0141517D01*
X0167225Y0141576D01*
X0167209Y0141635D01*
X0167189Y0141692D01*
X0167166Y0141747D01*
X0167139Y0141802D01*
X0167110Y0141854D01*
X0167077Y0141905D01*
X0167041Y0141954D01*
X0167003Y0142000D01*
X0166961Y0142044D01*
X0166917Y0142086D01*
X0166871Y0142124D01*
X0166822Y0142160D01*
X0166771Y0142193D01*
X0166719Y0142222D01*
X0166664Y0142249D01*
X0166609Y0142272D01*
X0166552Y0142292D01*
X0166493Y0142308D01*
X0166434Y0142321D01*
X0166375Y0142330D01*
X0166314Y0142335D01*
X0166254Y0142337D01*
X0164754Y0142337D01*
X0164754Y0141087D01*
X0164756Y0141018D01*
X0164762Y0140949D01*
X0164771Y0140881D01*
X0164784Y0140814D01*
X0164801Y0140747D01*
X0164822Y0140681D01*
X0164846Y0140617D01*
X0164874Y0140554D01*
X0164905Y0140492D01*
X0164939Y0140432D01*
X0164977Y0140375D01*
X0165018Y0140319D01*
X0165061Y0140266D01*
X0165108Y0140215D01*
X0165157Y0140167D01*
X0165209Y0140122D01*
X0165264Y0140080D01*
X0165320Y0140041D01*
X0165379Y0140004D01*
X0165440Y0139972D01*
X0165502Y0139942D01*
X0165566Y0139916D01*
X0165631Y0139894D01*
X0165697Y0139875D01*
X0165764Y0139860D01*
X0165832Y0139849D01*
X0165901Y0139841D01*
X0165970Y0139837D01*
X0166038Y0139837D01*
X0166107Y0139841D01*
X0166176Y0139849D01*
X0166244Y0139860D01*
X0166311Y0139875D01*
X0166377Y0139894D01*
X0166442Y0139916D01*
X0166506Y0139942D01*
X0166568Y0139972D01*
X0166629Y0140004D01*
X0166688Y0140041D01*
X0166744Y0140080D01*
X0166799Y0140122D01*
X0166851Y0140167D01*
X0166900Y0140215D01*
X0166947Y0140266D01*
X0166990Y0140319D01*
X0167031Y0140375D01*
X0167069Y0140432D01*
X0167103Y0140492D01*
X0167134Y0140554D01*
X0167162Y0140617D01*
X0167186Y0140681D01*
X0167207Y0140747D01*
X0167224Y0140814D01*
X0167237Y0140881D01*
X0167246Y0140949D01*
X0167252Y0141018D01*
X0167254Y0141087D01*
X0164754Y0142337D02*
X0164756Y0142424D01*
X0164762Y0142511D01*
X0164771Y0142598D01*
X0164784Y0142684D01*
X0164801Y0142770D01*
X0164822Y0142855D01*
X0164847Y0142938D01*
X0164875Y0143021D01*
X0164906Y0143102D01*
X0164941Y0143182D01*
X0164980Y0143260D01*
X0165022Y0143337D01*
X0165067Y0143412D01*
X0165116Y0143484D01*
X0165167Y0143555D01*
X0165222Y0143623D01*
X0165279Y0143688D01*
X0165340Y0143751D01*
X0165403Y0143812D01*
X0165468Y0143869D01*
X0165536Y0143924D01*
X0165607Y0143975D01*
X0165679Y0144024D01*
X0165754Y0144069D01*
X0165831Y0144111D01*
X0165909Y0144150D01*
X0165989Y0144185D01*
X0166070Y0144216D01*
X0166153Y0144244D01*
X0166236Y0144269D01*
X0166321Y0144290D01*
X0166407Y0144307D01*
X0166493Y0144320D01*
X0166580Y0144329D01*
X0166667Y0144335D01*
X0166754Y0144337D01*
X0168494Y0173104D02*
X0170994Y0173104D01*
X0172994Y0173104D02*
X0174494Y0173104D01*
X0174554Y0173106D01*
X0174615Y0173111D01*
X0174674Y0173120D01*
X0174733Y0173133D01*
X0174792Y0173149D01*
X0174849Y0173169D01*
X0174904Y0173192D01*
X0174959Y0173219D01*
X0175011Y0173248D01*
X0175062Y0173281D01*
X0175111Y0173317D01*
X0175157Y0173355D01*
X0175201Y0173397D01*
X0175243Y0173441D01*
X0175281Y0173487D01*
X0175317Y0173536D01*
X0175350Y0173587D01*
X0175379Y0173639D01*
X0175406Y0173694D01*
X0175429Y0173749D01*
X0175449Y0173806D01*
X0175465Y0173865D01*
X0175478Y0173924D01*
X0175487Y0173983D01*
X0175492Y0174044D01*
X0175494Y0174104D01*
X0175494Y0174604D01*
X0175492Y0174664D01*
X0175487Y0174725D01*
X0175478Y0174784D01*
X0175465Y0174843D01*
X0175449Y0174902D01*
X0175429Y0174959D01*
X0175406Y0175014D01*
X0175379Y0175069D01*
X0175350Y0175121D01*
X0175317Y0175172D01*
X0175281Y0175221D01*
X0175243Y0175267D01*
X0175201Y0175311D01*
X0175157Y0175353D01*
X0175111Y0175391D01*
X0175062Y0175427D01*
X0175011Y0175460D01*
X0174959Y0175489D01*
X0174904Y0175516D01*
X0174849Y0175539D01*
X0174792Y0175559D01*
X0174733Y0175575D01*
X0174674Y0175588D01*
X0174615Y0175597D01*
X0174554Y0175602D01*
X0174494Y0175604D01*
X0172994Y0175604D01*
X0172994Y0177604D01*
X0175494Y0177604D01*
X0177619Y0174229D02*
X0179869Y0174229D01*
X0180244Y0173104D02*
X0178744Y0177604D01*
X0177244Y0173104D01*
X0181794Y0172604D02*
X0183794Y0172604D01*
X0185754Y0173104D02*
X0187754Y0173104D01*
X0189344Y0173104D02*
X0190344Y0173104D01*
X0189844Y0173104D02*
X0189844Y0177604D01*
X0189344Y0177604D02*
X0190344Y0177604D01*
X0192344Y0177604D02*
X0194844Y0173104D01*
X0194844Y0177604D01*
X0197154Y0177604D02*
X0199154Y0177604D01*
X0197154Y0177604D02*
X0197154Y0173104D01*
X0199154Y0173104D01*
X0198654Y0175604D02*
X0197154Y0175604D01*
X0192344Y0177604D02*
X0192344Y0173104D01*
X0185754Y0173104D02*
X0185754Y0177604D01*
X0170619Y0175604D02*
X0168494Y0173104D01*
X0168494Y0176604D02*
X0168518Y0176673D01*
X0168546Y0176740D01*
X0168577Y0176806D01*
X0168611Y0176870D01*
X0168648Y0176932D01*
X0168689Y0176993D01*
X0168732Y0177051D01*
X0168778Y0177107D01*
X0168828Y0177161D01*
X0168879Y0177212D01*
X0168933Y0177260D01*
X0168990Y0177306D01*
X0169049Y0177349D01*
X0169110Y0177388D01*
X0169172Y0177425D01*
X0169237Y0177458D01*
X0169303Y0177489D01*
X0169371Y0177515D01*
X0169439Y0177539D01*
X0169509Y0177559D01*
X0169580Y0177575D01*
X0169652Y0177588D01*
X0169724Y0177597D01*
X0169796Y0177602D01*
X0169869Y0177604D01*
X0169934Y0177602D01*
X0170000Y0177596D01*
X0170064Y0177587D01*
X0170128Y0177574D01*
X0170192Y0177557D01*
X0170254Y0177536D01*
X0170315Y0177512D01*
X0170374Y0177484D01*
X0170432Y0177453D01*
X0170487Y0177419D01*
X0170541Y0177381D01*
X0170592Y0177341D01*
X0170641Y0177297D01*
X0170687Y0177251D01*
X0170731Y0177202D01*
X0170771Y0177151D01*
X0170809Y0177097D01*
X0170843Y0177042D01*
X0170874Y0176984D01*
X0170902Y0176925D01*
X0170926Y0176864D01*
X0170947Y0176802D01*
X0170964Y0176738D01*
X0170977Y0176674D01*
X0170986Y0176610D01*
X0170992Y0176544D01*
X0170994Y0176479D01*
X0170992Y0176414D01*
X0170987Y0176349D01*
X0170978Y0176284D01*
X0170966Y0176220D01*
X0170950Y0176157D01*
X0170931Y0176095D01*
X0170909Y0176033D01*
X0170883Y0175973D01*
X0170854Y0175915D01*
X0170822Y0175858D01*
X0170787Y0175803D01*
X0170749Y0175750D01*
X0170709Y0175699D01*
X0170665Y0175650D01*
X0170619Y0175604D01*
X0196361Y0209415D02*
X0198361Y0209415D01*
X0200321Y0209915D02*
X0202321Y0209915D01*
X0203911Y0209915D02*
X0204911Y0209915D01*
X0204411Y0209915D02*
X0204411Y0214415D01*
X0203911Y0214415D02*
X0204911Y0214415D01*
X0206911Y0214415D02*
X0206911Y0209915D01*
X0209411Y0209915D02*
X0206911Y0214415D01*
X0209411Y0214415D02*
X0209411Y0209915D01*
X0211721Y0209915D02*
X0211721Y0214415D01*
X0213721Y0214415D01*
X0215461Y0213415D02*
X0216711Y0214415D01*
X0216711Y0209915D01*
X0215461Y0209915D02*
X0217961Y0209915D01*
X0213721Y0209915D02*
X0211721Y0209915D01*
X0211721Y0212415D02*
X0213221Y0212415D01*
X0200321Y0214415D02*
X0200321Y0209915D01*
X0194811Y0209915D02*
X0193311Y0214415D01*
X0191811Y0209915D01*
X0192186Y0211040D02*
X0194436Y0211040D01*
X0190061Y0210915D02*
X0190061Y0211415D01*
X0190059Y0211475D01*
X0190054Y0211536D01*
X0190045Y0211595D01*
X0190032Y0211654D01*
X0190016Y0211713D01*
X0189996Y0211770D01*
X0189973Y0211825D01*
X0189946Y0211880D01*
X0189917Y0211932D01*
X0189884Y0211983D01*
X0189848Y0212032D01*
X0189810Y0212078D01*
X0189768Y0212122D01*
X0189724Y0212164D01*
X0189678Y0212202D01*
X0189629Y0212238D01*
X0189578Y0212271D01*
X0189526Y0212300D01*
X0189471Y0212327D01*
X0189416Y0212350D01*
X0189359Y0212370D01*
X0189300Y0212386D01*
X0189241Y0212399D01*
X0189182Y0212408D01*
X0189121Y0212413D01*
X0189061Y0212415D01*
X0187561Y0212415D01*
X0187561Y0214415D01*
X0190061Y0214415D01*
X0190061Y0210915D02*
X0190059Y0210855D01*
X0190054Y0210794D01*
X0190045Y0210735D01*
X0190032Y0210676D01*
X0190016Y0210617D01*
X0189996Y0210560D01*
X0189973Y0210505D01*
X0189946Y0210450D01*
X0189917Y0210398D01*
X0189884Y0210347D01*
X0189848Y0210298D01*
X0189810Y0210252D01*
X0189768Y0210208D01*
X0189724Y0210166D01*
X0189678Y0210128D01*
X0189629Y0210092D01*
X0189578Y0210059D01*
X0189526Y0210030D01*
X0189471Y0210003D01*
X0189416Y0209980D01*
X0189359Y0209960D01*
X0189300Y0209944D01*
X0189241Y0209931D01*
X0189182Y0209922D01*
X0189121Y0209917D01*
X0189061Y0209915D01*
X0187561Y0209915D01*
X0185561Y0209915D02*
X0183061Y0209915D01*
X0185186Y0212415D01*
X0184436Y0214415D02*
X0184363Y0214413D01*
X0184291Y0214408D01*
X0184219Y0214399D01*
X0184147Y0214386D01*
X0184076Y0214370D01*
X0184006Y0214350D01*
X0183938Y0214326D01*
X0183870Y0214300D01*
X0183804Y0214269D01*
X0183739Y0214236D01*
X0183677Y0214199D01*
X0183616Y0214160D01*
X0183557Y0214117D01*
X0183500Y0214071D01*
X0183446Y0214023D01*
X0183395Y0213972D01*
X0183345Y0213918D01*
X0183299Y0213862D01*
X0183256Y0213804D01*
X0183215Y0213743D01*
X0183178Y0213681D01*
X0183144Y0213617D01*
X0183113Y0213551D01*
X0183085Y0213484D01*
X0183061Y0213415D01*
X0185186Y0212415D02*
X0185232Y0212461D01*
X0185276Y0212510D01*
X0185316Y0212561D01*
X0185354Y0212614D01*
X0185389Y0212669D01*
X0185421Y0212726D01*
X0185450Y0212784D01*
X0185476Y0212844D01*
X0185498Y0212906D01*
X0185517Y0212968D01*
X0185533Y0213031D01*
X0185545Y0213095D01*
X0185554Y0213160D01*
X0185559Y0213225D01*
X0185561Y0213290D01*
X0185559Y0213355D01*
X0185553Y0213421D01*
X0185544Y0213485D01*
X0185531Y0213549D01*
X0185514Y0213613D01*
X0185493Y0213675D01*
X0185469Y0213736D01*
X0185441Y0213795D01*
X0185410Y0213853D01*
X0185376Y0213908D01*
X0185338Y0213962D01*
X0185298Y0214013D01*
X0185254Y0214062D01*
X0185208Y0214108D01*
X0185159Y0214152D01*
X0185108Y0214192D01*
X0185054Y0214230D01*
X0184999Y0214264D01*
X0184941Y0214295D01*
X0184882Y0214323D01*
X0184821Y0214347D01*
X0184759Y0214368D01*
X0184695Y0214385D01*
X0184631Y0214398D01*
X0184567Y0214407D01*
X0184501Y0214413D01*
X0184436Y0214415D01*
X0228238Y0188372D02*
X0228240Y0188437D01*
X0228246Y0188503D01*
X0228255Y0188567D01*
X0228268Y0188631D01*
X0228285Y0188695D01*
X0228306Y0188757D01*
X0228330Y0188818D01*
X0228358Y0188877D01*
X0228389Y0188935D01*
X0228423Y0188990D01*
X0228461Y0189044D01*
X0228501Y0189095D01*
X0228545Y0189144D01*
X0228591Y0189190D01*
X0228640Y0189234D01*
X0228691Y0189274D01*
X0228745Y0189312D01*
X0228801Y0189346D01*
X0228858Y0189377D01*
X0228917Y0189405D01*
X0228978Y0189429D01*
X0229040Y0189450D01*
X0229104Y0189467D01*
X0229168Y0189480D01*
X0229232Y0189489D01*
X0229298Y0189495D01*
X0229363Y0189497D01*
X0230238Y0189122D02*
X0232738Y0186997D01*
X0232738Y0189497D01*
X0229239Y0186997D02*
X0229170Y0187021D01*
X0229103Y0187049D01*
X0229037Y0187080D01*
X0228973Y0187114D01*
X0228911Y0187151D01*
X0228850Y0187192D01*
X0228792Y0187235D01*
X0228736Y0187281D01*
X0228682Y0187331D01*
X0228631Y0187382D01*
X0228583Y0187436D01*
X0228537Y0187493D01*
X0228494Y0187552D01*
X0228455Y0187613D01*
X0228418Y0187675D01*
X0228385Y0187740D01*
X0228354Y0187806D01*
X0228328Y0187874D01*
X0228304Y0187942D01*
X0228284Y0188012D01*
X0228268Y0188083D01*
X0228255Y0188155D01*
X0228246Y0188227D01*
X0228241Y0188299D01*
X0228239Y0188372D01*
X0229363Y0189497D02*
X0229428Y0189495D01*
X0229493Y0189490D01*
X0229558Y0189481D01*
X0229622Y0189469D01*
X0229685Y0189453D01*
X0229747Y0189434D01*
X0229809Y0189412D01*
X0229869Y0189386D01*
X0229927Y0189357D01*
X0229984Y0189325D01*
X0230039Y0189290D01*
X0230092Y0189252D01*
X0230143Y0189212D01*
X0230192Y0189168D01*
X0230238Y0189122D01*
X0229488Y0184697D02*
X0231363Y0184697D01*
X0231412Y0184695D01*
X0231461Y0184689D01*
X0231509Y0184680D01*
X0231556Y0184666D01*
X0231602Y0184649D01*
X0231647Y0184629D01*
X0231690Y0184605D01*
X0231730Y0184578D01*
X0231769Y0184547D01*
X0231805Y0184514D01*
X0231838Y0184478D01*
X0231869Y0184439D01*
X0231896Y0184399D01*
X0231920Y0184356D01*
X0231940Y0184311D01*
X0231957Y0184265D01*
X0231971Y0184218D01*
X0231980Y0184170D01*
X0231986Y0184121D01*
X0231988Y0184072D01*
X0231986Y0184023D01*
X0231980Y0183974D01*
X0231971Y0183926D01*
X0231957Y0183879D01*
X0231940Y0183833D01*
X0231920Y0183788D01*
X0231896Y0183745D01*
X0231869Y0183705D01*
X0231838Y0183666D01*
X0231805Y0183630D01*
X0231769Y0183597D01*
X0231730Y0183566D01*
X0231690Y0183539D01*
X0231647Y0183515D01*
X0231602Y0183495D01*
X0231556Y0183478D01*
X0231509Y0183464D01*
X0231461Y0183455D01*
X0231412Y0183449D01*
X0231363Y0183447D01*
X0228988Y0183447D01*
X0228988Y0182697D01*
X0229488Y0184697D02*
X0229400Y0184695D01*
X0229311Y0184689D01*
X0229223Y0184679D01*
X0229136Y0184666D01*
X0229049Y0184648D01*
X0228963Y0184627D01*
X0228878Y0184602D01*
X0228795Y0184573D01*
X0228712Y0184540D01*
X0228632Y0184504D01*
X0228553Y0184465D01*
X0228475Y0184422D01*
X0228400Y0184375D01*
X0228327Y0184325D01*
X0228256Y0184272D01*
X0228187Y0184216D01*
X0228121Y0184157D01*
X0228058Y0184095D01*
X0227998Y0184031D01*
X0227940Y0183964D01*
X0227886Y0183894D01*
X0227834Y0183822D01*
X0227786Y0183748D01*
X0227741Y0183671D01*
X0227700Y0183593D01*
X0227662Y0183513D01*
X0227628Y0183432D01*
X0227597Y0183349D01*
X0227570Y0183264D01*
X0227547Y0183179D01*
X0227528Y0183093D01*
X0227512Y0183005D01*
X0227500Y0182918D01*
X0227492Y0182830D01*
X0227488Y0182741D01*
X0227488Y0182653D01*
X0227492Y0182564D01*
X0227500Y0182476D01*
X0227512Y0182389D01*
X0227528Y0182301D01*
X0227547Y0182215D01*
X0227570Y0182130D01*
X0227597Y0182045D01*
X0227628Y0181962D01*
X0227662Y0181881D01*
X0227700Y0181801D01*
X0227741Y0181723D01*
X0227786Y0181646D01*
X0227834Y0181572D01*
X0227886Y0181500D01*
X0227940Y0181430D01*
X0227998Y0181363D01*
X0228058Y0181299D01*
X0228121Y0181237D01*
X0228187Y0181178D01*
X0228256Y0181122D01*
X0228327Y0181069D01*
X0228400Y0181019D01*
X0228475Y0180972D01*
X0228553Y0180929D01*
X0228632Y0180890D01*
X0228712Y0180854D01*
X0228795Y0180821D01*
X0228878Y0180792D01*
X0228963Y0180767D01*
X0229049Y0180746D01*
X0229136Y0180728D01*
X0229223Y0180715D01*
X0229311Y0180705D01*
X0229400Y0180699D01*
X0229488Y0180697D01*
X0231613Y0180697D01*
X0231238Y0181947D02*
X0229738Y0181947D01*
X0229684Y0181949D01*
X0229631Y0181955D01*
X0229579Y0181964D01*
X0229527Y0181977D01*
X0229476Y0181994D01*
X0229426Y0182015D01*
X0229379Y0182039D01*
X0229333Y0182066D01*
X0229289Y0182097D01*
X0229247Y0182130D01*
X0229208Y0182167D01*
X0229171Y0182206D01*
X0229138Y0182248D01*
X0229107Y0182292D01*
X0229080Y0182338D01*
X0229056Y0182385D01*
X0229035Y0182435D01*
X0229018Y0182486D01*
X0229005Y0182538D01*
X0228996Y0182590D01*
X0228990Y0182643D01*
X0228988Y0182697D01*
X0231238Y0181947D02*
X0231292Y0181949D01*
X0231345Y0181955D01*
X0231397Y0181964D01*
X0231449Y0181977D01*
X0231500Y0181994D01*
X0231550Y0182015D01*
X0231597Y0182039D01*
X0231643Y0182066D01*
X0231687Y0182097D01*
X0231729Y0182130D01*
X0231768Y0182167D01*
X0231805Y0182206D01*
X0231838Y0182248D01*
X0231869Y0182292D01*
X0231896Y0182338D01*
X0231920Y0182385D01*
X0231941Y0182435D01*
X0231958Y0182486D01*
X0231971Y0182538D01*
X0231980Y0182590D01*
X0231986Y0182643D01*
X0231988Y0182697D01*
X0231986Y0182751D01*
X0231980Y0182804D01*
X0231971Y0182856D01*
X0231958Y0182908D01*
X0231941Y0182959D01*
X0231920Y0183009D01*
X0231896Y0183056D01*
X0231869Y0183102D01*
X0231838Y0183146D01*
X0231805Y0183188D01*
X0231768Y0183227D01*
X0231729Y0183264D01*
X0231687Y0183297D01*
X0231643Y0183328D01*
X0231597Y0183355D01*
X0231550Y0183379D01*
X0231500Y0183400D01*
X0231449Y0183417D01*
X0231397Y0183430D01*
X0231345Y0183439D01*
X0231292Y0183445D01*
X0231238Y0183447D01*
X0233488Y0182448D02*
X0233480Y0182362D01*
X0233468Y0182278D01*
X0233452Y0182194D01*
X0233433Y0182110D01*
X0233410Y0182028D01*
X0233383Y0181947D01*
X0233353Y0181867D01*
X0233319Y0181789D01*
X0233281Y0181712D01*
X0233240Y0181637D01*
X0233195Y0181564D01*
X0233148Y0181493D01*
X0233097Y0181424D01*
X0233043Y0181358D01*
X0232986Y0181294D01*
X0232926Y0181233D01*
X0232863Y0181175D01*
X0232798Y0181119D01*
X0232731Y0181067D01*
X0232661Y0181017D01*
X0232589Y0180971D01*
X0232515Y0180929D01*
X0232439Y0180889D01*
X0232361Y0180853D01*
X0232282Y0180821D01*
X0232202Y0180793D01*
X0232120Y0180768D01*
X0232037Y0180746D01*
X0231953Y0180729D01*
X0231869Y0180715D01*
X0231784Y0180706D01*
X0231698Y0180700D01*
X0231613Y0180698D01*
X0232738Y0178622D02*
X0229988Y0177122D01*
X0230988Y0176122D02*
X0228238Y0178622D01*
X0228238Y0176122D02*
X0232738Y0176122D01*
X0232738Y0173747D02*
X0228238Y0173747D01*
X0228238Y0171247D02*
X0232738Y0173747D01*
X0232738Y0171247D02*
X0228238Y0171247D01*
X0228238Y0167847D02*
X0232738Y0169347D01*
X0231613Y0168972D02*
X0231613Y0166722D01*
X0232738Y0166347D02*
X0228238Y0167847D01*
X0228238Y0163572D02*
X0228238Y0162322D01*
X0232738Y0162322D01*
X0232738Y0163572D01*
X0232736Y0163641D01*
X0232730Y0163710D01*
X0232721Y0163778D01*
X0232708Y0163845D01*
X0232691Y0163912D01*
X0232670Y0163978D01*
X0232646Y0164042D01*
X0232618Y0164105D01*
X0232587Y0164167D01*
X0232553Y0164227D01*
X0232515Y0164284D01*
X0232474Y0164340D01*
X0232431Y0164393D01*
X0232384Y0164444D01*
X0232335Y0164492D01*
X0232283Y0164537D01*
X0232228Y0164579D01*
X0232172Y0164618D01*
X0232113Y0164655D01*
X0232052Y0164687D01*
X0231990Y0164717D01*
X0231926Y0164743D01*
X0231861Y0164765D01*
X0231795Y0164784D01*
X0231728Y0164799D01*
X0231660Y0164810D01*
X0231591Y0164818D01*
X0231522Y0164822D01*
X0231454Y0164822D01*
X0231385Y0164818D01*
X0231316Y0164810D01*
X0231248Y0164799D01*
X0231181Y0164784D01*
X0231115Y0164765D01*
X0231050Y0164743D01*
X0230986Y0164717D01*
X0230924Y0164687D01*
X0230863Y0164655D01*
X0230804Y0164618D01*
X0230748Y0164579D01*
X0230693Y0164537D01*
X0230641Y0164492D01*
X0230592Y0164444D01*
X0230545Y0164393D01*
X0230502Y0164340D01*
X0230461Y0164284D01*
X0230423Y0164227D01*
X0230389Y0164167D01*
X0230358Y0164105D01*
X0230330Y0164042D01*
X0230306Y0163978D01*
X0230285Y0163912D01*
X0230268Y0163845D01*
X0230255Y0163778D01*
X0230246Y0163710D01*
X0230240Y0163641D01*
X0230238Y0163572D01*
X0230238Y0162322D01*
X0230238Y0163572D02*
X0230236Y0163634D01*
X0230230Y0163695D01*
X0230221Y0163756D01*
X0230208Y0163816D01*
X0230191Y0163875D01*
X0230170Y0163933D01*
X0230146Y0163990D01*
X0230119Y0164045D01*
X0230088Y0164098D01*
X0230054Y0164150D01*
X0230017Y0164199D01*
X0229977Y0164246D01*
X0229934Y0164290D01*
X0229889Y0164331D01*
X0229841Y0164370D01*
X0229790Y0164406D01*
X0229738Y0164438D01*
X0229684Y0164467D01*
X0229628Y0164493D01*
X0229570Y0164515D01*
X0229512Y0164534D01*
X0229452Y0164549D01*
X0229391Y0164560D01*
X0229330Y0164568D01*
X0229269Y0164572D01*
X0229207Y0164572D01*
X0229146Y0164568D01*
X0229085Y0164560D01*
X0229024Y0164549D01*
X0228964Y0164534D01*
X0228906Y0164515D01*
X0228848Y0164493D01*
X0228792Y0164467D01*
X0228738Y0164438D01*
X0228686Y0164406D01*
X0228635Y0164370D01*
X0228587Y0164331D01*
X0228542Y0164290D01*
X0228499Y0164246D01*
X0228459Y0164199D01*
X0228422Y0164150D01*
X0228388Y0164098D01*
X0228357Y0164045D01*
X0228330Y0163990D01*
X0228306Y0163933D01*
X0228285Y0163875D01*
X0228268Y0163816D01*
X0228255Y0163756D01*
X0228246Y0163695D01*
X0228240Y0163634D01*
X0228238Y0163572D01*
X0233238Y0160297D02*
X0233238Y0158297D01*
X0232738Y0156347D02*
X0228238Y0156347D01*
X0228238Y0153847D02*
X0232738Y0156347D01*
X0232738Y0153847D02*
X0228238Y0153847D01*
X0228238Y0151847D02*
X0228238Y0150847D01*
X0228238Y0151347D02*
X0232738Y0151347D01*
X0232738Y0150847D02*
X0232738Y0151847D01*
X0230738Y0147972D02*
X0230738Y0146722D01*
X0230738Y0147972D02*
X0230736Y0148041D01*
X0230730Y0148110D01*
X0230721Y0148178D01*
X0230708Y0148245D01*
X0230691Y0148312D01*
X0230670Y0148378D01*
X0230646Y0148442D01*
X0230618Y0148505D01*
X0230587Y0148567D01*
X0230553Y0148627D01*
X0230515Y0148684D01*
X0230474Y0148740D01*
X0230431Y0148793D01*
X0230384Y0148844D01*
X0230335Y0148892D01*
X0230283Y0148937D01*
X0230228Y0148979D01*
X0230172Y0149018D01*
X0230113Y0149055D01*
X0230052Y0149087D01*
X0229990Y0149117D01*
X0229926Y0149143D01*
X0229861Y0149165D01*
X0229795Y0149184D01*
X0229728Y0149199D01*
X0229660Y0149210D01*
X0229591Y0149218D01*
X0229522Y0149222D01*
X0229454Y0149222D01*
X0229385Y0149218D01*
X0229316Y0149210D01*
X0229248Y0149199D01*
X0229181Y0149184D01*
X0229115Y0149165D01*
X0229050Y0149143D01*
X0228986Y0149117D01*
X0228924Y0149087D01*
X0228863Y0149055D01*
X0228804Y0149018D01*
X0228748Y0148979D01*
X0228693Y0148937D01*
X0228641Y0148892D01*
X0228592Y0148844D01*
X0228545Y0148793D01*
X0228502Y0148740D01*
X0228461Y0148684D01*
X0228423Y0148627D01*
X0228389Y0148567D01*
X0228358Y0148505D01*
X0228330Y0148442D01*
X0228306Y0148378D01*
X0228285Y0148312D01*
X0228268Y0148245D01*
X0228255Y0148178D01*
X0228246Y0148110D01*
X0228240Y0148041D01*
X0228238Y0147972D01*
X0228238Y0146722D01*
X0232738Y0146722D01*
X0245566Y0140794D02*
X0245566Y0137294D01*
X0245564Y0137234D01*
X0245559Y0137173D01*
X0245550Y0137114D01*
X0245537Y0137055D01*
X0245521Y0136996D01*
X0245501Y0136939D01*
X0245478Y0136884D01*
X0245451Y0136829D01*
X0245422Y0136777D01*
X0245389Y0136726D01*
X0245353Y0136677D01*
X0245315Y0136631D01*
X0245273Y0136587D01*
X0245229Y0136545D01*
X0245183Y0136507D01*
X0245134Y0136471D01*
X0245083Y0136438D01*
X0245031Y0136409D01*
X0244976Y0136382D01*
X0244921Y0136359D01*
X0244864Y0136339D01*
X0244805Y0136323D01*
X0244746Y0136310D01*
X0244687Y0136301D01*
X0244626Y0136296D01*
X0244566Y0136294D01*
X0244066Y0136294D01*
X0247920Y0136294D02*
X0247920Y0140794D01*
X0249170Y0140794D01*
X0249239Y0140792D01*
X0249308Y0140786D01*
X0249376Y0140777D01*
X0249443Y0140764D01*
X0249510Y0140747D01*
X0249576Y0140726D01*
X0249640Y0140702D01*
X0249703Y0140674D01*
X0249765Y0140643D01*
X0249825Y0140609D01*
X0249882Y0140571D01*
X0249938Y0140530D01*
X0249991Y0140487D01*
X0250042Y0140440D01*
X0250090Y0140391D01*
X0250135Y0140339D01*
X0250177Y0140284D01*
X0250216Y0140228D01*
X0250253Y0140169D01*
X0250285Y0140108D01*
X0250315Y0140046D01*
X0250341Y0139982D01*
X0250363Y0139917D01*
X0250382Y0139851D01*
X0250397Y0139784D01*
X0250408Y0139716D01*
X0250416Y0139647D01*
X0250420Y0139578D01*
X0250420Y0139510D01*
X0250416Y0139441D01*
X0250408Y0139372D01*
X0250397Y0139304D01*
X0250382Y0139237D01*
X0250363Y0139171D01*
X0250341Y0139106D01*
X0250315Y0139042D01*
X0250285Y0138980D01*
X0250253Y0138919D01*
X0250216Y0138860D01*
X0250177Y0138804D01*
X0250135Y0138749D01*
X0250090Y0138697D01*
X0250042Y0138648D01*
X0249991Y0138601D01*
X0249938Y0138558D01*
X0249882Y0138517D01*
X0249825Y0138479D01*
X0249765Y0138445D01*
X0249703Y0138414D01*
X0249640Y0138386D01*
X0249576Y0138362D01*
X0249510Y0138341D01*
X0249443Y0138324D01*
X0249376Y0138311D01*
X0249308Y0138302D01*
X0249239Y0138296D01*
X0249170Y0138294D01*
X0247920Y0138294D01*
X0243610Y0103589D02*
X0242360Y0103589D01*
X0242360Y0099089D01*
X0242360Y0101089D02*
X0243610Y0101089D01*
X0243679Y0101091D01*
X0243748Y0101097D01*
X0243816Y0101106D01*
X0243883Y0101119D01*
X0243950Y0101136D01*
X0244016Y0101157D01*
X0244080Y0101181D01*
X0244143Y0101209D01*
X0244205Y0101240D01*
X0244265Y0101274D01*
X0244322Y0101312D01*
X0244378Y0101353D01*
X0244431Y0101396D01*
X0244482Y0101443D01*
X0244530Y0101492D01*
X0244575Y0101544D01*
X0244617Y0101599D01*
X0244656Y0101655D01*
X0244693Y0101714D01*
X0244725Y0101775D01*
X0244755Y0101837D01*
X0244781Y0101901D01*
X0244803Y0101966D01*
X0244822Y0102032D01*
X0244837Y0102099D01*
X0244848Y0102167D01*
X0244856Y0102236D01*
X0244860Y0102305D01*
X0244860Y0102373D01*
X0244856Y0102442D01*
X0244848Y0102511D01*
X0244837Y0102579D01*
X0244822Y0102646D01*
X0244803Y0102712D01*
X0244781Y0102777D01*
X0244755Y0102841D01*
X0244725Y0102903D01*
X0244693Y0102964D01*
X0244656Y0103023D01*
X0244617Y0103079D01*
X0244575Y0103134D01*
X0244530Y0103186D01*
X0244482Y0103235D01*
X0244431Y0103282D01*
X0244378Y0103325D01*
X0244322Y0103366D01*
X0244265Y0103404D01*
X0244205Y0103438D01*
X0244143Y0103469D01*
X0244080Y0103497D01*
X0244016Y0103521D01*
X0243950Y0103542D01*
X0243883Y0103559D01*
X0243816Y0103572D01*
X0243748Y0103581D01*
X0243679Y0103587D01*
X0243610Y0103589D01*
X0246935Y0102339D02*
X0246935Y0100214D01*
X0248185Y0100589D02*
X0248185Y0102089D01*
X0248187Y0102143D01*
X0248193Y0102196D01*
X0248202Y0102248D01*
X0248215Y0102300D01*
X0248232Y0102351D01*
X0248253Y0102401D01*
X0248277Y0102448D01*
X0248304Y0102494D01*
X0248335Y0102538D01*
X0248368Y0102580D01*
X0248405Y0102619D01*
X0248444Y0102656D01*
X0248486Y0102689D01*
X0248530Y0102720D01*
X0248576Y0102747D01*
X0248623Y0102771D01*
X0248673Y0102792D01*
X0248724Y0102809D01*
X0248776Y0102822D01*
X0248828Y0102831D01*
X0248881Y0102837D01*
X0248935Y0102839D01*
X0249685Y0102839D01*
X0249685Y0100464D01*
X0249687Y0100415D01*
X0249693Y0100366D01*
X0249702Y0100318D01*
X0249716Y0100271D01*
X0249733Y0100225D01*
X0249753Y0100180D01*
X0249777Y0100137D01*
X0249804Y0100097D01*
X0249835Y0100058D01*
X0249868Y0100022D01*
X0249904Y0099989D01*
X0249943Y0099958D01*
X0249983Y0099931D01*
X0250026Y0099907D01*
X0250071Y0099887D01*
X0250117Y0099870D01*
X0250164Y0099856D01*
X0250212Y0099847D01*
X0250261Y0099841D01*
X0250310Y0099839D01*
X0250359Y0099841D01*
X0250408Y0099847D01*
X0250456Y0099856D01*
X0250503Y0099870D01*
X0250549Y0099887D01*
X0250594Y0099907D01*
X0250637Y0099931D01*
X0250677Y0099958D01*
X0250716Y0099989D01*
X0250752Y0100022D01*
X0250785Y0100058D01*
X0250816Y0100097D01*
X0250843Y0100137D01*
X0250867Y0100180D01*
X0250887Y0100225D01*
X0250904Y0100271D01*
X0250918Y0100318D01*
X0250927Y0100366D01*
X0250933Y0100415D01*
X0250935Y0100464D01*
X0250935Y0102339D01*
X0250933Y0102427D01*
X0250927Y0102516D01*
X0250917Y0102604D01*
X0250904Y0102691D01*
X0250886Y0102778D01*
X0250865Y0102864D01*
X0250840Y0102949D01*
X0250811Y0103032D01*
X0250778Y0103115D01*
X0250742Y0103195D01*
X0250703Y0103274D01*
X0250660Y0103352D01*
X0250613Y0103427D01*
X0250563Y0103500D01*
X0250510Y0103571D01*
X0250454Y0103640D01*
X0250395Y0103706D01*
X0250333Y0103769D01*
X0250269Y0103829D01*
X0250202Y0103887D01*
X0250132Y0103941D01*
X0250060Y0103993D01*
X0249986Y0104041D01*
X0249909Y0104086D01*
X0249831Y0104127D01*
X0249751Y0104165D01*
X0249670Y0104199D01*
X0249587Y0104230D01*
X0249502Y0104257D01*
X0249417Y0104280D01*
X0249331Y0104299D01*
X0249243Y0104315D01*
X0249156Y0104327D01*
X0249068Y0104335D01*
X0248979Y0104339D01*
X0248891Y0104339D01*
X0248802Y0104335D01*
X0248714Y0104327D01*
X0248627Y0104315D01*
X0248539Y0104299D01*
X0248453Y0104280D01*
X0248368Y0104257D01*
X0248283Y0104230D01*
X0248200Y0104199D01*
X0248119Y0104165D01*
X0248039Y0104127D01*
X0247961Y0104086D01*
X0247884Y0104041D01*
X0247810Y0103993D01*
X0247738Y0103941D01*
X0247668Y0103887D01*
X0247601Y0103829D01*
X0247537Y0103769D01*
X0247475Y0103706D01*
X0247416Y0103640D01*
X0247360Y0103571D01*
X0247307Y0103500D01*
X0247257Y0103427D01*
X0247210Y0103352D01*
X0247167Y0103274D01*
X0247128Y0103195D01*
X0247092Y0103115D01*
X0247059Y0103032D01*
X0247030Y0102949D01*
X0247005Y0102864D01*
X0246984Y0102778D01*
X0246966Y0102691D01*
X0246953Y0102604D01*
X0246943Y0102516D01*
X0246937Y0102427D01*
X0246935Y0102339D01*
X0248185Y0100589D02*
X0248187Y0100535D01*
X0248193Y0100482D01*
X0248202Y0100430D01*
X0248215Y0100378D01*
X0248232Y0100327D01*
X0248253Y0100277D01*
X0248277Y0100230D01*
X0248304Y0100184D01*
X0248335Y0100140D01*
X0248368Y0100098D01*
X0248405Y0100059D01*
X0248444Y0100022D01*
X0248486Y0099989D01*
X0248530Y0099958D01*
X0248576Y0099931D01*
X0248623Y0099907D01*
X0248673Y0099886D01*
X0248724Y0099869D01*
X0248776Y0099856D01*
X0248828Y0099847D01*
X0248881Y0099841D01*
X0248935Y0099839D01*
X0248989Y0099841D01*
X0249042Y0099847D01*
X0249094Y0099856D01*
X0249146Y0099869D01*
X0249197Y0099886D01*
X0249247Y0099907D01*
X0249294Y0099931D01*
X0249340Y0099958D01*
X0249384Y0099989D01*
X0249426Y0100022D01*
X0249465Y0100059D01*
X0249502Y0100098D01*
X0249535Y0100140D01*
X0249566Y0100184D01*
X0249593Y0100230D01*
X0249617Y0100277D01*
X0249638Y0100327D01*
X0249655Y0100378D01*
X0249668Y0100430D01*
X0249677Y0100482D01*
X0249683Y0100535D01*
X0249685Y0100589D01*
X0248686Y0098339D02*
X0248600Y0098347D01*
X0248516Y0098359D01*
X0248432Y0098375D01*
X0248348Y0098394D01*
X0248266Y0098417D01*
X0248185Y0098444D01*
X0248105Y0098474D01*
X0248027Y0098508D01*
X0247950Y0098546D01*
X0247875Y0098587D01*
X0247802Y0098632D01*
X0247731Y0098679D01*
X0247662Y0098730D01*
X0247596Y0098784D01*
X0247532Y0098841D01*
X0247471Y0098901D01*
X0247413Y0098964D01*
X0247357Y0099029D01*
X0247305Y0099096D01*
X0247255Y0099166D01*
X0247209Y0099238D01*
X0247167Y0099312D01*
X0247127Y0099388D01*
X0247091Y0099466D01*
X0247059Y0099545D01*
X0247031Y0099625D01*
X0247006Y0099707D01*
X0246984Y0099790D01*
X0246967Y0099874D01*
X0246953Y0099958D01*
X0246944Y0100043D01*
X0246938Y0100129D01*
X0246936Y0100214D01*
X0240006Y0100089D02*
X0240006Y0103589D01*
X0240006Y0100089D02*
X0240004Y0100029D01*
X0239999Y0099968D01*
X0239990Y0099909D01*
X0239977Y0099850D01*
X0239961Y0099791D01*
X0239941Y0099734D01*
X0239918Y0099679D01*
X0239891Y0099624D01*
X0239862Y0099572D01*
X0239829Y0099521D01*
X0239793Y0099472D01*
X0239755Y0099426D01*
X0239713Y0099382D01*
X0239669Y0099340D01*
X0239623Y0099302D01*
X0239574Y0099266D01*
X0239523Y0099233D01*
X0239471Y0099204D01*
X0239416Y0099177D01*
X0239361Y0099154D01*
X0239304Y0099134D01*
X0239245Y0099118D01*
X0239186Y0099105D01*
X0239127Y0099096D01*
X0239066Y0099091D01*
X0239006Y0099089D01*
X0238506Y0099089D01*
X0253235Y0099089D02*
X0255735Y0099089D01*
X0253235Y0099089D02*
X0255360Y0101589D01*
X0254610Y0103589D02*
X0254537Y0103587D01*
X0254465Y0103582D01*
X0254393Y0103573D01*
X0254321Y0103560D01*
X0254250Y0103544D01*
X0254180Y0103524D01*
X0254112Y0103500D01*
X0254044Y0103474D01*
X0253978Y0103443D01*
X0253913Y0103410D01*
X0253851Y0103373D01*
X0253790Y0103334D01*
X0253731Y0103291D01*
X0253674Y0103245D01*
X0253620Y0103197D01*
X0253569Y0103146D01*
X0253519Y0103092D01*
X0253473Y0103036D01*
X0253430Y0102978D01*
X0253389Y0102917D01*
X0253352Y0102855D01*
X0253318Y0102791D01*
X0253287Y0102725D01*
X0253259Y0102658D01*
X0253235Y0102589D01*
X0255360Y0101589D02*
X0255406Y0101635D01*
X0255450Y0101684D01*
X0255490Y0101735D01*
X0255528Y0101788D01*
X0255563Y0101843D01*
X0255595Y0101900D01*
X0255624Y0101958D01*
X0255650Y0102018D01*
X0255672Y0102080D01*
X0255691Y0102142D01*
X0255707Y0102205D01*
X0255719Y0102269D01*
X0255728Y0102334D01*
X0255733Y0102399D01*
X0255735Y0102464D01*
X0255733Y0102529D01*
X0255727Y0102595D01*
X0255718Y0102659D01*
X0255705Y0102723D01*
X0255688Y0102787D01*
X0255667Y0102849D01*
X0255643Y0102910D01*
X0255615Y0102969D01*
X0255584Y0103027D01*
X0255550Y0103082D01*
X0255512Y0103136D01*
X0255472Y0103187D01*
X0255428Y0103236D01*
X0255382Y0103282D01*
X0255333Y0103326D01*
X0255282Y0103366D01*
X0255228Y0103404D01*
X0255173Y0103438D01*
X0255115Y0103469D01*
X0255056Y0103497D01*
X0254995Y0103521D01*
X0254933Y0103542D01*
X0254869Y0103559D01*
X0254805Y0103572D01*
X0254741Y0103581D01*
X0254675Y0103587D01*
X0254610Y0103589D01*
X0232817Y0082837D02*
X0230067Y0081337D01*
X0231067Y0080337D02*
X0228317Y0082837D01*
X0228317Y0080337D02*
X0232817Y0080337D01*
X0232817Y0077962D02*
X0228317Y0077962D01*
X0228317Y0075462D02*
X0232817Y0077962D01*
X0232817Y0075462D02*
X0228317Y0075462D01*
X0228317Y0072062D02*
X0232817Y0073562D01*
X0231692Y0073187D02*
X0231692Y0070937D01*
X0232817Y0070562D02*
X0228317Y0072062D01*
X0228317Y0067787D02*
X0228317Y0066537D01*
X0232817Y0066537D01*
X0232817Y0067787D01*
X0232815Y0067856D01*
X0232809Y0067925D01*
X0232800Y0067993D01*
X0232787Y0068060D01*
X0232770Y0068127D01*
X0232749Y0068193D01*
X0232725Y0068257D01*
X0232697Y0068320D01*
X0232666Y0068382D01*
X0232632Y0068442D01*
X0232594Y0068499D01*
X0232553Y0068555D01*
X0232510Y0068608D01*
X0232463Y0068659D01*
X0232414Y0068707D01*
X0232362Y0068752D01*
X0232307Y0068794D01*
X0232251Y0068833D01*
X0232192Y0068870D01*
X0232131Y0068902D01*
X0232069Y0068932D01*
X0232005Y0068958D01*
X0231940Y0068980D01*
X0231874Y0068999D01*
X0231807Y0069014D01*
X0231739Y0069025D01*
X0231670Y0069033D01*
X0231601Y0069037D01*
X0231533Y0069037D01*
X0231464Y0069033D01*
X0231395Y0069025D01*
X0231327Y0069014D01*
X0231260Y0068999D01*
X0231194Y0068980D01*
X0231129Y0068958D01*
X0231065Y0068932D01*
X0231003Y0068902D01*
X0230942Y0068870D01*
X0230883Y0068833D01*
X0230827Y0068794D01*
X0230772Y0068752D01*
X0230720Y0068707D01*
X0230671Y0068659D01*
X0230624Y0068608D01*
X0230581Y0068555D01*
X0230540Y0068499D01*
X0230502Y0068442D01*
X0230468Y0068382D01*
X0230437Y0068320D01*
X0230409Y0068257D01*
X0230385Y0068193D01*
X0230364Y0068127D01*
X0230347Y0068060D01*
X0230334Y0067993D01*
X0230325Y0067925D01*
X0230319Y0067856D01*
X0230317Y0067787D01*
X0230317Y0066537D01*
X0230317Y0067787D02*
X0230315Y0067849D01*
X0230309Y0067910D01*
X0230300Y0067971D01*
X0230287Y0068031D01*
X0230270Y0068090D01*
X0230249Y0068148D01*
X0230225Y0068205D01*
X0230198Y0068260D01*
X0230167Y0068313D01*
X0230133Y0068365D01*
X0230096Y0068414D01*
X0230056Y0068461D01*
X0230013Y0068505D01*
X0229968Y0068546D01*
X0229920Y0068585D01*
X0229869Y0068621D01*
X0229817Y0068653D01*
X0229763Y0068682D01*
X0229707Y0068708D01*
X0229649Y0068730D01*
X0229591Y0068749D01*
X0229531Y0068764D01*
X0229470Y0068775D01*
X0229409Y0068783D01*
X0229348Y0068787D01*
X0229286Y0068787D01*
X0229225Y0068783D01*
X0229164Y0068775D01*
X0229103Y0068764D01*
X0229043Y0068749D01*
X0228985Y0068730D01*
X0228927Y0068708D01*
X0228871Y0068682D01*
X0228817Y0068653D01*
X0228765Y0068621D01*
X0228714Y0068585D01*
X0228666Y0068546D01*
X0228621Y0068505D01*
X0228578Y0068461D01*
X0228538Y0068414D01*
X0228501Y0068365D01*
X0228467Y0068313D01*
X0228436Y0068260D01*
X0228409Y0068205D01*
X0228385Y0068148D01*
X0228364Y0068090D01*
X0228347Y0068031D01*
X0228334Y0067971D01*
X0228325Y0067910D01*
X0228319Y0067849D01*
X0228317Y0067787D01*
X0233317Y0064512D02*
X0233317Y0062512D01*
X0232817Y0060562D02*
X0228317Y0060562D01*
X0228317Y0058062D02*
X0232817Y0060562D01*
X0232817Y0058062D02*
X0228317Y0058062D01*
X0228317Y0056062D02*
X0228317Y0055062D01*
X0228317Y0055562D02*
X0232817Y0055562D01*
X0232817Y0055062D02*
X0232817Y0056062D01*
X0230817Y0052187D02*
X0230817Y0050937D01*
X0230817Y0052187D02*
X0230815Y0052256D01*
X0230809Y0052325D01*
X0230800Y0052393D01*
X0230787Y0052460D01*
X0230770Y0052527D01*
X0230749Y0052593D01*
X0230725Y0052657D01*
X0230697Y0052720D01*
X0230666Y0052782D01*
X0230632Y0052842D01*
X0230594Y0052899D01*
X0230553Y0052955D01*
X0230510Y0053008D01*
X0230463Y0053059D01*
X0230414Y0053107D01*
X0230362Y0053152D01*
X0230307Y0053194D01*
X0230251Y0053233D01*
X0230192Y0053270D01*
X0230131Y0053302D01*
X0230069Y0053332D01*
X0230005Y0053358D01*
X0229940Y0053380D01*
X0229874Y0053399D01*
X0229807Y0053414D01*
X0229739Y0053425D01*
X0229670Y0053433D01*
X0229601Y0053437D01*
X0229533Y0053437D01*
X0229464Y0053433D01*
X0229395Y0053425D01*
X0229327Y0053414D01*
X0229260Y0053399D01*
X0229194Y0053380D01*
X0229129Y0053358D01*
X0229065Y0053332D01*
X0229003Y0053302D01*
X0228942Y0053270D01*
X0228883Y0053233D01*
X0228827Y0053194D01*
X0228772Y0053152D01*
X0228720Y0053107D01*
X0228671Y0053059D01*
X0228624Y0053008D01*
X0228581Y0052955D01*
X0228540Y0052899D01*
X0228502Y0052842D01*
X0228468Y0052782D01*
X0228437Y0052720D01*
X0228409Y0052657D01*
X0228385Y0052593D01*
X0228364Y0052527D01*
X0228347Y0052460D01*
X0228334Y0052393D01*
X0228325Y0052325D01*
X0228319Y0052256D01*
X0228317Y0052187D01*
X0228317Y0050937D01*
X0232817Y0050937D01*
D16*
X0119533Y0039140D03*
X0119533Y0033726D03*
X0111699Y0110380D03*
X0111699Y0115793D03*
X0107014Y0182978D03*
X0107014Y0188392D03*
D17*
X0108539Y0185685D03*
X0113224Y0113087D03*
X0121059Y0036433D03*
M02*
