%
M48
M72
T01C0.01378
T02C0.04000
T03C0.05200
T04C0.12500
%
T01
X88402Y63402
X86236Y145291
T02
X86472Y132496
X106472Y132496
X104898Y204740
X84898Y204740
X240488Y191472
X240488Y181472
X240488Y171472
X240488Y161472
X240488Y151472
X250488Y151472
X250488Y161472
X250488Y171472
X250488Y181472
X250488Y191472
X250488Y128756
X240488Y128756
X240685Y111039
X250685Y111039
X249898Y84386
X249898Y74386
X249898Y64386
X249898Y54386
X249898Y44386
X239898Y44386
X239898Y54386
X239898Y64386
X239898Y74386
X239898Y84386
X108402Y53087
X88402Y53087
T03
X42535Y64583
X41748Y31118
X42339Y101394
X41528Y133126
X41134Y166551
X41898Y203717
X41898Y221906
X84583Y221394
X187811Y203165
X187811Y164976
X188008Y132890
X188205Y101787
X188008Y68913
X187811Y38008
T04
X16157Y30724
X15764Y222850
X225803Y228953
X232496Y18323
M30
