G75*
%MOIN*%
%OFA0B0*%
%FSLAX25Y25*%
%IPPOS*%
%LPD*%
%AMOC8*
5,1,8,0,0,1.08239X$1,22.5*
%
%ADD10C,0.13300*%
%ADD11C,0.06800*%
%ADD12OC8,0.09300*%
%ADD13OC8,0.06800*%
%ADD14C,0.03778*%
D10*
X0016157Y0030724D03*
X0015764Y0222850D03*
X0225803Y0228953D03*
X0232496Y0018323D03*
D11*
X0240685Y0108039D02*
X0240685Y0114039D01*
X0250685Y0114039D02*
X0250685Y0108039D01*
X0250488Y0125756D02*
X0250488Y0131756D01*
X0240488Y0131756D02*
X0240488Y0125756D01*
X0108402Y0056087D02*
X0108402Y0050087D01*
X0088402Y0050087D02*
X0088402Y0056087D01*
X0086472Y0129496D02*
X0086472Y0135496D01*
X0106472Y0135496D02*
X0106472Y0129496D01*
X0104898Y0201740D02*
X0104898Y0207740D01*
X0084898Y0207740D02*
X0084898Y0201740D01*
D12*
X0084583Y0221394D03*
X0041898Y0221906D03*
X0041898Y0203717D03*
X0041134Y0166551D03*
X0041528Y0133126D03*
X0042339Y0101394D03*
X0042535Y0064583D03*
X0041748Y0031118D03*
X0187811Y0038008D03*
X0188008Y0068913D03*
X0188205Y0101787D03*
X0188008Y0132890D03*
X0187811Y0164976D03*
X0187811Y0203165D03*
D13*
X0240488Y0191472D03*
X0240488Y0181472D03*
X0240488Y0171472D03*
X0240488Y0161472D03*
X0240488Y0151472D03*
X0250488Y0151472D03*
X0250488Y0161472D03*
X0250488Y0171472D03*
X0250488Y0181472D03*
X0250488Y0191472D03*
X0249898Y0084386D03*
X0249898Y0074386D03*
X0249898Y0064386D03*
X0249898Y0054386D03*
X0249898Y0044386D03*
X0239898Y0044386D03*
X0239898Y0054386D03*
X0239898Y0064386D03*
X0239898Y0074386D03*
X0239898Y0084386D03*
D14*
X0088402Y0063402D03*
X0086236Y0145291D03*
M02*
